<?xml version="1.0"?>
<svg xmlns="http://www.w3.org/2000/svg" xmlns:xlink="http://www.w3.org/1999/xlink" xmlns:svgjs="http://svgjs.com/svgjs" version="1.1" width="512" height="512" x="0" y="0" viewBox="0 0 135 135" style="enable-background:new 0 0 512 512" xml:space="preserve" class=""><g><g xmlns="http://www.w3.org/2000/svg"><g><g><g><g><path d="m116.097 89.777h3.907v13.454h-3.907z" fill="#091217" data-original="#ab5033" style=""/><path d="m128.2745667 95.5608978h-20.4483032c4.4116211-10.2838669 2.2843399-5.3276672 10.2120285-23.7905197 7.9723968 18.5000687 5.8215789 13.4994888 10.2362747 23.7905197z" fill="#091217" data-original="#7aaf00" style="" class=""/><path d="m124.7649384 87.3796616h-13.4290467l6.7024002-15.6092835z" opacity=".1" fill="#091217" data-original="#000000" style="" class=""/><path d="m127.6652527 85.1547775h-19.2296829c4.5309601-10.0187607 2.4929962-5.5143356 9.6027222-21.2232018 7.1172027 15.6620522 5.0896072 11.1902962 9.6269607 21.2232018z" fill="#091217" data-original="#7aaf00" style="" class=""/><path d="m124.058197 77.1789169h-12.0155639l5.9956588-13.2473411z" opacity=".1" fill="#091217" data-original="#000000" style="" class=""/><path d="m118.0485458 55.9082184-9.0761642 19.0569534h18.1523285z" fill="#091217" data-original="#7aaf00" style="" class=""/></g><g><path d="m102.915 87.372h4.606v15.86h-4.606z" fill="#091217" data-original="#ab5033" style=""/><path d="m117.2701797 94.1894531h-24.1042709c5.2003784-12.1225281 2.6927643-6.2802048 12.0378418-28.0440445 9.3977966 21.8077088 6.8624268 15.9130707 12.0664291 28.0440445z" fill="#091217" data-original="#8fc902" style="" class=""/><path d="m113.1330643 84.5454865h-15.83004l7.9007263-18.4000779z" opacity=".1" fill="#091217" data-original="#000000" style="" class=""/><path d="m116.5519333 81.9228134h-22.667778c5.3410568-11.8100204 2.9387207-6.5002441 11.3195953-25.0177155 8.3896942 18.4622803 5.999588 13.1910248 11.3481827 25.0177155z" fill="#091217" data-original="#8fc902" style="" class=""/><path d="m112.2999573 72.5209427h-14.1638336l7.0676269-15.6158447z" opacity=".1" fill="#091217" data-original="#000000" style="" class=""/><path d="m105.2158432 47.4472351-10.6988983 22.4641647h21.3977966z" fill="#091217" data-original="#8fc902" style="" class=""/></g></g><g><g><g><g><path d="m6.725 36.966h42.036v66.266h-42.036z" fill="#091217" data-original="#dbdbdb" style="" class=""/></g><g><path d="m6.725 31.398h1.607v5.568h-1.607z" fill="#091217" data-original="#dbdbdb" style="" class=""/></g><g><path d="m12.501 31.398h1.607v5.568h-1.607z" fill="#091217" data-original="#dbdbdb" style="" class=""/></g><g><path d="m18.277 31.398h1.607v5.568h-1.607z" fill="#091217" data-original="#dbdbdb" style="" class=""/></g><g><path d="m24.052 31.398h1.607v5.568h-1.607z" fill="#091217" data-original="#dbdbdb" style="" class=""/></g><g><path d="m29.828 31.398h1.607v5.568h-1.607z" fill="#091217" data-original="#dbdbdb" style="" class=""/></g><g><path d="m35.603 31.398h1.607v5.568h-1.607z" fill="#091217" data-original="#dbdbdb" style="" class=""/></g><g><path d="m41.379 31.398h1.607v5.568h-1.607z" fill="#091217" data-original="#dbdbdb" style="" class=""/></g><g><path d="m47.155 31.398h1.607v5.568h-1.607z" fill="#091217" data-original="#dbdbdb" style="" class=""/></g><g><path d="m6.725 28.608h42.036v2.79h-42.036z" fill="#091217" data-original="#dbdbdb" style="" class=""/></g></g></g><g><g><g><g><path d="m18.544 36.966h1.338v66.265h-1.338z" fill="#091217" data-original="#4f4e4d" style="" class=""/></g></g><g><g><path d="m9.876 36.966h1.338v66.265h-1.338z" fill="#091217" data-original="#4f4e4d" style="" class=""/></g></g><g><g><g><path d="m10.545 39.054h8.668v1.392h-8.668z" fill="#091217" data-original="#4f4e4d" style="" class=""/></g></g><g><g><path d="m10.545 43.723h8.668v1.392h-8.668z" fill="#091217" data-original="#4f4e4d" style="" class=""/></g></g><g><g><path d="m10.545 48.391h8.668v1.392h-8.668z" fill="#091217" data-original="#4f4e4d" style="" class=""/></g></g><g><g><path d="m10.545 53.061h8.668v1.392h-8.668z" fill="#091217" data-original="#4f4e4d" style="" class=""/></g></g><g><g><path d="m10.545 57.73h8.668v1.392h-8.668z" fill="#091217" data-original="#4f4e4d" style="" class=""/></g></g><g><g><path d="m10.545 62.399h8.668v1.392h-8.668z" fill="#091217" data-original="#4f4e4d" style="" class=""/></g></g><g><g><path d="m10.545 67.068h8.668v1.392h-8.668z" fill="#091217" data-original="#4f4e4d" style="" class=""/></g></g><g><g><path d="m10.545 71.738h8.668v1.392h-8.668z" fill="#091217" data-original="#4f4e4d" style="" class=""/></g></g><g><g><path d="m10.545 76.407h8.668v1.392h-8.668z" fill="#091217" data-original="#4f4e4d" style="" class=""/></g></g><g><g><path d="m10.545 81.075h8.668v1.392h-8.668z" fill="#091217" data-original="#4f4e4d" style="" class=""/></g></g><g><g><path d="m10.545 85.745h8.668v1.392h-8.668z" fill="#091217" data-original="#4f4e4d" style="" class=""/></g></g><g><g><path d="m10.545 90.415h8.668v1.392h-8.668z" fill="#091217" data-original="#4f4e4d" style="" class=""/></g></g><g><g><path d="m10.545 95.084h8.668v1.392h-8.668z" fill="#091217" data-original="#4f4e4d" style="" class=""/></g></g><g><g><path d="m10.545 99.752h8.668v1.392h-8.668z" fill="#091217" data-original="#4f4e4d" style="" class=""/></g></g></g></g></g></g><g><g><g><path d="m98.4649429 53.4735374-30.9353637-22.6871147-30.9353638 22.6871147v49.75803h61.8707275z" fill="#091217" data-original="#e02d24" style="" class=""/></g><g><g><g><path d="m95.7265778 51.4680519v51.7569924h-2.1774064v-53.3682519z" fill="#091217" data-original="#ce1b17" style="" class=""/></g></g><g><g><path d="m90.304863 47.4833603v55.741684h-2.1774063v-57.3311463z" fill="#091217" data-original="#ce1b17" style="" class=""/></g></g><g><g><path d="m84.8831406 43.498806v59.7262383h-2.1774063v-61.3158379z" fill="#091217" data-original="#ce1b17" style="" class=""/></g></g><g><g><path d="m79.4614182 39.5359077v63.6891366h-2.1774064v-65.2787323z" fill="#091217" data-original="#ce1b17" style="" class=""/></g></g><g><g><path d="m74.0397034 35.5512199v67.6738244h-2.1774063v-69.2632905z" fill="#091217" data-original="#ce1b17" style="" class=""/></g></g><g><g><path d="m68.617981 31.5883236v71.6367207h-2.1774064v-71.6367207l1.0886994-.8056297z" fill="#091217" data-original="#ce1b17" style="" class=""/></g></g><g><g><path d="m63.1962585 33.9617538v69.2632905h-2.1774063v-67.6738244z" fill="#091217" data-original="#ce1b17" style="" class=""/></g></g><g><g><path d="m57.7745399 37.946312v65.2787323h-2.1774063v-63.6891366z" fill="#091217" data-original="#ce1b17" style="" class=""/></g></g><g><g><path d="m52.3528175 41.9092064v61.3158379h-2.1774025v-59.7262383z" fill="#091217" data-original="#ce1b17" style="" class=""/></g></g><g><g><path d="m46.9310989 45.893898v57.3311463h-2.1774063v-55.741684z" fill="#091217" data-original="#ce1b17" style="" class=""/></g></g><g><g><path d="m41.5093803 49.8567924v53.3682519h-2.1774063v-51.7569924z" fill="#091217" data-original="#ce1b17" style="" class=""/></g></g></g><g><path d="m34.5896301 57.1232758c-.6698074 0-1.3311119-.3083229-1.7585106-.8898888-.7102089-.9696236-.5018272-2.3326302.4678001-3.0428391l32.9417725-24.159853c.7697525-.5634899 1.8074188-.5634899 2.5771637 0l32.9439011 24.159853c.9696274.7102089 1.1780167 2.0732155.467804 3.0428391-.7123337.9685631-2.0732117 1.1801376-3.0449677.467804l-31.6553192-23.2146798-31.6531906 23.2146797c-.3891258.2849312-.8399163.4220849-1.2864533.4220849z" fill="#091217" data-original="#fa4a3d" style="" class=""/></g></g><g><path d="m57.297 74.511h20.467v28.72h-20.467z" fill="#091217" data-original="#eae5b7" style="" class=""/><path d="m55.599 71.839h23.862v2.672h-23.862z" fill="#091217" data-original="#f9f6c9" style="" class=""/><path d="m59.475 76.689h16.112v26.536h-16.112z" fill="#091217" data-original="#fa4a3d" style="" class=""/><g><path d="m59.475 78.738h16.112v1.089h-16.112z" fill="#091217" data-original="#e23030" style="" class=""/></g><g><path d="m59.475 81.815h16.112v1.089h-16.112z" fill="#091217" data-original="#e23030" style="" class=""/></g><g><path d="m59.475 84.892h16.112v1.089h-16.112z" fill="#091217" data-original="#e23030" style="" class=""/></g><g><path d="m59.475 87.968h16.112v1.089h-16.112z" fill="#091217" data-original="#e23030" style="" class=""/></g><g><path d="m59.475 91.045h16.112v1.089h-16.112z" fill="#091217" data-original="#e23030" style="" class=""/></g><g><path d="m59.475 94.122h16.112v1.089h-16.112z" fill="#091217" data-original="#e23030" style="" class=""/></g><g><path d="m59.475 97.2h16.112v1.089h-16.112z" fill="#091217" data-original="#e23030" style="" class=""/></g><g><path d="m59.475 100.277h16.112v1.089h-16.112z" fill="#091217" data-original="#e23030" style="" class=""/></g></g><g><g><g><path d="m40.541 78.884h11.693v18.273h-11.693z" fill="#091217" data-original="#eae5b7" style="" class=""/></g><g><path d="m41.786 80.128h9.204v15.786h-9.204z" fill="#091217" data-original="#f9f6c9" style="" class=""/></g><g><path d="m42.408 80.75h7.96v14.542h-7.96z" fill="#091217" data-original="#44433f" style="" class=""/></g><g><path d="m39.572 77.357h13.632v1.527h-13.632z" fill="#091217" data-original="#f9f6c9" style="" class=""/></g><g><g><path d="m41.786 90.463h9.204v.622h-9.204z" fill="#091217" data-original="#f9f6c9" style="" class=""/></g><g><path d="m41.786 84.957h9.204v.622h-9.204z" fill="#091217" data-original="#f9f6c9" style="" class=""/></g></g><g><path d="m46.076 80.548h.622v14.945h-.622z" fill="#091217" data-original="#f9f6c9" style="" class=""/></g></g><g><g><path d="m82.827 78.884h11.693v18.273h-11.693z" fill="#091217" data-original="#eae5b7" style="" class=""/></g><g><path d="m84.071 80.128h9.204v15.786h-9.204z" fill="#091217" data-original="#f9f6c9" style="" class=""/></g><g><path d="m84.693 80.75h7.96v14.542h-7.96z" fill="#091217" data-original="#44433f" style="" class=""/></g><g><path d="m81.857 77.357h13.632v1.527h-13.632z" fill="#091217" data-original="#f9f6c9" style="" class=""/></g><g><g><path d="m84.071 90.463h9.204v.622h-9.204z" fill="#091217" data-original="#f9f6c9" style="" class=""/></g><g><path d="m84.071 84.957h9.204v.622h-9.204z" fill="#091217" data-original="#f9f6c9" style="" class=""/></g></g><g><path d="m88.361 80.548h.622v14.945h-.622z" fill="#091217" data-original="#f9f6c9" style="" class=""/></g></g></g><g><g><path d="m55.493 46.684h13.632v1.527h-13.632z" fill="#091217" data-original="#f9f6c9" style="" class=""/></g><g><path d="m65.935 46.684h13.632v1.527h-13.632z" fill="#091217" data-original="#f9f6c9" style="" class=""/></g><g><g><g><path d="m56.463 48.211h11.693v18.273h-11.693z" fill="#091217" data-original="#eae5b7" style="" class=""/></g><g><path d="m57.707 49.454h9.204v15.786h-9.204z" fill="#091217" data-original="#f9f6c9" style="" class=""/></g><g><path d="m58.329 50.076h7.96v14.542h-7.96z" fill="#091217" data-original="#44433f" style="" class=""/></g><g><g><path d="m57.707 59.79h9.204v.622h-9.204z" fill="#091217" data-original="#f9f6c9" style="" class=""/></g><g><path d="m57.707 54.283h9.204v.622h-9.204z" fill="#091217" data-original="#f9f6c9" style="" class=""/></g></g><g><path d="m61.998 49.875h.622v14.945h-.622z" fill="#091217" data-original="#f9f6c9" style="" class=""/></g></g><g><g><path d="m66.905 48.211h11.693v18.273h-11.693z" fill="#091217" data-original="#eae5b7" style="" class=""/></g><g><path d="m68.15 49.454h9.204v15.786h-9.204z" fill="#091217" data-original="#f9f6c9" style="" class=""/></g><g><path d="m68.771 50.076h7.96v14.542h-7.96z" fill="#091217" data-original="#44433f" style="" class=""/></g><g><g><path d="m68.15 59.79h9.204v.622h-9.204z" fill="#091217" data-original="#f9f6c9" style="" class=""/></g><g><path d="m68.15 54.283h9.204v.622h-9.204z" fill="#091217" data-original="#f9f6c9" style="" class=""/></g></g><g><path d="m72.44 49.875h.622v14.945h-.622z" fill="#091217" data-original="#f9f6c9" style="" class=""/></g></g></g></g></g></g><path d="m3.5 103.232h128v3.16h-128z" fill="#091217" data-original="#7a8490" style="" class=""/></g></g></g></svg>
