<?xml version="1.0"?>
<svg xmlns="http://www.w3.org/2000/svg" xmlns:xlink="http://www.w3.org/1999/xlink" xmlns:svgjs="http://svgjs.com/svgjs" version="1.1" width="512" height="512" x="0" y="0" viewBox="0 0 498.179 498.179" style="enable-background:new 0 0 512 512" xml:space="preserve" class=""><g><path xmlns="http://www.w3.org/2000/svg" d="m466.408 437.165c.525 2.165 2.464 3.689 4.691 3.689h12.758c2.666 0 4.828-2.161 4.828-4.828v-102.827-22.283h-56.958z" fill="#181d2d" data-original="#e8ad8c" style=""/><path xmlns="http://www.w3.org/2000/svg" d="m58.007 333.199-25.237 103.966c-.525 2.165-2.464 3.689-4.691 3.689h-12.759c-2.666 0-4.828-2.161-4.828-4.828v-102.827-19.169h55.101z" fill="#181d2d" data-original="#e8ad8c" style=""/><path xmlns="http://www.w3.org/2000/svg" d="m21.839 314.03h-11.346v19.169 102.827c0 2.666 2.161 4.828 4.828 4.828h12.758c.187 0 .368-.026.551-.047-.025-.201-.061-.398-.061-.606v-71.547c0-8.538 6.922-15.46 15.46-15.46h9.126l4.854-19.996 7.587-19.169h-43.757z" fill="#181d2d" data-original="#e19974" style="" class=""/><g xmlns="http://www.w3.org/2000/svg"><g><path d="m52.569 244.647v27.59 18.235h-34.123v-18.235-28.252-21.193h34.123z" fill="#181d2d" data-original="#e8ad8c" style=""/></g></g><g xmlns="http://www.w3.org/2000/svg"><path d="m446.609 221.138h34.122v67.089h-34.122z" fill="#181d2d" data-original="#e8ad8c" style=""/></g><g xmlns="http://www.w3.org/2000/svg"><path d="m490.629 242.985c4.17 0 7.55-3.38 7.55-7.55v-25.29c0-4.17-3.38-7.55-7.55-7.55h-96.102v40.39z" fill="#181d2d" data-original="#dc8758" style="" class=""/></g><path xmlns="http://www.w3.org/2000/svg" d="m394.527 202.595v31.32h43.792c17.27 0 31.319-14.05 31.319-31.319h-75.111z" fill="#181d2d" data-original="#d77f4a" style="" class=""/><g xmlns="http://www.w3.org/2000/svg"><path d="m415.508 213.913v59.324 27.15h-34.122v-27.15-58.025-33.586h34.123z" fill="#181d2d" data-original="#e8ad8c" style=""/></g><path xmlns="http://www.w3.org/2000/svg" d="m7.548 202.599c-4.169 0-7.548 3.38-7.548 7.548v25.289c0 4.169 3.379 7.548 7.548 7.548h100.863s.231-40.154 0-40.386c-.231-.23-100.863.001-100.863.001z" fill="#181d2d" data-original="#dc8758" style="" class=""/><path xmlns="http://www.w3.org/2000/svg" d="m29.539 202.555v.04c0 17.27 14.05 31.319 31.319 31.319h47.598c.053-11.858.115-31.155-.046-31.315-.16-.161-49.245-.097-78.871-.044z" fill="#181d2d" data-original="#d77f4a" style="" class=""/><g xmlns="http://www.w3.org/2000/svg"><path d="m117.792 215.212v75.948h-34.123v-77.247-36.092h34.123z" fill="#181d2d" data-original="#e8ad8c" style=""/></g><g xmlns="http://www.w3.org/2000/svg"><path d="m491.615 273.237h-485.053c-3.072 0-5.562 2.491-5.562 5.563v18.856c0 3.072 2.49 5.562 5.562 5.562h485.052c3.072 0 5.562-2.49 5.562-5.562v-18.856c.001-3.072-2.489-5.563-5.561-5.563z" fill="#181d2d" data-original="#e19974" style="" class=""/><path d="m64.072 291.941c-8.054 0-14.583-6.529-14.583-14.583v-4.12h-42.927c-3.072-.001-5.562 2.49-5.562 5.562v18.856c0 3.072 2.49 5.563 5.563 5.563h485.052c3.072 0 5.562-2.49 5.562-5.562v-5.715h-433.105z" fill="#181d2d" data-original="#dc8758" style="" class=""/><g id="XMLID_463_"><g><path d="m41.839 303.215h-35.28c-3.07 0-5.56 2.49-5.56 5.57v18.85c0 3.07 2.49 5.56 5.56 5.56h35.28l7.651-7.984v-18.908z" fill="#181d2d" data-original="#c86d36" style="" class=""/><path d="m449.245 310.916h-6.691-10.827l34.681 126.25c.526 2.165 2.464 3.689 4.691 3.689h12.758c2.666 0 4.827-2.161 4.827-4.827v-5.701h-2.96c-2.228 0-4.166-1.524-4.691-3.689l-17.216-62.671c-1.489-5.42 2.59-10.771 8.211-10.771h16.656v-19.996-22.283h-39.439z" fill="#181d2d" data-original="#e19974" style="" class=""/><path d="m491.619 303.215h-35.28l-7.574 7.817v15.199l7.574 6.963h35.28c3.07 0 5.56-2.49 5.56-5.56v-18.85c0-3.079-2.49-5.569-5.56-5.569z" fill="#181d2d" data-original="#c86d36" style="" class=""/><path d="m41.839 303.215h414.5v29.98h-414.5z" fill="#181d2d" data-original="#d77f4a" style="" class=""/></g></g><g id="XMLID_446_"><g><path d="m449.639 186.075v16.52c0 6.25-5.07 11.32-11.32 11.32h-377.46c-6.25 0-11.32-5.07-11.32-11.32v-16.52c0-6.24 5.07-11.31 11.32-11.31l192.882-10 184.578 10c6.25 0 11.32 5.07 11.32 11.31z" fill="#181d2d" data-original="#e19974" style="" class=""/><path d="m449.639 107.785v16.52c0 6.25-5.07 11.31-11.32 11.31l-177.286 10-200.174-10c-6.25 0-11.32-5.06-11.32-11.31v-16.52c0-6.25 5.07-11.32 11.32-11.32l192.854-8 184.606 8c6.25 0 11.32 5.07 11.32 11.32z" fill="#181d2d" data-original="#e19974" style="" class=""/><g fill="#e8ad8c"><path d="m449.639 146.935v16.52c0 6.24-5.07 11.31-11.32 11.31h-377.46c-6.25 0-11.32-5.07-11.32-11.31v-16.52c0-6.25 5.07-11.32 11.32-11.32h377.46c6.25 0 11.32 5.07 11.32 11.32z" fill="#181d2d" data-original="#e8ad8c" style=""/><path d="m449.639 68.635v16.52c0 6.25-5.07 11.31-11.32 11.31h-377.46c-6.25 0-11.32-5.06-11.32-11.31v-16.52c0-6.25 5.07-11.31 11.32-11.31h377.46c6.25 0 11.32 5.06 11.32 11.31z" fill="#181d2d" data-original="#e8ad8c" style=""/></g></g><g><path d="m90.816 202.595v-16.52c0-6.24 5.07-11.31 11.32-11.31h-41.277c-6.25 0-11.32 5.07-11.32 11.31v16.52c0 6.25 5.07 11.32 11.32 11.32h41.277c-6.25 0-11.32-5.07-11.32-11.32z" fill="#181d2d" data-original="#dc8758" style="" class=""/><path d="m90.816 124.305v-16.52c0-6.25 5.07-11.32 11.32-11.32h-41.277c-6.25 0-11.32 5.07-11.32 11.32v16.52c0 6.25 5.07 11.31 11.32 11.31h41.277c-6.25 0-11.32-5.06-11.32-11.31z" fill="#181d2d" data-original="#dc8758" style="" class=""/><g fill="#e19974"><path d="m90.816 163.455v-16.52c0-6.25 5.07-11.32 11.32-11.32h-41.277c-6.25 0-11.32 5.07-11.32 11.32v16.52c0 6.24 5.07 11.31 11.32 11.31h41.277c-6.25 0-11.32-5.07-11.32-11.31z" fill="#181d2d" data-original="#e19974" style="" class=""/><path d="m90.816 85.155v-16.52c0-6.25 5.07-11.31 11.32-11.31h-41.277c-6.25 0-11.32 5.06-11.32 11.31v16.52c0 6.25 5.07 11.31 11.32 11.31h41.277c-6.25 0-11.32-5.06-11.32-11.31z" fill="#181d2d" data-original="#e19974" style="" class=""/></g></g></g></g></g></svg>
