<?xml version="1.0"?>
<svg xmlns="http://www.w3.org/2000/svg" xmlns:xlink="http://www.w3.org/1999/xlink" xmlns:svgjs="http://svgjs.com/svgjs" version="1.1" width="512" height="512" x="0" y="0" viewBox="0 0 64 64" style="enable-background:new 0 0 512 512" xml:space="preserve" class=""><g><g xmlns="http://www.w3.org/2000/svg" id="Layer_2" data-name="Layer 2"><path d="m57 30.08c0 2.761-3.582 3-8 3s-8-.239-8-3 3.582-7 8-7 8 4.238 8 7z" fill="#181d2d" data-original="#629955" style=""/><path d="m56.99 29.826-.011-.019a5.947 5.947 0 0 0 -2.979-.807h-.014a3.552 3.552 0 0 1 -2.25-.7 6 6 0 0 0 -8.349.863 5.57 5.57 0 0 0 -2.241-.1 4.046 4.046 0 0 0 -.146 1.017c0 2.761 3.582 3 8 3 4.55 0 8.213-.253 7.99-3.254z" fill="#181d2d" data-original="#508c3f" style="" class=""/><path d="m29.743 15.273a5.972 5.972 0 0 0 -7.128-4.106 6 6 0 0 0 -9.23 0 5.974 5.974 0 0 0 -7.13 4.108c-2.033 1.025-3.255 2.316-3.255 3.725 0 3.314 6.716 6 15 6s15-2.686 15-6c0-1.409-1.223-2.7-3.257-3.727z" fill="#181d2d" data-original="#629955" style=""/><path d="m29.743 15.273a5.972 5.972 0 0 0 -7.128-4.106 5.989 5.989 0 0 0 -3.915-2.126 3.918 3.918 0 0 0 -1.7 2.959c0 3.314 5.82 6 13 6 .934 0 1.843-.048 2.722-.134a6.339 6.339 0 0 0 -2.979-2.593z" fill="#181d2d" data-original="#508c3f" style="" class=""/><path d="m21 22c-8.284 0-15-2.686-15-6a2.46 2.46 0 0 1 .094-.637c-1.932 1.009-3.094 2.267-3.094 3.637 0 3.314 6.716 6 15 6 7.748 0 14.121-2.35 14.914-5.365-2.74 1.435-7.05 2.365-11.914 2.365z" fill="#181d2d" data-original="#508c3f" style="" class=""/><path d="m44.828 25h.515a4 4 0 0 0 2.829-1.172l9.828-9.828-3-3-8.828 8.828a4 4 0 0 1 -2.829 1.172h-7.343a2 2 0 0 1 -2-2v-4h-4v4a2.033 2.033 0 0 1 -2.074 2 7 7 0 0 0 -6.926 7v3a4 4 0 0 1 -4 4h-4a2 2 0 0 1 -2-2v-2h-4v4a4 4 0 0 0 4 4h12a4 4 0 0 1 4 4v1.1a16 16 0 0 1 -1.019 5.618l-3.968 10.582a2 2 0 0 0 1.873 2.7h12.848a2 2 0 0 0 1.985-2.248l-1.595-12.764a15.857 15.857 0 0 1 -.124-1.988v-5.172a7.828 7.828 0 0 0 -7.85-7.828 4.089 4.089 0 0 1 -4.038-3.039 4.007 4.007 0 0 1 3.888-4.961h3.343a4 4 0 0 1 2.829 1.172l9.828 9.828 3-3-4.586-4.586a2 2 0 0 1 1.414-3.414z" fill="#181d2d" data-original="#c67a60" style="" class=""/><g fill="#b26049"><path d="m34.368 34.984c-.035.1-.083.19-.113.291-2.033 1.025-3.255 2.316-3.255 3.725 0 1.961 2.363 3.7 6 4.792v-2.964a7.8 7.8 0 0 0 -2.632-5.844z" fill="#181d2d" data-original="#b26049" style="" class=""/><path d="m43.414 28.414c-.044-.044-.066-.1-.105-.143a6.024 6.024 0 0 0 -.924.9 6.015 6.015 0 0 0 -1.385-.171 5.931 5.931 0 0 0 -2.455.545l6.455 6.455 3-3z" fill="#181d2d" data-original="#b26049" style="" class=""/><path d="m47.988 18.012c1.041.731 2.827.967 4.962 1.038l5.05-5.05-3-3z" fill="#181d2d" data-original="#b26049" style="" class=""/><path d="m30 18.922c.654.046 1.318.078 2 .078s1.346-.032 2-.078v-3.922h-4z" fill="#181d2d" data-original="#b26049" style="" class=""/><path d="m38.625 60h-.438a9.831 9.831 0 0 1 -9.206-13.283 16 16 0 0 0 1.019-5.617v-1.1a4 4 0 0 0 -4-4h-12a4 4 0 0 1 -4-4v-1h-3v4a4 4 0 0 0 4 4h12a4 4 0 0 1 4 4v1.1a16 16 0 0 1 -1.019 5.618l-3.968 10.582a2 2 0 0 0 1.873 2.7h12.848a2 2 0 0 0 1.985-2.248z" fill="#181d2d" data-original="#b26049" style="" class=""/></g><path d="m17 30c0 2.761-3.582 3-8 3s-8-.239-8-3 3.582-7 8-7 8 4.239 8 7z" fill="#181d2d" data-original="#85b27c" style="" class=""/><path d="m12 30c-4.418 0-8-.239-8-3a5.516 5.516 0 0 1 .916-2.76c-2.342 1.46-3.916 3.932-3.916 5.76 0 2.761 3.582 3 8 3s8-.239 8-3c0-.1-.015-.2-.024-.309a27.933 27.933 0 0 1 -4.976.309z" fill="#181d2d" data-original="#699b5d" style="" class=""/><path d="m63 14.08c0 2.761-3.582 3-8 3s-8-.239-8-3 3.582-7 8-7 8 4.238 8 7z" fill="#181d2d" data-original="#85b27c" style="" class=""/><path d="m58 14.08c-4.418 0-8-.239-8-3a5.522 5.522 0 0 1 .916-2.761c-2.342 1.465-3.916 3.933-3.916 5.761 0 2.761 3.582 3 8 3s8-.239 8-3c0-.1-.015-.206-.024-.309a28.027 28.027 0 0 1 -4.976.309z" fill="#181d2d" data-original="#699b5d" style="" class=""/><path d="m42.924 7.755a3.981 3.981 0 0 0 -5.99-4.165 5.993 5.993 0 0 0 -9.608-.347 3.947 3.947 0 0 0 -1.326-.243 4 4 0 0 0 -4 4c0 .055.014.105.016.159-1.882 1.041-3.016 2.38-3.016 3.841 0 3.314 5.82 6 13 6s13-2.686 13-6a4.183 4.183 0 0 0 -2.076-3.245z" fill="#181d2d" data-original="#85b27c" style="" class=""/><path d="m40.732 7a1 1 0 0 1 -.866-.5 1 1 0 0 0 -.866-.5 1 1 0 0 1 0-2 3.014 3.014 0 0 1 2.6 1.5 1 1 0 0 1 -.868 1.5z" fill="#181d2d" data-original="#ffffff" style="" class=""/><path d="m36 14c-7.18 0-13-2.686-13-6 0-1.461 1.134-2.8 3.016-3.841 0-.054-.016-.1-.016-.159a3.971 3.971 0 0 1 .137-.987c-.046-.002-.09-.013-.137-.013a4 4 0 0 0 -4 4c0 .055.014.105.016.159-1.882 1.041-3.016 2.38-3.016 3.841 0 3.314 5.82 6 13 6 6.053 0 11.125-1.912 12.572-4.5a23.308 23.308 0 0 1 -8.572 1.5z" fill="#181d2d" data-original="#699b5d" style="" class=""/><path d="m59.743 35.273a5.972 5.972 0 0 0 -7.128-4.106 6 6 0 0 0 -9.23 0 5.974 5.974 0 0 0 -7.13 4.108c-2.033 1.025-3.255 2.316-3.255 3.725 0 3.314 6.716 6 15 6s15-2.686 15-6c0-1.409-1.223-2.7-3.257-3.727z" fill="#181d2d" data-original="#85b27c" style="" class=""/><path d="m51 42c-8.284 0-15-2.686-15-6a2.46 2.46 0 0 1 .094-.637c-1.932 1.009-3.094 2.267-3.094 3.637 0 3.314 6.716 6 15 6 7.748 0 14.121-2.35 14.914-5.365-2.74 1.435-7.05 2.365-11.914 2.365z" fill="#181d2d" data-original="#699b5d" style="" class=""/></g></g></svg>
