<?xml version="1.0"?>
<svg xmlns="http://www.w3.org/2000/svg" xmlns:xlink="http://www.w3.org/1999/xlink" xmlns:svgjs="http://svgjs.com/svgjs" version="1.1" width="512" height="512" x="0" y="0" viewBox="0 0 509.49 509.49" style="enable-background:new 0 0 512 512" xml:space="preserve" class=""><g>
<path xmlns="http://www.w3.org/2000/svg" style="" d="M381.49,148.045c-6.4,0-14.9,0-21.3,2.1v-2.1c0-70.4-57.6-128-128-128s-128,57.6-128,128  c0,2.1,0,4.3,0,6.4c-66.2,23.5-102.4,98.2-79,164.3c17.1,51.2,66.1,85.3,121.6,85.3h234.7c70.4,0,128-57.6,128-128  S451.89,148.045,381.49,148.045z" fill="#d5d5d5" data-original="#ccf2fe" class=""/>
<path xmlns="http://www.w3.org/2000/svg" style="" d="M402.79,361.445h-234.6c-44.8,0-85.3-27.7-100.3-70.4c-10.7-27.7-8.5-57.6,4.3-83.2  s34.1-44.8,59.7-53.3l17.1-6.4c0,0-2.1-19.2-2.1-21.3c0-55.5,44.8-102.4,98.1-106.7c-4.3,0-8.5,0-12.8,0c-70.4,0-128,57.6-128,128  c0,2.1,0,4.3,0,6.4c-66.2,23.4-102.4,98.1-79,164.2c17.1,51.2,66.1,85.3,121.6,85.3h234.7c70.4,0,128-57.6,128-128  c0-4.3,0-8.5,0-12.8C505.19,316.645,458.29,361.445,402.79,361.445z" fill="#c7c7c7" data-original="#b3ecfd" class=""/>
<linearGradient xmlns="http://www.w3.org/2000/svg" id="SVGID_1_" gradientUnits="userSpaceOnUse" x1="84.6748" y1="0.2175" x2="342.1708" y2="257.7135" gradientTransform="matrix(1 0 0 -1 0 511.4896)"><stop stop-opacity="1" stop-color="#5d5d5d" offset="0"/><stop stop-opacity="1" stop-color="#d7d3d3" offset="1"/></linearGradient>
<path xmlns="http://www.w3.org/2000/svg" style="fill:url(#SVGID_1_);" d="M319.59,276.045c-8.5,0-14.9,0-23.5,2.1c-10.7-57.6-66.1-96-123.7-85.3  c-44.8,8.5-78.9,42.7-85.3,85.3c-57.6,10.7-96,66.2-85.3,123.8c10.7,51.2,53.3,87.5,104.5,87.5h213.3c59.7,0,106.7-46.9,106.7-106.7  S379.39,276.045,319.59,276.045z" fill=""/>
<g xmlns="http://www.w3.org/2000/svg">
</g>
<g xmlns="http://www.w3.org/2000/svg">
</g>
<g xmlns="http://www.w3.org/2000/svg">
</g>
<g xmlns="http://www.w3.org/2000/svg">
</g>
<g xmlns="http://www.w3.org/2000/svg">
</g>
<g xmlns="http://www.w3.org/2000/svg">
</g>
<g xmlns="http://www.w3.org/2000/svg">
</g>
<g xmlns="http://www.w3.org/2000/svg">
</g>
<g xmlns="http://www.w3.org/2000/svg">
</g>
<g xmlns="http://www.w3.org/2000/svg">
</g>
<g xmlns="http://www.w3.org/2000/svg">
</g>
<g xmlns="http://www.w3.org/2000/svg">
</g>
<g xmlns="http://www.w3.org/2000/svg">
</g>
<g xmlns="http://www.w3.org/2000/svg">
</g>
<g xmlns="http://www.w3.org/2000/svg">
</g>
</g></svg>
