<svg id="Layer_1" enable-background="new 0 0 64 64" height="512" viewBox="0 0 64 64" width="512" xmlns="http://www.w3.org/2000/svg"><g><path d="m63.603 30.804c-.572-.768-14.23-18.804-31.603-18.804s-31.03 18.036-31.602 18.804c-.53.71-.53 1.683 0 2.393.572.767 14.229 18.803 31.602 18.803s31.03-18.036 31.602-18.804c.531-.709.531-1.682.001-2.392zm-15.603 1.196c0 8.822-7.178 16-16 16s-16-7.178-16-16 7.178-16 16-16c8.823 0 16 7.178 16 16zm-43.43 0c1.59-1.893 5.05-5.713 9.665-9.147-1.419 2.745-2.235 5.85-2.235 9.147s.815 6.402 2.234 9.146c-4.615-3.433-8.075-7.253-9.664-9.146zm45.196 9.147c1.419-2.745 2.234-5.85 2.234-9.147s-.815-6.402-2.234-9.147c4.615 3.434 8.075 7.253 9.665 9.147-1.59 1.893-5.05 5.713-9.665 9.147z"/><path d="m32 40c4.411 0 8-3.589 8-8s-3.589-8-8-8-8 3.589-8 8 3.589 8 8 8zm0-12c2.206 0 4 1.794 4 4s-1.794 4-4 4-4-1.794-4-4 1.794-4 4-4z"/></g></svg>