<?xml version="1.0" encoding="UTF-8" standalone="no"?>
<svg
   xmlns:dc="http://purl.org/dc/elements/1.1/"
   xmlns:cc="http://creativecommons.org/ns#"
   xmlns:rdf="http://www.w3.org/1999/02/22-rdf-syntax-ns#"
   xmlns:svg="http://www.w3.org/2000/svg"
   xmlns="http://www.w3.org/2000/svg"
   xmlns:sodipodi="http://sodipodi.sourceforge.net/DTD/sodipodi-0.dtd"
   xmlns:inkscape="http://www.inkscape.org/namespaces/inkscape"
   version="1.1"
   width="512"
   height="512"
   x="0"
   y="0"
   viewBox="0 0 511.999 511"
   style="enable-background:new 0 0 512 512"
   xml:space="preserve"
   class=""
   id="svg342"
   sodipodi:docname="fishing-boat.svg"
   inkscape:version="1.0.2 (e86c8708, 2021-01-15)"><metadata
     id="metadata348"><rdf:RDF><cc:Work
         rdf:about=""><dc:format>image/svg+xml</dc:format><dc:type
           rdf:resource="http://purl.org/dc/dcmitype/StillImage" /><dc:title /></cc:Work></rdf:RDF></metadata><defs
     id="defs346"><clipPath
       clipPathUnits="userSpaceOnUse"
       id="clipPath478"><path
         id="path480"
         style="fill:#ff0000;fill-opacity:1;fill-rule:nonzero;stroke:none;stroke-width:0.999998"
         d="m 420.02262,309.55067 v 7.61913 c 7.55345,-0.12299 15.10691,-0.24632 22.66011,-0.36914 0.68948,-0.0112 0.69927,0.68607 0.01,0.69727 l -3.25,0.0527 h 22.07222 v -7.99999 z" /></clipPath><clipPath
       clipPathUnits="userSpaceOnUse"
       id="clipPath2713"><path
         id="path2715"
         style="fill:#ff0000;fill-opacity:1;fill-rule:nonzero;stroke:none;stroke-width:0.999998"
         d="m 42.597573,229.74614 v 87.04671 h 6.83983 c -0.0033,-0.10753 0.101995,-0.25146 0.251953,-0.4082 -1.525652,0.0683 -2.420824,0.0355 -1.339841,-0.33008 0.694031,-0.23473 1.397611,-0.43639 2.105464,-0.61914 -0.348009,-0.22772 -0.646744,-0.44236 -0.839842,-0.62891 -0.421782,-0.003 -0.843838,-0.0119 -1.265622,-0.0117 -0.494374,1.5e-4 1.129267,10e-4 1.249997,-0.002 -0.268839,-0.26502 -0.322395,-0.47294 0.07813,-0.56054 1.752778,-0.38365 3.314402,-0.64346 4.771476,-0.83203 0.163064,-0.37903 0.360287,-0.71662 0.589842,-1.01562 -0.30783,-0.4248 -0.547612,-0.92251 -0.705077,-1.50586 -0.500871,-1.85652 0.513275,-2.55108 2.332027,-2.63085 0.808034,-0.0354 1.806563,0.075 2.869135,0.23437 0.123429,-0.21231 0.407331,-0.38086 0.861326,-0.38086 0.661831,0 1.324412,-0.003 1.986324,-0.004 -0.500193,-0.18158 -0.599575,-0.63334 -0.318358,-0.92188 -0.0054,-0.24415 0.216103,-0.50115 0.697264,-0.54492 0.634313,-0.0577 1.268313,-0.1144 1.90234,-0.17188 0.06073,-0.0972 0.155452,-0.18573 0.302734,-0.24804 -1.1686,0 -2.337142,-1e-5 -3.505852,0 -1.068301,10e-6 -1.214714,-0.91833 -0.453125,-1.1836 -0.02734,7.3e-4 -0.05469,-10e-4 -0.08203,0.002 -1.019968,0.027 -1.213068,-0.80217 -0.572264,-1.12499 -0.70081,0.004 -1.591903,0.004 -2.187496,0.01 -2.641485,0.0252 -4.255724,0.29887 -5.166006,0.44726 -0.0183,0.004 -0.03623,0.01 -0.05469,0.008 -0.909143,0.14797 -1.017545,0.12359 -0.285156,-0.46874 -0.472003,-0.93859 -0.581884,-1.16731 0.0625,-1.10547 0.09561,0.009 0.357374,0.048 0.486327,0.0664 -0.02449,-0.32639 0.280506,-0.66602 0.927733,-0.66602 h 4.212882 2.12109 c -0.150595,-0.13387 -0.211611,-0.30662 -0.185547,-0.47265 -0.206865,-0.1475 -0.155296,-0.34359 0.0098,-0.35352 0.04384,-0.003 0.100031,0.0221 0.15625,0.0508 0.148717,-0.14176 0.392257,-0.24239 0.736326,-0.24609 -0.72376,-0.258 -0.600479,-1.14577 0.447266,-1.1836 0.755898,-0.0273 1.511671,-0.0462 2.267573,-0.0723 -0.279445,-0.32516 -0.09353,-0.87646 0.685546,-1.02148 1.222641,-0.22829 2.450212,-0.45391 3.683586,-0.61132 0.01072,-0.0242 0.03167,-0.045 0.05273,-0.0664 -0.382962,-0.002 -0.765729,0.007 -1.148436,0.004 -0.356943,-0.003 -0.356666,-0.36238 0.002,-0.35938 0.283725,0.002 0.567693,-0.002 0.851561,-0.004 -0.06623,-0.15125 0.08454,-0.29715 0.318359,-0.17188 0.01323,0.007 0.02773,0.0106 0.04102,0.0176 -0.09421,-0.0863 -0.05938,-0.22238 0.09766,-0.26953 -4.67e-4,-0.0408 0.0065,-0.0922 -0.0078,-0.11133 -0.02613,0.0335 -0.0838,0.0196 -0.144531,0 -0.160743,0.0526 -0.387377,0.20722 -0.521483,0.21875 -0.0049,0.0334 -0.01289,0.0311 -0.02148,0.004 -0.0304,-10e-4 -0.05361,-0.0144 -0.06641,-0.043 -0.0254,-0.0568 -0.01478,-0.11703 0.0039,-0.17969 -0.01892,-0.0627 -0.02934,-0.12285 -0.0039,-0.17969 0.01302,-0.0292 0.03506,-0.0419 0.06641,-0.043 0.0024,-0.008 0.0057,-0.0271 0.0078,-0.0293 0.0055,-0.006 0.01009,0.0104 0.01367,0.0351 0.134622,0.0125 0.361299,0.16499 0.521483,0.2168 0.06149,-0.0201 0.118516,-0.0347 0.144531,0 0.02385,-0.0306 0.03539,-0.081 0.01367,-0.18164 0.127022,-1.6e-4 0.253903,5e-5 0.380858,0 -0.04011,-0.0478 -0.04403,-0.10546 -0.01953,-0.15625 h -1.249998 c -0.810717,-0.008 -1.623061,-0.005 -2.433589,-0.0234 -0.17006,-0.004 -0.338051,-0.0341 -0.507812,-0.0449 -0.295739,-0.0188 -0.592437,-0.0369 -0.88867,-0.0449 -0.188675,-0.005 -0.377625,8.1e-4 -0.566405,0 -0.05437,0.0665 -0.18314,0.17854 -0.494139,0.39062 -0.310806,0.21194 -0.645938,0.39604 -1.001952,0.51758 -0.3231,0.11028 -0.672999,0.11187 -1.009764,0.16797 l -2.525386,0.42187 c -0.986528,0.16442 -1.154494,-0.83166 -0.167968,-0.99609 0.84191,-0.14031 1.685431,-0.28153 2.527339,-0.42188 0.194024,-0.0323 0.390837,-0.0527 0.585937,-0.0801 -0.12238,-6.8e-4 -0.244849,0.002 -0.367188,0 -0.07938,-0.002 -0.14338,-0.0158 -0.199217,-0.0371 -0.02017,-0.006 -0.03649,-0.0152 -0.05078,-0.0274 -0.206588,-0.11501 -0.193985,-0.35341 0.04102,-0.4414 0.02062,-0.0633 0.04493,-0.13371 0.05859,-0.17774 h -0.576171 c -1.000136,0 -1.000136,-1.01172 0,-1.01172 h 1.234372 c 0.004,-0.004 0.01149,-0.007 0.01563,-0.0117 -0.891159,-0.0699 -0.865249,-0.99805 0.09766,-0.99805 h 10.470683 c 0.364827,0 0.731072,-0.012 1.095701,0 0.09858,-0.006 0.196772,-2.2e-4 0.294921,0 0.104002,2.3e-4 0.208875,-0.004 0.312499,0.002 1.123575,0.0203 2.243092,-0.10695 3.363275,-0.16797 0.899428,-0.049 1.784947,-0.0488 2.683589,-0.0234 1.597536,0.0606 3.198333,0.0235 4.796865,0.0195 0.224934,0 0.449136,-0.0104 0.673827,0 0.686161,-0.0253 1.358003,0.13891 2.039059,0.17383 1.714143,0.088 3.443935,0.0337 5.158193,0.0176 2.318794,-0.0301 1.587899,-0.0253 4.513663,-0.0312 0.223035,-4.8e-4 0.27386,-10e-4 0.453124,0 0.174896,-0.01 0.338253,-0.0175 0.511718,-0.0273 1.3661,-0.23935 2.729644,-0.50252 4.091784,-0.7539 0.12293,-0.0227 0.23482,-0.0277 0.33204,-0.0176 0.35896,0.0375 0.532,0.27301 0.49414,0.50976 0.29853,-0.0159 0.64984,-0.0343 0.92578,-0.0488 v -64.0741 z m 60.988167,65.08581 c -0.39792,0.021 -0.87885,0.0462 -1.33008,0.0703 0.0336,0.0151 0.0784,0.0208 0.10742,0.0391 0.40764,-0.0138 0.81517,-0.0319 1.22266,-0.0508 z m -2.43946,0.12891 c -0.0276,10e-4 -0.0424,0.002 -0.0703,0.004 0.0156,-3e-5 0.0313,6e-5 0.0469,0 0.008,-10e-4 0.0156,-0.002 0.0234,-0.004 z m 2.43946,0.9414 c -0.64235,0.0293 -1.28455,0.0635 -1.92774,0.0762 -0.15095,0.003 -0.30215,-0.005 -0.45312,-0.004 -0.83583,0.14954 -1.659183,0.29293 -2.523432,0.38281 -0.191256,0.0195 -0.383866,-0.003 -0.576171,-0.006 0.0071,0.0779 -0.02585,0.17563 -0.05859,0.27344 0.03091,0.31986 -0.0501,0.16051 -0.880858,0.16016 -0.128275,-4e-5 -0.256504,5e-5 -0.384765,0 -0.01133,0.0428 -0.0419,0.0818 -0.103516,0.10546 0.371317,0.0758 0.587831,0.27393 0.624999,0.50196 0.721152,-0.0743 1.44244,-0.14399 2.162106,-0.23242 0.908267,-0.11163 1.216767,0.53029 0.832037,0.9414 h 3.28905 z m -23.130819,1.33399 c 0.0018,0.002 0.0022,0.004 0.0039,0.006 0.0027,-0.001 0.0051,-0.003 0.0078,-0.004 -0.0033,-7e-4 -0.0065,0 -0.0098,-0.002 z m -4.51171,0.47656 c -0.01309,0.001 -0.02592,0.005 -0.03906,0.006 0.0098,-5.2e-4 0.01952,2e-4 0.0293,-0.002 0.0034,-0.001 0.0062,-0.003 0.0098,-0.004 z m 21.873004,1.64452 c 0.0988,0.12247 0.135855,0.26122 0.111328,0.40039 0.66382,0.0699 1.326399,0.16258 1.990231,0.23633 1.239666,0.13774 1.100986,1.38969 -0.138672,1.25195 -0.01956,-0.002 -0.03904,-0.006 -0.05859,-0.008 -0.139253,0.18517 -0.402835,0.32813 -0.816404,0.32813 h 4.681632 v -2.20508 h -5.705068 c -0.02131,0 -0.04312,-0.004 -0.06445,-0.004 z m -30.388613,0.33203 c -0.322345,0.0493 -0.645227,0.092 -0.966794,0.14844 0.34111,-0.0109 0.682269,-0.02 1.023435,-0.0293 -0.02046,-0.0391 -0.04752,-0.0768 -0.05664,-0.11914 z m -0.79492,1.40039 c -1.119803,0.0357 -2.239543,0.0682 -3.359368,0.10743 1.133781,0.0104 2.266972,0.0468 3.400384,0.0723 -0.01758,-0.0606 -0.02689,-0.11981 -0.04102,-0.17969 z m 35.412038,1.73633 c 0,0.31494 -0.31197,0.62891 -0.93554,0.62891 h 0.31445 c 1.24718,0 1.24718,1.25975 0,1.25975 h -2.031246 c 0.867666,0.14541 1.734436,0.30198 2.599606,0.48047 1.22153,0.25198 1.028,1.4966 -0.19336,1.24414 -0.45957,-0.095 -0.92054,-0.17634 -1.38086,-0.26172 -0.10643,0.23443 -0.39733,0.42774 -0.884761,0.42774 h -2.818354 c 0.155368,0.19325 0.155781,0.43986 0.0098,0.63281 1.671296,-10e-4 3.342565,-0.01 5.013665,-0.004 0.4757,0.003 0.76803,0.18819 0.88085,0.41601 0.32225,10e-4 0.64452,0.002 0.9668,0.004 v -4.82812 z m -37.14055,2.09765 c -0.335934,0.009 -0.671878,0.0186 -1.007811,0.0273 h 1.070311 c -0.02085,-0.009 -0.04319,-0.0178 -0.0625,-0.0273 z m 1.509762,2.0664 c -0.03977,0.005 -0.07937,0.0122 -0.119139,0.0176 -8.24e-4,0.002 8.54e-4,0.004 0,0.006 0.01819,4.9e-4 0.0423,8.5e-4 0.06055,0.002 0.01951,-0.009 0.03897,-0.0172 0.05859,-0.0254 z m 35.939388,1.35547 c -0.15248,0.0891 -0.34965,0.1521 -0.61524,0.15039 -0.43617,-0.003 -0.87241,0.002 -1.30859,0 0.1185,0.34999 -0.16427,0.76917 -0.880856,0.7871 -2.110178,0.0527 -3.342969,0.0558 -4.476554,0.084 -0.126047,0.0575 -0.29203,0.0771 -0.482421,0.0703 0.196275,0.10833 0.321802,0.25623 0.347656,0.41992 2.696986,0.20548 5.395045,0.39477 8.097645,0.5293 0.23525,0.0117 0.40867,0.0742 0.55078,0.1543 v -2.1914 c -0.4108,-0.002 -0.82163,-0.003 -1.23242,-0.004 z m -19.667934,5.43554 c -0.424298,-4.5e-4 -0.783944,0.0159 -1.177733,0.0234 -0.0938,0.0756 -0.226049,0.12742 -0.378905,0.16211 -0.0037,0.004 -0.008,0.007 -0.01172,0.0117 -0.05323,0.0625 -0.07451,0.13973 -0.08789,0.2207 0.598838,-0.0669 1.197521,-0.13284 1.792965,-0.1836 0.01623,-0.0502 0.0434,-0.0958 0.09961,-0.1289 0.0031,-0.002 0.0067,-0.002 0.0098,-0.004 -0.04692,-0.0654 -0.12588,-0.10143 -0.246093,-0.10156 z m 10.162089,0.47852 c -0.758388,0.005 -1.516887,0.0138 -2.275386,0.0215 -0.03224,0.20099 -0.351863,0.52788 -0.708984,0.86913 0.532097,0.0886 0.908557,0.16543 0.558593,0.19531 -0.114491,0.01 -0.240342,0.0184 -0.36328,0.0273 0.193934,0.09 0.386618,0.18053 0.580077,0.26757 0.430786,0.0128 0.79703,0.0262 1.230467,0.0391 1.749216,-0.46214 3.398703,-0.66436 4.68749,0.13086 0.409851,-0.37021 0.791316,-0.86756 1.134763,-1.5332 0.08526,-0.003 0.170512,-0.0105 0.25586,-0.0137 -1.699485,-0.0189 -3.399247,-0.01 -5.0996,-0.004 z m 3.708977,1.55077 c -0.0076,0.007 -0.01579,0.0108 -0.02344,0.0176 0.01559,10e-4 0.03132,-4.8e-4 0.04687,0 -0.0081,-0.005 -0.01534,-0.0126 -0.02344,-0.0176 z m -28.986272,0.49218 c -0.42751,0.16469 -0.868456,0.33532 -1.289059,0.49024 h 1.156247 c -0.0075,-0.16972 0.07743,-0.34287 0.257812,-0.48633 -0.04167,-10e-4 -0.08333,-0.003 -0.125,-0.004 z m 4.921866,0.19532 c -0.490286,0.0982 -0.980421,0.19677 -1.470701,0.29492 h 0.52539 c 0.737998,-0.0939 1.462318,-0.15769 2.193355,-0.23242 -0.415873,-0.0224 -0.832104,-0.0401 -1.248044,-0.0625 z" /></clipPath><clipPath
       clipPathUnits="userSpaceOnUse"
       id="clipPath2723"><path
         id="path2725"
         style="fill:#ff0000;fill-opacity:1;fill-rule:nonzero;stroke:none;stroke-width:0.999998"
         d="m 42.597573,229.74614 v 87.04671 h 6.83983 c -0.0033,-0.10753 0.101995,-0.25146 0.251953,-0.4082 -1.525652,0.0683 -2.420824,0.0355 -1.339841,-0.33008 0.694031,-0.23473 1.397611,-0.43639 2.105464,-0.61914 -0.348009,-0.22772 -0.646744,-0.44236 -0.839842,-0.62891 -0.421782,-0.003 -0.843838,-0.0119 -1.265622,-0.0117 -0.494374,1.5e-4 1.129267,10e-4 1.249997,-0.002 -0.268839,-0.26502 -0.322395,-0.47294 0.07813,-0.56054 1.752778,-0.38365 3.314402,-0.64346 4.771476,-0.83203 0.163064,-0.37903 0.360287,-0.71662 0.589842,-1.01562 -0.30783,-0.4248 -0.547612,-0.92251 -0.705077,-1.50586 -0.500871,-1.85652 0.513275,-2.55108 2.332027,-2.63085 0.808034,-0.0354 1.806563,0.075 2.869135,0.23437 0.123429,-0.21231 0.407331,-0.38086 0.861326,-0.38086 0.661831,0 1.324412,-0.003 1.986324,-0.004 -0.500193,-0.18158 -0.599575,-0.63334 -0.318358,-0.92188 -0.0054,-0.24415 0.216103,-0.50115 0.697264,-0.54492 0.634313,-0.0577 1.268313,-0.1144 1.90234,-0.17188 0.06073,-0.0972 0.155452,-0.18573 0.302734,-0.24804 -1.1686,0 -2.337142,-1e-5 -3.505852,0 -1.068301,10e-6 -1.214714,-0.91833 -0.453125,-1.1836 -0.02734,7.3e-4 -0.05469,-10e-4 -0.08203,0.002 -1.019968,0.027 -1.213068,-0.80217 -0.572264,-1.12499 -0.70081,0.004 -1.591903,0.004 -2.187496,0.01 -2.641485,0.0252 -4.255724,0.29887 -5.166006,0.44726 -0.0183,0.004 -0.03623,0.01 -0.05469,0.008 -0.909143,0.14797 -1.017545,0.12359 -0.285156,-0.46874 -0.472003,-0.93859 -0.581884,-1.16731 0.0625,-1.10547 0.09561,0.009 0.357374,0.048 0.486327,0.0664 -0.02449,-0.32639 0.280506,-0.66602 0.927733,-0.66602 h 4.212882 2.12109 c -0.150595,-0.13387 -0.211611,-0.30662 -0.185547,-0.47265 -0.206865,-0.1475 -0.155296,-0.34359 0.0098,-0.35352 0.04384,-0.003 0.100031,0.0221 0.15625,0.0508 0.148717,-0.14176 0.392257,-0.24239 0.736326,-0.24609 -0.72376,-0.258 -0.600479,-1.14577 0.447266,-1.1836 0.755898,-0.0273 1.511671,-0.0462 2.267573,-0.0723 -0.279445,-0.32516 -0.09353,-0.87646 0.685546,-1.02148 1.222641,-0.22829 2.450212,-0.45391 3.683586,-0.61132 0.01072,-0.0242 0.03167,-0.045 0.05273,-0.0664 -0.382962,-0.002 -0.765729,0.007 -1.148436,0.004 -0.356943,-0.003 -0.356666,-0.36238 0.002,-0.35938 0.283725,0.002 0.567693,-0.002 0.851561,-0.004 -0.06623,-0.15125 0.08454,-0.29715 0.318359,-0.17188 0.01323,0.007 0.02773,0.0106 0.04102,0.0176 -0.09421,-0.0863 -0.05938,-0.22238 0.09766,-0.26953 -4.67e-4,-0.0408 0.0065,-0.0922 -0.0078,-0.11133 -0.02613,0.0335 -0.0838,0.0196 -0.144531,0 -0.160743,0.0526 -0.387377,0.20722 -0.521483,0.21875 -0.0049,0.0334 -0.01289,0.0311 -0.02148,0.004 -0.0304,-10e-4 -0.05361,-0.0144 -0.06641,-0.043 -0.0254,-0.0568 -0.01478,-0.11703 0.0039,-0.17969 -0.01892,-0.0627 -0.02934,-0.12285 -0.0039,-0.17969 0.01302,-0.0292 0.03506,-0.0419 0.06641,-0.043 0.0024,-0.008 0.0057,-0.0271 0.0078,-0.0293 0.0055,-0.006 0.01009,0.0104 0.01367,0.0351 0.134622,0.0125 0.361299,0.16499 0.521483,0.2168 0.06149,-0.0201 0.118516,-0.0347 0.144531,0 0.02385,-0.0306 0.03539,-0.081 0.01367,-0.18164 0.127022,-1.6e-4 0.253903,5e-5 0.380858,0 -0.04011,-0.0478 -0.04403,-0.10546 -0.01953,-0.15625 h -1.249998 c -0.810717,-0.008 -1.623061,-0.005 -2.433589,-0.0234 -0.17006,-0.004 -0.338051,-0.0341 -0.507812,-0.0449 -0.295739,-0.0188 -0.592437,-0.0369 -0.88867,-0.0449 -0.188675,-0.005 -0.377625,8.1e-4 -0.566405,0 -0.05437,0.0665 -0.18314,0.17854 -0.494139,0.39062 -0.310806,0.21194 -0.645938,0.39604 -1.001952,0.51758 -0.3231,0.11028 -0.672999,0.11187 -1.009764,0.16797 l -2.525386,0.42187 c -0.986528,0.16442 -1.154494,-0.83166 -0.167968,-0.99609 0.84191,-0.14031 1.685431,-0.28153 2.527339,-0.42188 0.194024,-0.0323 0.390837,-0.0527 0.585937,-0.0801 -0.12238,-6.8e-4 -0.244849,0.002 -0.367188,0 -0.07938,-0.002 -0.14338,-0.0158 -0.199217,-0.0371 -0.02017,-0.006 -0.03649,-0.0152 -0.05078,-0.0274 -0.206588,-0.11501 -0.193985,-0.35341 0.04102,-0.4414 0.02062,-0.0633 0.04493,-0.13371 0.05859,-0.17774 h -0.576171 c -1.000136,0 -1.000136,-1.01172 0,-1.01172 h 1.234372 c 0.004,-0.004 0.01149,-0.007 0.01563,-0.0117 -0.891159,-0.0699 -0.865249,-0.99805 0.09766,-0.99805 h 10.470683 c 0.364827,0 0.731072,-0.012 1.095701,0 0.09858,-0.006 0.196772,-2.2e-4 0.294921,0 0.104002,2.3e-4 0.208875,-0.004 0.312499,0.002 1.123575,0.0203 2.243092,-0.10695 3.363275,-0.16797 0.899428,-0.049 1.784947,-0.0488 2.683589,-0.0234 1.597536,0.0606 3.198333,0.0235 4.796865,0.0195 0.224934,0 0.449136,-0.0104 0.673827,0 0.686161,-0.0253 1.358003,0.13891 2.039059,0.17383 0.63112,0.0324 1.264626,0.0323 1.898433,0.0351 v -64.46081 z m 37.857348,67.49011 c 0.0018,0.002 0.0022,0.004 0.0039,0.006 0.0027,-0.001 0.0051,-0.003 0.0078,-0.004 -0.0033,-7e-4 -0.0065,0 -0.0098,-0.002 z m -4.51171,0.47656 c -0.01309,0.001 -0.02592,0.005 -0.03906,0.006 0.0098,-5.2e-4 0.01952,2e-4 0.0293,-0.002 0.0034,-0.001 0.0062,-0.003 0.0098,-0.004 z m -8.515609,1.97655 c -0.322345,0.0493 -0.645227,0.092 -0.966794,0.14844 0.34111,-0.0109 0.682269,-0.02 1.023435,-0.0293 -0.02046,-0.0391 -0.04752,-0.0768 -0.05664,-0.11914 z m -0.79492,1.4043 c -1.115843,0.0335 -2.231603,0.0645 -3.34765,0.10352 1.129873,0.0104 2.259147,0.0473 3.388666,0.0723 -0.0172,-0.0593 -0.0271,-0.11719 -0.04102,-0.17578 z m -1.728512,3.83007 c -0.335934,0.009 -0.671878,0.0186 -1.007811,0.0273 h 1.070311 c -0.02085,-0.009 -0.04319,-0.0178 -0.0625,-0.0273 z m 1.509762,2.0664 c -0.03977,0.005 -0.07937,0.0122 -0.119139,0.0176 -8.24e-4,0.002 8.54e-4,0.004 0,0.006 0.01819,4.9e-4 0.0423,8.5e-4 0.06055,0.002 0.01951,-0.009 0.03897,-0.0172 0.05859,-0.0254 z m 16.271454,6.79101 c -0.424298,-4.5e-4 -0.783944,0.0159 -1.177733,0.0234 -0.0938,0.0756 -0.226049,0.12742 -0.378905,0.16211 -0.0037,0.004 -0.008,0.007 -0.01172,0.0117 -0.05323,0.0625 -0.07451,0.13973 -0.08789,0.2207 0.598838,-0.0669 1.197521,-0.13284 1.792965,-0.1836 0.01623,-0.0502 0.0434,-0.0958 0.09961,-0.1289 0.0031,-0.002 0.0067,-0.002 0.0098,-0.004 -0.04692,-0.0654 -0.12588,-0.10143 -0.246093,-0.10156 z m -15.115206,2.52147 c -0.42751,0.16469 -0.868456,0.33532 -1.289059,0.49024 h 1.156247 c -0.0075,-0.16972 0.07743,-0.34287 0.257812,-0.48633 -0.04167,-10e-4 -0.08333,-0.003 -0.125,-0.004 z m 4.921866,0.19532 c -0.490286,0.0982 -0.980421,0.19677 -1.470701,0.29492 h 0.52539 c 0.737998,-0.0939 1.462318,-0.15769 2.193355,-0.23242 -0.415873,-0.0224 -0.832104,-0.0401 -1.248044,-0.0625 z" /></clipPath><clipPath
       clipPathUnits="userSpaceOnUse"
       id="clipPath2733"><path
         id="path2735"
         style="fill:#ff0000;fill-opacity:1;fill-rule:nonzero;stroke:none;stroke-width:0.999998"
         d="M 0,128.45728 V 296.7968 h 60.480351 c -0.18214,-0.11848 -0.157008,-0.33775 0.0625,-0.42383 0.02161,-0.0662 0.04643,-0.13811 0.06055,-0.1836 H 60.02723 c -1.000136,0 -1.000136,-1.01172 0,-1.01172 h 1.234372 c 0.004,-0.004 0.01149,-0.007 0.01563,-0.0117 -0.891159,-0.0699 -0.865237,-0.99805 0.09766,-0.99805 h 10.470683 c 0.364827,0 0.731072,-0.012 1.095701,0 0.101847,-0.006 0.203299,-4.1e-4 0.304687,0 0.108607,4.4e-4 0.217969,-0.004 0.326171,0.002 1.115699,0.0181 2.227446,-0.10737 3.339837,-0.16797 0.899428,-0.049 1.784947,-0.0488 2.683589,-0.0234 1.597536,0.0606 3.198333,0.0235 4.796865,0.0195 0.224934,0 0.449136,-0.0104 0.673827,0 0.686161,-0.0253 1.358003,0.13891 2.039059,0.17383 1.714143,0.088 3.443935,0.0337 5.158193,0.0176 2.318794,-0.0301 1.587899,-0.0253 4.513663,-0.0312 0.223035,-4.8e-4 0.27386,-10e-4 0.453124,0 0.174896,-0.01 0.338253,-0.0175 0.511718,-0.0273 1.366103,-0.23938 2.729661,-0.50252 4.091781,-0.7539 0.12295,-0.0227 0.23482,-0.0277 0.33204,-0.0176 0.35918,0.0375 0.53226,0.27288 0.49414,0.50976 2.02673,-0.10783 3.7454,-0.19995 6.28514,-0.33008 0.99883,-0.0512 1.0496,0.95856 0.0508,1.00976 -2.72351,0.13954 -4.45367,0.23113 -6.74022,0.35351 0.0342,0.0152 0.0799,0.0203 0.10937,0.0391 0.91558,-0.0311 1.83066,-0.0749 2.7461,-0.11133 0.73197,-0.0489 1.46331,-0.0976 2.1953,-0.14649 0.99789,-0.0666 1.06612,0.94132 0.0684,1.00782 -0.74105,0.0494 -1.48356,0.099 -2.2246,0.14843 -1.16449,0.046 -2.32697,0.11578 -3.49219,0.13868 -0.15095,0.003 -0.30215,-0.005 -0.45312,-0.004 -0.83581,0.14954 -1.659181,0.29293 -2.52343,0.38281 -0.191256,0.0195 -0.383866,-0.003 -0.576171,-0.006 0.0071,0.0779 -0.02585,0.17563 -0.05859,0.27344 0.01007,0.10421 -0.0053,0.14725 -0.04102,0.17188 H 512.00095 V 128.45728 Z m 101.14628,166.50358 c -0.0276,10e-4 -0.0424,0.002 -0.0703,0.004 0.0156,-3e-5 0.0313,6e-5 0.0469,0 0.008,-10e-4 0.0156,-0.002 0.0234,-0.004 z m -4.363266,1.82422 c -0.0011,0.004 0.0035,0.008 0.002,0.0117 h 0.609374 c -0.09287,-0.005 -0.10422,-0.0117 -0.228515,-0.0117 -0.12762,-4e-5 -0.255202,5e-5 -0.382812,0 z" /></clipPath></defs><sodipodi:namedview
     pagecolor="#ffffff"
     bordercolor="#666666"
     borderopacity="1"
     objecttolerance="10"
     gridtolerance="10"
     guidetolerance="10"
     inkscape:pageopacity="0"
     inkscape:pageshadow="2"
     inkscape:window-width="1792"
     inkscape:window-height="1120"
     id="namedview344"
     showgrid="false"
     inkscape:zoom="2.9675026"
     inkscape:cx="180.07894"
     inkscape:cy="222.6565"
     inkscape:window-x="0"
     inkscape:window-y="0"
     inkscape:window-maximized="0"
     inkscape:current-layer="svg342"
     inkscape:document-rotation="0" /><g
     id="g340"><path
       d="m134.796875 229.746094h-109.1875c-7.074219-7.074219-11.039063-11.035156-18.109375-18.109375v-57.570313c7.070312-7.074218 11.035156-11.039062 18.109375-18.109375h91.082031c7.070313 7.070313 11.035156 11.035157 18.105469 18.109375zm0 0"
       fill="#181d2d"
       data-original="#e0e0e2"
       style=""
       id="path274" /><path
       d="m7.375 162.71875h127.296875v41.203125h-127.296875zm0 0"
       fill="#181d2d"
       data-original="#ff7956"
       style=""
       class=""
       id="path276" /><path
       d="m241.160156 97.410156v46.984375h-43.988281c-7.863281-7.863281-12.269531-12.273437-20.132813-20.132812v-26.851563c0-17.707031 14.355469-32.0625 32.0625-32.0625 17.703126 0 32.058594 14.355469 32.058594 32.0625zm0 0"
       fill="#181d2d"
       data-original="#ffdaaa"
       style=""
       class=""
       id="path278" /><path
       d="m204.636719 179.792969v-27.332031c-3.148438-3.148438-4.917969-4.917969-8.070313-8.066407h-10.359375c-3.476562 3.476563-5.425781 5.425781-8.902343 8.902344v53.828125h83.300781c3.9375-3.941406 6.148437-6.148438 10.085937-10.089844v-17.246094h-66.054687zm0 0"
       fill="#181d2d"
       data-original="#57a4ff"
       style=""
       class=""
       id="path280" /><path
       d="m177.304688 229.746094v-22.621094h63.855468v22.621094zm27.332031-77.285156v27.332031h36.523437v-26.46875c-3.488281-3.488281-5.441406-5.445313-8.929687-8.929688h-35.664063c3.152344 3.148438 4.921875 4.917969 8.070313 8.066407zm0 0"
       fill="#181d2d"
       data-original="#57a4ff"
       style=""
       class=""
       id="path282" /><path
       d="m241.160156 179.792969h23.785156l154.296876-154.296875-14.394532-14.390625-163.6875 163.6875zm0 0"
       fill="#181d2d"
       data-original="#ff9811"
       style=""
       class=""
       id="path284" /><g
       fill="#acabb1"
       id="g300" /><path
       d="m476.308594 281.90625 23.988281-52.160156h-396.710937l14.429687 52.160156zm0 0"
       fill="#181d2d"
       data-original="#ff7956"
       style=""
       class=""
       id="path302" /><path
       d="m37.496094 211.636719v-57.574219c7.070312-7.070312 11.035156-11.035156 18.105468-18.105469h-29.992187c-7.074219 7.070313-11.039063 11.035157-18.109375 18.105469v57.574219l18.109375 18.109375h29.992187c-7.070312-7.074219-11.035156-11.039063-18.105468-18.109375zm0 0"
       fill="#181d2d"
       data-original="#acabb1"
       style=""
       class=""
       id="path304" /><path
       d="m7.375 162.71875h29.996094v41.203125h-29.996094zm0 0"
       fill="#181d2d"
       data-original="#000000"
       style=""
       class=""
       id="path306" /><path
       d="m207.035156 124.261719v-26.851563c0-12.289062 6.914063-22.957031 17.0625-28.335937-4.476562-2.375-9.578125-3.726563-15-3.726563-17.703125 0-32.058594 14.355469-32.058594 32.0625v26.851563c7.863282 7.863281 12.269532 12.273437 20.132813 20.132812h29.996094c-7.863281-7.863281-12.273438-12.273437-20.132813-20.132812zm0 0"
       fill="#181d2d"
       data-original="#ffbb85"
       style=""
       class=""
       id="path308" /><path
       d="m204.636719 179.792969v-27.332031c-3.148438-3.148438-4.917969-4.917969-8.070313-8.066407h-10.359375c-3.476562 3.476563-5.425781 5.425781-8.902343 8.902344v53.828125h29.996093v-27.332031zm0 0"
       fill="#181d2d"
       data-original="#424ede"
       style=""
       class=""
       id="path310" /><path
       d="m204.636719 179.792969h29.996093v-27.332031c-3.152343-3.148438-4.917968-4.917969-8.070312-8.066407h-29.996094c3.152344 3.148438 4.921875 4.917969 8.070313 8.066407zm0 0"
       fill="#181d2d"
       data-original="#424ede"
       style=""
       class=""
       id="path312" /><path
       d="m177.304688 207.125h29.996093v22.621094h-29.996093zm0 0"
       fill="#181d2d"
       data-original="#424ede"
       style=""
       class=""
       id="path314" /><path
       d="m103.585938 229.746094 14.429687 52.160156h29.996094l-14.429688-52.160156zm0 0"
       fill="#181d2d"
       data-original="#ed4726"
       style=""
       class=""
       id="path320" /><path
       id="path322"
       clip-path="url(#clipPath2733)"
       style="stroke-width:1"
       transform="matrix(0.99999805,0,0,0.99999805,0,-0.4995)"
       d="m 22.5,128.95703 -22.5,22.5 v 63.78516 l 22.5,22.5039 h 16.316406 l 22.691406,30.6836 v 20.78711 c 3.748715,0.005 9.323317,0.003 15,-0.002 V 273.45703 H 83.375 V 258.46094 H 72.789062 L 57.46875,237.74609 h 37.671875 l -6.115234,51.43164 c 3.771936,-0.0137 8.255275,-0.0195 10.671875,-0.0449 1.124614,-0.0118 2.245854,-0.11177 3.369144,-0.16797 0.45708,-0.0229 0.80234,0.0741 1.05859,0.22461 L 106.52734,269 l 5.78516,20.90625 h 368.80078 l 30.88867,-67.16016 H 142.29688 v -71.28906 l -22.5,-22.5 z m 6.214844,14.99609 h 84.867186 l 13.71875,13.71876 v 65.07421 H 28.714844 l -13.71875,-13.71484 v -51.35937 z m 84.726566,93.79297 h 375.15234 l -17.08984,37.16016 H 123.72266 Z m -36.933598,57.84375 c -0.411022,0.003 -0.414237,-0.008 -1.78125,0.0293 -2.790045,0.0761 -5.57978,0.19682 -8.36914,0.29492 -1.616984,-0.0192 -3.233466,0.0619 -4.84961,0.15625 v 1.22657 h 15 v -1.60352 c -1.022052,0.031 -0.793751,0.0106 0,-0.0371 z" /><path
       d="m27.371094 196.425781h87.304687v14.996094h-87.304687zm0 0"
       fill="#181d2d"
       data-original="#000000"
       style=""
       class=""
       id="path324" /><path
       d="m27.371094 155.21875h87.304687v15h-87.304687zm0 0"
       fill="#181d2d"
       data-original="#000000"
       style=""
       class=""
       id="path326" /><path
       d="m169.804688 150.191406v64.433594h93.90625l14.480468-14.480469v-22.988281l.941406-.941406c4.496094 2.648437 9.636719 4.058594 14.992188 4.058594 7.910156 0 15.351562-3.082032 20.945312-8.675782s8.675782-13.03125 8.675782-20.945312c0-.574219-.019532-1.144532-.050782-1.714844.566407.035156 1.140626.050781 1.710938.050781 7.914062 0 15.351562-3.082031 20.949219-8.675781 5.59375-5.59375 8.675781-13.03125 8.675781-20.945312 0-.574219-.019531-1.144532-.050781-1.714844.566406.035156 1.140625.050781 1.714843.050781 7.910157 0 15.347657-3.082031 20.945313-8.675781 5.59375-5.59375 8.675781-13.03125 8.675781-20.945313 0-.574219-.019531-1.144531-.050781-1.714843.566406.035156 1.140625.050781 1.714844.050781 6.75 0 13.15625-2.242188 18.367187-6.378907v129.609376h14.996094v-175.648438l8.5-8.503906-24.996094-24.996094-156.1875 156.1875v-59.277344c0-21.8125-17.746094-39.5625-39.5625-39.5625-21.8125 0-39.558594 17.75-39.558594 39.5625v29.957032l11.546876 11.546874zm93.386718 43.742188-5.695312 5.691406h-72.691406v-43.222656l4.507812-4.507813h4.148438l3.679687 3.675781v31.722657h66.050781zm41.273438-32.941406c-2.761719 2.761718-6.433594 4.285156-10.339844 4.285156-1.234375 0-2.445312-.152344-3.609375-.449219l17.785156-17.785156c.296875 1.164062.445313 2.375.445313 3.609375 0 3.90625-1.519532 7.578125-4.28125 10.339844zm31.285156-31.285157c-2.761719 2.761719-6.433594 4.28125-10.339844 4.28125-1.234375 0-2.445312-.152343-3.609375-.445312l17.785157-17.785157c.296874 1.164063.449218 2.375.449218 3.609376-.003906 3.90625-1.523437 7.578124-4.285156 10.339843zm31.285156-31.285156c-3.773437 3.773437-9.109375 5.046875-13.941406 3.828125l17.769531-17.773438c1.21875 4.835938-.054687 10.171876-3.828125 13.945313zm31.285156-31.285156c-2.761718 2.761719-6.433593 4.28125-10.339843 4.28125-1.234375 0-2.445313-.152344-3.609375-.445313l17.785156-17.785156c.296875 1.164062.445312 2.375.445312 3.605469.003907 3.90625-1.519531 7.582031-4.28125 10.34375zm6.527344-45.425781 3.789063 3.789062-146.796875 146.792969h-7.578125zm-171.1875 134.71875v15.863281h-21.523437v-20.398438h16.988281zm-49.121094-59.019532c0-13.542968 11.015626-24.5625 24.558594-24.5625 13.542969 0 24.5625 11.019532 24.5625 24.5625v39.484375h-33.382812l-15.742188-15.738281v-23.746094zm0 0"
       fill="#181d2d"
       data-original="#000000"
       style=""
       class=""
       id="path328" /><path
       d="m451.816406 262.367188h-57.902344v-14.996094h57.902344zm-67.902344 0h-14.996093v-14.996094h14.996093zm-24.996093 0h-14.996094v-14.996094h14.996094zm0 0"
       fill="#181d2d"
       data-original="#ffffff"
       style=""
       class=""
       id="path332" /><path
       d="m119.785156 190.351562h-28.320312v-15h28.320312zm-38.316406 0h-15v-15h15zm-24.996094 0h-15v-15h15zm0 0"
       fill="#181d2d"
       data-original="#ffffff"
       style=""
       class=""
       id="path334" /></g><path
     id="path2839"
     style="fill:#181d2d;fill-opacity:1;fill-rule:evenodd;stroke-width:0.795537"
     transform="matrix(0.99999805,0,0,0.99999805,0,-0.4995)"
     d="M 404.68945,1.6679688 326.92578,79.427734 c -42.77043,42.768766 -78.01453,77.761716 -78.32031,77.761716 -0.30577,0 -0.66204,-15.4824 -0.79297,-34.40625 -0.23367,-33.772148 -0.27216,-34.485423 -2.05273,-38.673825 -5.76057,-13.550417 -17.6476,-22.870746 -31.80079,-24.933594 -5.78203,-0.84274 -7.06026,-0.767927 -13.36718,0.789063 -8.42172,2.079074 -14.23509,5.423022 -19.72657,11.347656 -9.24158,9.97053 -10.85742,15.76018 -10.85742,38.92969 v 17.1582 l 5.57031,5.52539 c 3.06291,3.03936 5.56836,5.90423 5.56836,6.36524 0,0.46102 -2.50545,3.32393 -5.56836,6.36328 l -5.57031,5.52734 v 31.59961 31.59961 l 3.7793,0.24219 3.7793,0.24414 0.24023,4.17578 0.24024,4.17578 H 160.10547 142.16406 V 187.62891 152.03906 L 130.83789,140.69336 119.51172,129.3457 H 70.984375 22.457031 L 11.507812,140.27344 0.55859375,151.20117 v 31.82227 31.82226 l 11.32617225,11.34766 11.326172,11.3457 h 8.048828 8.048828 l 11.253906,15.26563 11.253906,15.26562 v 12.18164 8.96485 c 9.700009,0.0119 29.35647,0.006 37.88086,-0.084 1.124614,-0.0118 2.245854,-0.11177 3.369144,-0.16797 0.24988,-0.0125 0.46996,0.009 0.66015,0.0547 l 1.06055,-9.07422 c 0.67452,-5.77357 1.42725,-10.69872 1.67383,-10.94531 0.24659,-0.24658 1.69381,4.11856 3.21484,9.70117 l 2.76563,10.15039 184.21484,0.20117 184.2168,0.19922 15.10937,-32.8164 15.10742,-32.81836 -135.13867,-0.20117 -135.14062,-0.20118 v -4.37304 -4.37305 h 11.32226 11.32031 l 6.97657,-6.94531 6.97656,-6.94336 0.0117,-11.1543 c 0.007,-6.13477 0.30492,-11.61477 0.66211,-12.17773 0.51079,-0.80507 1.48501,-0.64181 4.5625,0.76367 3.15824,1.44235 5.37042,1.7931 11.4707,1.8164 6.70011,0.0256 8.07357,-0.22449 12.10547,-2.20117 9.15503,-4.48835 15.7821,-13.71824 16.92578,-23.57226 l 0.53711,-4.62891 4.55078,-0.51562 c 13.55924,-1.53405 24.83122,-12.86777 26.07813,-26.22071 l 0.4707,-5.03125 3.90625,-0.13867 c 4.59635,-0.16268 10.75269,-2.3501 15.10352,-5.36523 6.45946,-4.47641 11.80859,-14.350103 11.80859,-21.798831 v -3.96875 h 3.59961 c 4.12485,0 11.19455,-2.278247 14.60547,-4.707031 1.28,-0.911457 2.54016,-1.656251 2.80078,-1.65625 0.26062,0 0.47265,29.175882 0.47265,64.835942 v 64.83593 h 6.76368 6.76172 V 122.01172 34.330078 l 4.16015,-4.214844 4.16211,-4.21289 -12.11719,-12.117188 z m -2.57226,52.6835932 c 0.98373,0.01286 1.04803,1.546549 0.70703,4.425782 -0.59973,5.063734 -3.57308,9.604491 -7.64844,11.683594 -3.08655,1.574643 -11.16797,2.295317 -11.16797,0.996093 0,-0.335621 3.90013,-4.496947 8.66602,-9.248047 5.39431,-5.377588 8.17856,-7.873961 9.44336,-7.857422 z m -31.25781,30.652344 c 0.0485,-0.01657 0.0813,-0.01647 0.0976,0 1.08203,1.082035 0.32445,7.8072 -1.2207,10.835938 -1.87781,3.680809 -4.77162,5.932396 -9.19727,7.158206 -1.75018,0.48476 -3.53901,0.84322 -3.97656,0.79492 -1.88229,-0.20785 -3.58008,-0.85609 -3.58008,-1.36719 0,-1.00524 16.3744,-16.908091 17.87696,-17.421874 z m -31.21485,30.818364 c 0.33529,0 0.6018,1.70095 0.5918,3.77929 -0.0246,5.32204 -2.36833,9.99023 -6.33203,12.61328 -3.31677,2.1949 -10.84753,3.56729 -12.17383,2.21875 -0.60926,-0.61948 16.70859,-18.61132 17.91406,-18.61132 z M 308.18164,147.625 c 0.38418,0.009 0.52334,0.43379 0.68555,1.08008 1.35962,5.41712 -2.27707,12.93147 -7.56446,15.6289 -3.08583,1.57427 -11.16796,2.2968 -11.16796,0.99805 0,-0.3353 4.09493,-4.69321 9.09961,-9.68359 6.07204,-6.05482 8.10206,-8.04397 8.94726,-8.02344 z" /><path
     id="path2843"
     style="fill:#181d2d;fill-opacity:1;fill-rule:evenodd;stroke-width:0.795537"
     transform="matrix(0.99999805,0,0,0.99999805,0,-0.4995)"
     d="M 404.68945,1.6679688 326.89453,79.460938 c -42.78825,42.786572 -78.05181,77.539982 -78.36133,77.230472 -0.30951,-0.30951 -0.5625,-14.92668 -0.5625,-32.48243 0,-35.344041 -0.2666,-37.777466 -4.99414,-45.609371 -6.32577,-10.479596 -17.08961,-17.685309 -29.01758,-19.423828 -5.78203,-0.84274 -7.06026,-0.767927 -13.36718,0.789063 -8.50218,2.098935 -14.2322,5.423941 -19.94727,11.574218 -9.02282,9.709913 -10.63672,15.568616 -10.63672,38.623048 v 17.07422 l 5.57031,5.74414 c 3.06291,3.1587 5.56836,6.05878 5.56836,6.44531 0,0.38652 -2.50545,3.18917 -5.56836,6.22852 l -5.57031,5.52734 v 31.64258 31.64453 h 3.48828 c 3.81775,0 4.43463,0.85446 4.45703,6.16602 l 0.0117,2.58398 H 160.06445 142.16406 V 187.62891 152.03906 L 130.83789,140.69336 119.51172,129.3457 H 70.984375 22.457031 L 11.507812,140.27344 0.55859375,151.20117 v 31.82227 31.82226 l 11.32617225,11.34766 11.326172,11.3457 h 8.005859 8.003906 l 11.296875,15.29102 11.298828,15.28906 v 12.15625 8.94141 c 9.700009,0.0119 29.35647,0.006 37.88086,-0.084 1.124614,-0.0118 2.245854,-0.11177 3.369144,-0.16797 0.25283,-0.0126 0.4743,0.01 0.66601,0.0566 l 1.06641,-8.6914 c 0.68242,-5.562 1.47035,-10.34146 1.75,-10.6211 0.27965,-0.27965 0.91875,1.0494 1.41992,2.95313 0.50117,1.90374 1.72447,6.32385 2.7207,9.82422 l 1.8125,6.36523 h 184.32617 184.32813 l 14.98437,-32.61718 14.98438,-32.61719 -135.1582,-0.20117 -135.15625,-0.20118 v -4.37304 -4.37305 h 11.35351 11.35352 l 6.89453,-6.96094 6.89453,-6.96093 0.5332,-11.53516 c 0.29319,-6.34441 0.68134,-11.78021 0.86133,-12.08008 0.17997,-0.29987 2.01985,0.23555 4.08985,1.19141 3.03314,1.40059 5.23155,1.7378 11.32226,1.73828 6.741,5.3e-4 8.06829,-0.2489 12.28711,-2.32031 9.04443,-4.44075 15.71122,-13.79269 16.82031,-23.59571 l 0.51172,-4.52539 4.52539,-0.51367 c 13.43122,-1.51957 24.41086,-12.45778 26.08594,-25.98633 l 0.62695,-5.05859 3.58008,-0.26563 c 14.5985,-1.0797 26.9679,-13.44911 27.0293,-27.031247 l 0.0195,-4.177734 h 3.45312 c 4.46613,0 10.23265,-1.756425 14.03907,-4.275391 1.6601,-1.098597 3.23556,-1.778111 3.50195,-1.511719 0.2664,0.266394 0.48445,29.420781 0.48437,64.789061 v 64.30664 h 6.76368 6.76172 V 122.01172 34.330078 l 4.16015,-4.214844 4.16211,-4.21289 -12.11719,-12.117188 z m -2.35742,52.5937502 c 0.059,-0.01513 0.10151,-0.01538 0.12891,0.002 1.14497,0.707633 0.36864,6.513007 -1.35742,10.15039 -0.7888,1.662274 -2.84113,3.954603 -4.5625,5.09375 -3.28369,2.173056 -12.53321,3.610133 -12.53321,1.947266 0,-1.316198 16.49612,-16.72436 18.32422,-17.193359 z m -31.45117,30.136719 0.24609,3.830078 c 0.3432,5.37508 -2.16774,10.330703 -6.48633,12.798824 -4.53152,2.58991 -11.6582,3.41144 -11.6582,1.34375 0,-0.33351 4.02683,-4.513496 8.94922,-9.289059 z m -31.24024,31.423832 c 0.48961,0 0.67185,1.83939 0.46485,4.70117 -0.41951,5.79971 -3.17679,10.33972 -7.53711,12.41211 -3.58982,1.70618 -10.61133,2.59403 -10.61133,1.34179 0,-1.09597 16.63343,-18.45507 17.68359,-18.45507 z m -31.32226,32.21679 c 0.053,-0.0128 0.0919,-0.0125 0.11719,0.004 1.06795,0.66002 1.00025,4.32869 -0.14063,7.63672 -1.42674,4.13685 -3.81392,6.9234 -7.42578,8.67187 -1.85915,0.9 -4.90837,1.58985 -7.03516,1.58985 -3.33473,0 -3.67216,-0.1571 -3.00781,-1.39844 1.31058,-2.44883 15.84823,-16.10793 17.49219,-16.50391 z" /></svg>
