<?xml version="1.0"?>
<svg xmlns="http://www.w3.org/2000/svg" xmlns:xlink="http://www.w3.org/1999/xlink" xmlns:svgjs="http://svgjs.com/svgjs" version="1.1" width="512" height="512" x="0" y="0" viewBox="0 0 32 32" style="enable-background:new 0 0 512 512" xml:space="preserve" class=""><g><g xmlns="http://www.w3.org/2000/svg" id="Layer_56" data-name="Layer 56"><path d="m27 7.5h-13.2l-1.73-1.66a3 3 0 0 0 -2.07-.84h-5a3 3 0 0 0 -3 3v16a3 3 0 0 0 3 3h22a3 3 0 0 0 3-3v-13.5a3 3 0 0 0 -3-3zm1 16.5a1 1 0 0 1 -1 1h-22a1 1 0 0 1 -1-1v-16a1 1 0 0 1 1-1h5a1 1 0 0 1 .7.28l2 1.94a1 1 0 0 0 .69.28h13.61a1 1 0 0 1 1 1z" fill="#ffffff" data-original="#000000" style="" class=""/></g></g></svg>
