<svg id="Layer_1" height="512" viewBox="0 0 100 100" width="512" xmlns="http://www.w3.org/2000/svg" data-name="Layer 1"><path d="m95 50a44.74 44.74 0 0 0 -7.45-24.8 11.13 11.13 0 0 1 -16.46-15 45 45 0 0 0 -58.16 14.29 11.13 11.13 0 0 1 -2.19 22 11 11 0 0 1 -5.47-1.44 44.34 44.34 0 0 0 -.27 4.95 45 45 0 0 0 45 45h2.08a11.13 11.13 0 0 1 21.29-6.49 45 45 0 0 0 21.63-38.51zm-48.74-38.4a5.85 5.85 0 1 1 -5.85 5.84 5.85 5.85 0 0 1 5.85-5.84zm-17.26 65.97a5.59 5.59 0 1 1 5.61-5.57 5.59 5.59 0 0 1 -5.61 5.57zm16.33-16.7a9.55 9.55 0 1 1 9.55-9.55 9.55 9.55 0 0 1 -9.53 9.55zm31 3a5.82 5.82 0 1 1 5.83-5.82 5.82 5.82 0 0 1 -5.77 5.84z" fill="#e1e3e8"/><g fill="#c5ccd4"><path d="m21.87 35.4a11.13 11.13 0 0 0 -8.94-10.91 44.74 44.74 0 0 0 -7.66 20.6 11 11 0 0 0 5.47 1.44 11.13 11.13 0 0 0 11.13-11.13z"/><path d="m62.75 80.65a11.13 11.13 0 0 0 -10.67 14.35 44.73 44.73 0 0 0 21.29-6.49 11.13 11.13 0 0 0 -10.62-7.86z"/><path d="m79.57 28.57a11.09 11.09 0 0 0 8-3.37 45.17 45.17 0 0 0 -16.46-15 11.12 11.12 0 0 0 8.48 18.33z"/><circle cx="45.35" cy="51.32" r="9.55"/><circle cx="76.39" cy="58.07" r="5.82"/><circle cx="46.26" cy="17.44" r="5.84"/><circle cx="29.02" cy="71.98" r="5.59"/></g></svg>