<?xml version="1.0"?>
<svg xmlns="http://www.w3.org/2000/svg" xmlns:xlink="http://www.w3.org/1999/xlink" xmlns:svgjs="http://svgjs.com/svgjs" version="1.1" width="512" height="512" x="0" y="0" viewBox="0 0 512 512" style="enable-background:new 0 0 512 512" xml:space="preserve" class=""><g><g xmlns="http://www.w3.org/2000/svg"><path d="m477.05 372.821-435.05 64.179v-170.611l214-229.237 221.05 267.915z" fill="#181d2d" data-original="#faf5dc" style="" class=""/><path d="m34.95 266.389v106.432l16.374 13.179v-78.975c0-12.48 4.75-24.492 13.286-33.597l173.472-185.036c9.703-10.35 26.133-10.35 35.837 0l203.131 216.675v-38.678l-221.05-229.237z" fill="#181d2d" data-original="#f5ebcd" style="" class=""/><path d="m422.667 233.667-20.254-8.213h-292.826l-14.711 5.75-.64 10.624h153.577v141.172h16.374v-141.172h153.577z" fill="#181d2d" data-original="#b57f5f" style="" class=""/><path d="m353.5 503.813h-194.5l6.943-130.992h180.114z" fill="#181d2d" data-original="#6e4848" style="" class=""/><path d="m182.317 421.943v81.87h147.367v-81.87c0-18.086-14.662-32.748-32.748-32.748h-81.87c-18.087-.001-32.749 14.661-32.749 32.748z" fill="#181d2d" data-original="#785353" style="" class=""/><path d="m40.333 503.813h113l12.61-11.577v-107.839l-11.577-11.577h-103.042z" fill="#181d2d" data-original="#b57f5f" style="" class=""/><path d="m346.057 492.236 9.568 11.577h108.875l12.55-11.577v-107.839l-11.577-11.577h-107.839l-11.577 11.577z" fill="#181d2d" data-original="#b57f5f" style="" class=""/><path d="m165.943 372.82h-11.577l-53.919 53.919-49.122-49.122v-4.797h-4.797-11.578v11.577 107.839 11.577h11.577 4.797v-4.797l49.122-49.122 53.919 53.919h11.577v-11.577l-53.919-53.919 53.919-53.919v-11.578zm-114.619 103.042v-75.09l37.545 37.545z" fill="#181d2d" data-original="#9f6e50" style="" class=""/><path d="m272.374 184.519h-32.748c-4.522 0-8.187-3.665-8.187-8.187v-32.748c0-4.522 3.665-8.187 8.187-8.187h32.748c4.522 0 8.187 3.665 8.187 8.187v32.748c0 4.521-3.665 8.187-8.187 8.187z" fill="#181d2d" data-original="#6e4848" style="" class=""/><path d="m239.626 184.519h-8.187c-4.522 0-8.187-3.665-8.187-8.187v-32.748c0-4.522 3.665-8.187 8.187-8.187h8.187z" fill="#181d2d" data-original="#b57f5f" style="" class=""/><path d="m272.374 135.396h8.187c4.522 0 8.187 3.665 8.187 8.187v32.748c0 4.522-3.665 8.187-8.187 8.187h-8.187z" fill="#181d2d" data-original="#b57f5f" style="" class=""/><path d="m165.943 331.885h-40.935c-4.522 0-8.187-3.665-8.187-8.187v-40.935c0-4.522 3.665-8.187 8.187-8.187h40.935c4.522 0 8.187 3.665 8.187 8.187v40.935c0 4.522-3.666 8.187-8.187 8.187z" fill="#181d2d" data-original="#6e4848" style="" class=""/><path d="m125.007 331.885h-8.187c-4.522 0-8.187-3.665-8.187-8.187v-40.935c0-4.522 3.665-8.187 8.187-8.187h8.187z" fill="#181d2d" data-original="#b57f5f" style="" class=""/><path d="m165.943 274.576h8.187c4.522 0 8.187 3.665 8.187 8.187v40.935c0 4.522-3.665 8.187-8.187 8.187h-8.187z" fill="#181d2d" data-original="#b57f5f" style="" class=""/><path d="m386.993 331.885h-40.935c-4.522 0-8.187-3.665-8.187-8.187v-40.935c0-4.522 3.665-8.187 8.187-8.187h40.935c4.522 0 8.187 3.665 8.187 8.187v40.935c0 4.522-3.666 8.187-8.187 8.187z" fill="#181d2d" data-original="#6e4848" style="" class=""/><path d="m346.057 331.885h-8.187c-4.522 0-8.187-3.665-8.187-8.187v-40.935c0-4.522 3.665-8.187 8.187-8.187h8.187z" fill="#181d2d" data-original="#b57f5f" style="" class=""/><path d="m386.993 274.576h8.187c4.522 0 8.187 3.665 8.187 8.187v40.935c0 4.522-3.665 8.187-8.187 8.187h-8.187z" fill="#181d2d" data-original="#b57f5f" style="" class=""/><g fill="#9f6e50"><path d="m423.131 438.317 53.919-53.92v-11.577h-11.577l-53.919 53.92-53.92-53.92h-11.577v11.577l53.92 53.92-53.92 53.919v11.577h11.577l53.92-53.919 53.919 53.919h11.577v-11.577z" fill="#181d2d" data-original="#9f6e50" style="" class=""/><path d="m437.577 225.454h-35.164l15.351 16.374h26.538v-9.4z" fill="#181d2d" data-original="#9f6e50" style="" class=""/><path d="m74.423 225.454-6.725 6.974v9.4h26.538l15.351-16.374z" fill="#181d2d" data-original="#9f6e50" style="" class=""/></g><path d="m250.027 2.588-235.21 250.89c-2.845 3.035-4.429 7.039-4.429 11.199v18.918c0 5.355 6.554 7.947 10.216 4.04l235.396-251.088 235.395 251.088c3.662 3.907 10.216 1.315 10.216-4.04v-18.918c0-4.16-1.583-8.164-4.429-11.199l-235.209-250.89c-3.235-3.451-8.711-3.451-11.946 0z" fill="#181d2d" data-original="#b57f5f" style="" class=""/><path d="m250.027 27.98-239.638 255.614v8.792c0 5.355 6.554 7.947 10.216 4.04l235.395-251.087 235.395 251.088c3.662 3.907 10.216 1.315 10.216-4.04v-8.792l-239.638-255.615c-3.235-3.45-8.711-3.45-11.946 0z" fill="#181d2d" data-original="#9f6e50" style="" class=""/><path d="m501.611 512h-491.222c-4.525 0-8.187-3.666-8.187-8.187s3.662-8.187 8.187-8.187h491.222c4.525 0 8.187 3.666 8.187 8.187s-3.662 8.187-8.187 8.187z" fill="#181d2d" data-original="#f4dbb3" style="" class=""/></g></g></svg>
