<?xml version="1.0"?>
<svg xmlns="http://www.w3.org/2000/svg" xmlns:xlink="http://www.w3.org/1999/xlink" xmlns:svgjs="http://svgjs.com/svgjs" version="1.1" width="512" height="512" x="0" y="0" viewBox="0 0 100 100" style="enable-background:new 0 0 512 512" xml:space="preserve" class=""><g><path xmlns="http://www.w3.org/2000/svg" d="m6.67 45.15h86.38v49.85h-86.38z" fill="#181d2d" data-original="#fbb36b" style=""/><g xmlns="http://www.w3.org/2000/svg" opacity=".1"><path d="m93.05 45.15v3h-72.9a13.48 13.48 0 0 0 -13.48 13.48v-16.48z" fill="#181d2d" data-original="#000000" style="" class=""/></g><path xmlns="http://www.w3.org/2000/svg" d="m68.08 16h8.29a1.63 1.63 0 0 1 1.63 1.66v11.16a0 0 0 0 1 0 0h-11.55a0 0 0 0 1 0 0v-11.16a1.63 1.63 0 0 1 1.63-1.66z" fill="#181d2d" data-original="#736357" style="" class=""/><path xmlns="http://www.w3.org/2000/svg" d="m41.43 72.41h16.98v22.59h-16.98z" fill="#181d2d" data-original="#42210b" style="" class=""/><path xmlns="http://www.w3.org/2000/svg" d="m93.85 46.06h-87.7a.74.74 0 0 1 -.67-1.06l9.52-20.92h70l9.52 20.92a.74.74 0 0 1 -.67 1.06z" fill="#181d2d" data-original="#5f4132" style="" class=""/><g xmlns="http://www.w3.org/2000/svg" opacity=".1"><path d="m85.91 26.08h-45.91a35.69 35.69 0 0 0 -32.06 20h-1.79a.74.74 0 0 1 -.67-1.08l9.52-20.92h70z" fill="#181d2d" data-original="#000000" style="" class=""/></g><path xmlns="http://www.w3.org/2000/svg" d="m6.67 62.27h86.38v32.73h-86.38z" fill="#181d2d" data-original="#fbb36b" style=""/><path xmlns="http://www.w3.org/2000/svg" d="m93.39 63.08h-86.78a.74.74 0 0 1 -.61-1.22l9-10.49h70l9 10.49a.74.74 0 0 1 -.61 1.22z" fill="#181d2d" data-original="#5f4132" style="" class=""/><rect xmlns="http://www.w3.org/2000/svg" fill="#181d2d" height="6.87" rx="1.38" width="90" x="5" y="88.13" data-original="#f07719" style="" class=""/><g xmlns="http://www.w3.org/2000/svg" opacity=".1"><path d="m93.05 61.46v4h-27.19v29.48h-31v-29a33.6 33.6 0 0 0 -26.39 22.19h5a5.5 5.5 0 0 0 -5.47 5.49 1.38 1.38 0 0 0 1.38 1.38h-3a1.38 1.38 0 0 1 -1.38-1.38v-4.11a1.38 1.38 0 0 1 1.38-1.38h.29v-26.67z" fill="#181d2d" data-original="#000000" style="" class=""/></g><path xmlns="http://www.w3.org/2000/svg" d="m37.87 62.65h24.97v32.3h-24.97z" fill="#181d2d" data-original="#fbb36b" style=""/><path xmlns="http://www.w3.org/2000/svg" d="m65.18 63.13-30.08-.08 14.82-13.15z" fill="#181d2d" data-original="#f07719" style="" class=""/><path xmlns="http://www.w3.org/2000/svg" d="m37.67 25.11h24.97v17.84h-24.97z" fill="#181d2d" data-original="#fbb36b" style=""/><path xmlns="http://www.w3.org/2000/svg" d="m64.98 26.95-29.25-.02 14.44-14.99z" fill="#181d2d" data-original="#f07719" style="" class=""/><path xmlns="http://www.w3.org/2000/svg" d="m36.83 90.69h26.62v2.25h-26.62z" fill="#181d2d" data-original="#8c6239" style="" class=""/><path xmlns="http://www.w3.org/2000/svg" d="m35.44 92.69h29.11v2.25h-29.11z" fill="#181d2d" data-original="#754c24" style="" class=""/><path xmlns="http://www.w3.org/2000/svg" d="m40 65.06h8.34v23.7h-8.34z" fill="#181d2d" data-original="#94bcdd" style="" class=""/><g xmlns="http://www.w3.org/2000/svg" fill="#8c6239"><path d="m48.34 89.26h-8.34a.5.5 0 0 1 -.5-.5v-23.7a.5.5 0 0 1 .5-.5h8.34a.5.5 0 0 1 .5.5v23.7a.5.5 0 0 1 -.5.5zm-7.84-1h7.34v-22.7h-7.34z" fill="#181d2d" data-original="#8c6239" style="" class=""/><path d="m43.67 65.06h1v23.71h-1z" fill="#181d2d" data-original="#8c6239" style="" class=""/><path d="m40 76.42h8.34v1h-8.34z" fill="#181d2d" data-original="#8c6239" style="" class=""/></g><path xmlns="http://www.w3.org/2000/svg" d="m52 65.06h8.34v23.7h-8.34z" fill="#181d2d" data-original="#94bcdd" style="" class=""/><path xmlns="http://www.w3.org/2000/svg" d="m60.34 89.26h-8.34a.5.5 0 0 1 -.5-.5v-23.7a.5.5 0 0 1 .5-.5h8.34a.5.5 0 0 1 .5.5v23.7a.5.5 0 0 1 -.5.5zm-7.84-1h7.34v-22.7h-7.34z" fill="#181d2d" data-original="#8c6239" style="" class=""/><path xmlns="http://www.w3.org/2000/svg" d="m55.67 65.06h1v23.71h-1z" fill="#181d2d" data-original="#8c6239" style="" class=""/><path xmlns="http://www.w3.org/2000/svg" d="m52 76.42h8.34v1h-8.34z" fill="#181d2d" data-original="#8c6239" style="" class=""/><path xmlns="http://www.w3.org/2000/svg" d="m75.11 65.06h9.76v20.16h-9.76z" fill="#181d2d" data-original="#94bcdd" style="" class=""/><path xmlns="http://www.w3.org/2000/svg" d="m84.87 85.71h-9.76a.5.5 0 0 1 -.5-.5v-20.15a.5.5 0 0 1 .5-.5h9.76a.5.5 0 0 1 .5.5v20.15a.5.5 0 0 1 -.5.5zm-9.26-1h8.76v-19.15h-8.76z" fill="#181d2d" data-original="#8c6239" style="" class=""/><path xmlns="http://www.w3.org/2000/svg" d="m75.11 74.63h9.76v1h-9.76z" fill="#181d2d" data-original="#8c6239" style="" class=""/><path xmlns="http://www.w3.org/2000/svg" d="m15.11 65.06h9.76v20.16h-9.76z" fill="#181d2d" data-original="#94bcdd" style="" class=""/><path xmlns="http://www.w3.org/2000/svg" d="m24.87 85.71h-9.76a.5.5 0 0 1 -.5-.5v-20.15a.5.5 0 0 1 .5-.5h9.76a.5.5 0 0 1 .5.5v20.15a.5.5 0 0 1 -.5.5zm-9.26-1h8.76v-19.15h-8.76z" fill="#181d2d" data-original="#8c6239" style="" class=""/><path xmlns="http://www.w3.org/2000/svg" d="m15.11 74.63h9.76v1h-9.76z" fill="#181d2d" data-original="#8c6239" style="" class=""/><path xmlns="http://www.w3.org/2000/svg" d="m44.04 28.82h11.93v11.93h-11.93z" fill="#181d2d" data-original="#94bcdd" style="" class=""/><path xmlns="http://www.w3.org/2000/svg" d="m56 41.25h-12a.5.5 0 0 1 -.5-.5v-11.93a.5.5 0 0 1 .5-.5h12a.5.5 0 0 1 .5.5v11.93a.5.5 0 0 1 -.5.5zm-11.42-1h10.88v-10.93h-10.92z" fill="#181d2d" data-original="#8c6239" style="" class=""/><path xmlns="http://www.w3.org/2000/svg" d="m49.5 28.82h1v11.93h-1z" fill="#181d2d" data-original="#8c6239" style="" class=""/><path xmlns="http://www.w3.org/2000/svg" d="m44.04 34.29h11.93v1h-11.93z" fill="#181d2d" data-original="#8c6239" style="" class=""/><path xmlns="http://www.w3.org/2000/svg" d="m65.18 64.13a1 1 0 0 1 -.65-.25l-14.6-12.65-14.17 12.57a1 1 0 1 1 -1.32-1.5l14.82-13.15a1 1 0 0 1 1.32 0l15.26 13.22a1 1 0 0 1 -.66 1.76z" fill="#181d2d" data-original="#5f4132" style="" class=""/><path xmlns="http://www.w3.org/2000/svg" d="m65 28a1 1 0 0 1 -.71-.3l-14.11-14.33-13.73 14.26a1 1 0 0 1 -1.45-1.39l14.44-15a1 1 0 0 1 .72-.3 1 1 0 0 1 .72.29l14.8 15a1 1 0 0 1 0 1.42 1 1 0 0 1 -.68.35z" fill="#181d2d" data-original="#5f4132" style="" class=""/><g xmlns="http://www.w3.org/2000/svg" opacity=".1"><path d="m65.18 64.13a1 1 0 0 1 -.65-.25l-14.6-12.65-14.17 12.57a1 1 0 1 1 -1.32-1.5l14.82-13.15a1 1 0 0 1 1.32 0l15.26 13.22a1 1 0 0 1 -.66 1.76z" fill="#181d2d" data-original="#000000" style="" class=""/></g><g xmlns="http://www.w3.org/2000/svg" opacity=".1"><path d="m65 28a1 1 0 0 1 -.71-.3l-14.11-14.33-13.73 14.26a1 1 0 0 1 -1.45-1.39l14.44-15a1 1 0 0 1 .72-.3 1 1 0 0 1 .72.29l14.8 15a1 1 0 0 1 0 1.42 1 1 0 0 1 -.68.35z" fill="#181d2d" data-original="#000000" style="" class=""/></g></g></svg>
