<?xml version="1.0"?>
<svg xmlns="http://www.w3.org/2000/svg" xmlns:xlink="http://www.w3.org/1999/xlink" xmlns:svgjs="http://svgjs.com/svgjs" version="1.1" width="512" height="512" x="0" y="0" viewBox="0 0 426.684 426.684" style="enable-background:new 0 0 512 512" xml:space="preserve" class=""><g>
<rect xmlns="http://www.w3.org/2000/svg" x="139.806" y="404.864" style="" width="147.072" height="21.82" fill="#212e54" data-original="#64798a" class=""/>
<polygon xmlns="http://www.w3.org/2000/svg" style="" points="270.334,404.848 156.35,404.848 177.528,119.02 249.156,119.02 " fill="#212e54" data-original="#e1e6e9" class=""/>
<g xmlns="http://www.w3.org/2000/svg">
	<polygon style="" points="250.132,132.2 176.551,132.2 177.528,119.02 249.156,119.02  " fill="#212e54" data-original="#e56353" class=""/>
	<polygon style="" points="252.254,160.839 174.429,160.839 175.52,146.118 251.164,146.118  " fill="#212e54" data-original="#e56353" class=""/>
	<polygon style="" points="254.636,192.984 172.048,192.984 173.274,176.434 253.41,176.434  " fill="#212e54" data-original="#e56353" class=""/>
	<polygon style="" points="257.329,229.321 169.355,229.321 170.744,210.579 255.94,210.579  " fill="#212e54" data-original="#e56353" class=""/>
	<polygon style="" points="260.397,270.727 166.287,270.727 167.873,249.327 258.811,249.327  " fill="#212e54" data-original="#e56353" class=""/>
	<polygon style="" points="263.925,318.342 162.759,318.342 164.587,293.674 262.097,293.674  " fill="#212e54" data-original="#e56353" class=""/>
	<polygon style="" points="268.025,373.676 158.659,373.676 160.789,344.931 265.895,344.931  " fill="#212e54" data-original="#e56353" class=""/>
</g>
<g xmlns="http://www.w3.org/2000/svg">
	<rect x="156.348" y="113.536" style="" width="113.984" height="5.483" fill="#212e54" data-original="#64798a" class=""/>
	<rect x="156.348" y="74.748" style="" width="5.235" height="44.271" fill="#212e54" data-original="#64798a" class=""/>
	<rect x="168.853" y="74.748" style="" width="5.235" height="44.271" fill="#212e54" data-original="#64798a" class=""/>
	<rect x="179.337" y="74.748" style="" width="5.235" height="44.271" fill="#212e54" data-original="#64798a" class=""/>
	<rect x="189.79" y="74.748" style="" width="5.235" height="44.271" fill="#212e54" data-original="#64798a" class=""/>
	<rect x="200.256" y="74.748" style="" width="5.235" height="44.271" fill="#212e54" data-original="#64798a" class=""/>
	<rect x="210.739" y="74.748" style="" width="5.235" height="44.271" fill="#212e54" data-original="#64798a" class=""/>
	<rect x="221.193" y="74.748" style="" width="5.235" height="44.271" fill="#212e54" data-original="#64798a" class=""/>
	<rect x="231.646" y="74.748" style="" width="5.235" height="44.271" fill="#212e54" data-original="#64798a" class=""/>
	<rect x="242.129" y="74.748" style="" width="5.235" height="44.271" fill="#212e54" data-original="#64798a" class=""/>
	<rect x="252.595" y="74.748" style="" width="5.235" height="44.271" fill="#212e54" data-original="#64798a" class=""/>
	<rect x="156.348" y="74.748" style="" width="113.984" height="5.483" fill="#212e54" data-original="#64798a" class=""/>
	<rect x="265.097" y="74.748" style="" width="5.235" height="44.271" fill="#212e54" data-original="#64798a" class=""/>
</g>
<rect xmlns="http://www.w3.org/2000/svg" x="177.937" y="22.626" style="" width="70.81" height="52.122" fill="#212e54" data-original="#3a556a" class=""/>
<polygon xmlns="http://www.w3.org/2000/svg" style="" points="248.748,22.626 213.342,0 177.936,22.626 " fill="#212e54" data-original="#e56353" class=""/>
<rect xmlns="http://www.w3.org/2000/svg" x="216.922" y="26.598" style="" width="24.303" height="44.352" fill="#212e54" data-original="#2d93ba" class=""/>
<polygon xmlns="http://www.w3.org/2000/svg" style="" points="216.92,70.949 216.92,26.599 241.222,26.599 " fill="#212e54" data-original="#27a2db" class=""/>
<g xmlns="http://www.w3.org/2000/svg">
	<rect x="228.361" y="26.423" style="" width="1.408" height="44.527" fill="#212e54" data-original="#ebf0f3" class=""/>
	<rect x="216.922" y="37.175" style="" width="24.303" height="2.116" fill="#212e54" data-original="#ebf0f3" class=""/>
</g>
<rect xmlns="http://www.w3.org/2000/svg" x="185.481" y="26.598" style="" width="24.303" height="44.352" fill="#212e54" data-original="#2d93ba" class=""/>
<polygon xmlns="http://www.w3.org/2000/svg" style="" points="185.46,70.949 185.46,26.599 209.762,26.599 " fill="#212e54" data-original="#27a2db" class=""/>
<g xmlns="http://www.w3.org/2000/svg">
	<rect x="196.915" y="26.423" style="" width="1.408" height="44.527" fill="#212e54" data-original="#ebf0f3" class=""/>
	<rect x="185.481" y="37.175" style="" width="24.303" height="2.116" fill="#212e54" data-original="#ebf0f3" class=""/>
</g>
<g xmlns="http://www.w3.org/2000/svg">
</g>
<g xmlns="http://www.w3.org/2000/svg">
</g>
<g xmlns="http://www.w3.org/2000/svg">
</g>
<g xmlns="http://www.w3.org/2000/svg">
</g>
<g xmlns="http://www.w3.org/2000/svg">
</g>
<g xmlns="http://www.w3.org/2000/svg">
</g>
<g xmlns="http://www.w3.org/2000/svg">
</g>
<g xmlns="http://www.w3.org/2000/svg">
</g>
<g xmlns="http://www.w3.org/2000/svg">
</g>
<g xmlns="http://www.w3.org/2000/svg">
</g>
<g xmlns="http://www.w3.org/2000/svg">
</g>
<g xmlns="http://www.w3.org/2000/svg">
</g>
<g xmlns="http://www.w3.org/2000/svg">
</g>
<g xmlns="http://www.w3.org/2000/svg">
</g>
<g xmlns="http://www.w3.org/2000/svg">
</g>
</g></svg>
