<?xml version="1.0"?>
<svg xmlns="http://www.w3.org/2000/svg" xmlns:xlink="http://www.w3.org/1999/xlink" xmlns:svgjs="http://svgjs.com/svgjs" version="1.1" width="512" height="512" x="0" y="0" viewBox="0 0 256 256" style="enable-background:new 0 0 512 512" xml:space="preserve" class=""><g><path xmlns="http://www.w3.org/2000/svg" d="m253 128a124.391 124.391 0 0 1 -19.29 66.74 37.02 37.02 0 1 0 -53.91 47.05 125.017 125.017 0 1 1 73.2-113.79z" fill="#d8dee9" data-original="#d8dee9" style="" class=""/><path xmlns="http://www.w3.org/2000/svg" d="m128 256a127.959 127.959 0 1 1 108.245-59.655 3 3 0 0 1 -5.225-.278 34.021 34.021 0 1 0 -49.541 43.238 3 3 0 0 1 -.434 5.215 126.9 126.9 0 0 1 -53.045 11.48zm0-250a122 122 0 1 0 45.956 235.047 40.021 40.021 0 1 1 59.813-52.2 122.033 122.033 0 0 0 -105.769-182.847z" fill="#d8dee9" data-original="#000000" style="" class=""/><circle xmlns="http://www.w3.org/2000/svg" cx="76.514" cy="159.748" fill="#a7adba" r="29.166" data-original="#a7adba" style="" class=""/><path xmlns="http://www.w3.org/2000/svg" d="m76.514 191.914a32.166 32.166 0 1 1 32.167-32.166 32.2 32.2 0 0 1 -32.167 32.166zm0-58.332a26.166 26.166 0 1 0 26.167 26.166 26.2 26.2 0 0 0 -26.167-26.166z" fill="#d8dee9" data-original="#000000" style="" class=""/><circle xmlns="http://www.w3.org/2000/svg" cx="119.983" cy="211.097" fill="#a7adba" r="9.311" data-original="#a7adba" style="" class=""/><path xmlns="http://www.w3.org/2000/svg" d="m119.982 223.408a12.311 12.311 0 1 1 12.312-12.31 12.324 12.324 0 0 1 -12.312 12.31zm0-18.622a6.311 6.311 0 1 0 6.312 6.312 6.318 6.318 0 0 0 -6.312-6.312z" fill="#d8dee9" data-original="#000000" style="" class=""/><path xmlns="http://www.w3.org/2000/svg" d="m233.71 194.74-.01.01a125.462 125.462 0 0 1 -53.9 47.04 37.02 37.02 0 1 1 53.91-47.05z" fill="#a7adba" data-original="#a7adba" style="" class=""/><path xmlns="http://www.w3.org/2000/svg" d="m179.8 244.79a3 3 0 0 1 -1.68-.515 40.019 40.019 0 1 1 58.28-50.862 3 3 0 0 1 -.232 3.048 128 128 0 0 1 -55.124 48.059 3 3 0 0 1 -1.244.27zm20.7-67.71a34.018 34.018 0 0 0 -20.383 61.255 121.971 121.971 0 0 0 50.125-43.752 33.81 33.81 0 0 0 -29.742-17.503z" fill="#d8dee9" data-original="#000000" style="" class=""/><circle xmlns="http://www.w3.org/2000/svg" cx="163.483" cy="80.876" fill="#a7adba" r="18.097" data-original="#a7adba" style="" class=""/><path xmlns="http://www.w3.org/2000/svg" d="m163.483 101.973a21.1 21.1 0 1 1 21.1-21.1 21.121 21.121 0 0 1 -21.1 21.1zm0-36.194a15.1 15.1 0 1 0 15.1 15.1 15.114 15.114 0 0 0 -15.1-15.1z" fill="#d8dee9" data-original="#000000" style="" class=""/><circle xmlns="http://www.w3.org/2000/svg" cx="105.68" cy="57.05" fill="#a7adba" r="11.891" data-original="#a7adba" style="" class=""/><path xmlns="http://www.w3.org/2000/svg" d="m105.681 71.941a14.891 14.891 0 1 1 14.89-14.891 14.909 14.909 0 0 1 -14.89 14.891zm0-23.782a8.891 8.891 0 1 0 8.89 8.891 8.9 8.9 0 0 0 -8.89-8.891z" fill="#d8dee9" data-original="#000000" style="" class=""/><circle xmlns="http://www.w3.org/2000/svg" cx="148.968" cy="33.957" r="3" fill="#d8dee9" data-original="#000000" style="" class=""/><circle xmlns="http://www.w3.org/2000/svg" cx="67.968" cy="77.957" r="3" fill="#d8dee9" data-original="#000000" style="" class=""/><circle xmlns="http://www.w3.org/2000/svg" cx="29.968" cy="107.957" r="3" fill="#d8dee9" data-original="#000000" style="" class=""/><circle xmlns="http://www.w3.org/2000/svg" cx="128.968" cy="130.957" r="3" fill="#d8dee9" data-original="#000000" style="" class=""/><circle xmlns="http://www.w3.org/2000/svg" cx="207.968" cy="80.957" r="3" fill="#d8dee9" data-original="#000000" style="" class=""/><circle xmlns="http://www.w3.org/2000/svg" cx="198.968" cy="142.957" r="3" fill="#d8dee9" data-original="#000000" style="" class=""/><circle xmlns="http://www.w3.org/2000/svg" cx="145.968" cy="185.957" r="3" fill="#d8dee9" data-original="#000000" style="" class=""/></g></svg>
