<?xml version="1.0" encoding="iso-8859-1"?>
<!-- Generator: Adobe Illustrator 19.0.0, SVG Export Plug-In . SVG Version: 6.00 Build 0)  -->
<svg version="1.1" id="Capa_1" xmlns="http://www.w3.org/2000/svg" xmlns:xlink="http://www.w3.org/1999/xlink" x="0px" y="0px"
	 viewBox="0 0 512 512" style="enable-background:new 0 0 512 512;" xml:space="preserve">
<circle style="fill:#D1D1D1;" cx="256.05" cy="256" r="255.95"/>
<path style="fill:#BABABA;" d="M20.7,256C20.7,118.094,129.77,5.682,266.35,0.274C120.418-5.505,0.099,111.133,0.099,256
	c0,144.842,120.296,261.509,266.251,255.726C129.77,506.318,20.7,393.906,20.7,256z"/>
<g>
	<circle style="fill:#EFEFEF;" cx="163.22" cy="398.34" r="40.17"/>
	<circle style="fill:#EFEFEF;" cx="169.4" cy="297.39" r="18.541"/>
	<circle style="fill:#EFEFEF;" cx="247.25" cy="127.44" r="18.541"/>
	<path style="fill:#EFEFEF;" d="M12.689,335.446c31.524,6.637,60.921-17.438,60.921-49.383c0-37.525-39.603-61.909-73.056-45.135
		C-1.322,273.191,2.773,305.052,12.689,335.446z"/>
</g>
<path style="fill:#E0E0E0;" d="M21.51,235.639c-7.516,0.24-14.617,2.11-20.957,5.289c-2.135,27.758,1.911,63.207,12.136,94.519
	c6.836,1.439,13.873,1.443,20.611,0.065C22.869,303.57,18.826,269.736,21.51,235.639z"/>
<circle style="fill:#EFEFEF;" cx="327.83" cy="222.62" r="33.381"/>
<g>
	<path style="fill:#E0E0E0;" d="M143.525,398.338c0-18.648,12.708-34.324,29.935-38.851c-3.269-0.859-6.698-1.321-10.237-1.321
		c-22.186,0-40.172,17.986-40.172,40.172c0,26.226,24.827,45.574,50.409,38.851C156.233,432.661,143.525,416.986,143.525,398.338z"
		/>
	<path style="fill:#E0E0E0;" d="M179.64,281.94c-12.252-8.133-28.778,0.647-28.778,15.453c0,14.819,16.539,23.577,28.778,15.453
		C168.568,305.497,168.579,289.283,179.64,281.94z"/>
	<path style="fill:#E0E0E0;" d="M257.484,111.983c-12.252-8.133-28.778,0.647-28.778,15.453c0,14.819,16.539,23.577,28.778,15.453
		C246.412,135.539,246.423,119.325,257.484,111.983z"/>
	<path style="fill:#E0E0E0;" d="M338.072,190.844c-21.563-6.942-43.618,9.172-43.618,31.775c0,22.615,22.062,38.715,43.618,31.775
		C307.298,244.487,307.313,200.747,338.072,190.844z"/>
</g>
<g>
	<path style="fill:#EFEFEF;" d="M242.365,329.211c-2.067,1.411-3.332,3.442-3.744,5.598c-1.745,8.539,8.875,14.094,14.846,7.945
		C260.887,335.389,251.205,323.243,242.365,329.211z"/>
	<path style="fill:#EFEFEF;" d="M303.737,121.215c-5.473,5.316-1.725,15.023,6.221,15.023c4.923,0,8.802-4.023,8.802-8.802
		C318.76,119.49,309.05,115.75,303.737,121.215z"/>
</g>
<g>
</g>
<g>
</g>
<g>
</g>
<g>
</g>
<g>
</g>
<g>
</g>
<g>
</g>
<g>
</g>
<g>
</g>
<g>
</g>
<g>
</g>
<g>
</g>
<g>
</g>
<g>
</g>
<g>
</g>
</svg>
