<?xml version="1.0"?>
<svg xmlns="http://www.w3.org/2000/svg" xmlns:xlink="http://www.w3.org/1999/xlink" xmlns:svgjs="http://svgjs.com/svgjs" version="1.1" width="512" height="512" x="0" y="0" viewBox="0 0 32 32" style="enable-background:new 0 0 512 512" xml:space="preserve" class=""><g><g xmlns="http://www.w3.org/2000/svg" id="_x32_8_owl"><g><g><path d="m9.77 27.2c-1.516-1.021-2.63-2.426-3.22-4.061l-.55-9.139v-2.001c0-2.766.507-4.705 1.597-6.104l.422-.541-2.019-3.354c.029.015 4.067 2 10 2 5.937 0 9.97-1.984 10.009-2.005l-2.027 3.359.422.541c1.089 1.399 1.596 3.338 1.596 6.105v2l-.55 9.131c-.591 1.645-1.704 3.048-3.22 4.069z" fill="#181d2d" data-original="#607d8b" style=""/><path d="m24.72 6.37c.87 1.35 1.28 3.16 1.28 5.63v2l-.55 9.13c-.59 1.65-1.7 3.05-3.22 4.07h-12.46c-1.09-.73-1.97-1.67-2.59-2.74 8.35-2.9 14.9-9.63 17.54-18.09z" fill="#181d2d" data-original="#455a64" style="" class=""/><path d="m26.01 2-.4.65c.04-.17.06-.341.09-.511.2-.079.3-.139.31-.139z" fill="#181d2d" data-original="#455a64" style="" class=""/><path d="m16 29c-.37 0-.729-.02-1.079-.05l-4.921-1.86v-3.09c0-3.309 2.691-6 6-6s6 2.691 6 6v3.09l-4.92 1.86c-.351.03-.71.05-1.08.05z" fill="#181d2d" data-original="#bdbdbd" style="" class=""/><path d="m22 24v3.09l-4.92 1.86c-.35.03-.71.05-1.08.05s-.73-.02-1.08-.05l-4.92-1.86v-3.09c0-.24.01-.48.05-.72 2.72-1.3 5.2-3.03 7.351-5.11 2.639.63 4.599 3 4.599 5.83z" fill="#181d2d" data-original="#9e9e9e" style="" class=""/><path d="m13 11 3-2 3 2-3 3z" fill="#181d2d" data-original="#ff9800" style="" class=""/><circle cx="12" cy="9" fill="#181d2d" r="3" data-original="#e0e0e0" style="" class=""/><circle cx="20" cy="9" fill="#181d2d" r="3" data-original="#e0e0e0" style="" class=""/><path d="m23.41 9.76c-.12.57-.38 1.08-.74 1.5.26-.49.51-.99.74-1.5z" fill="#181d2d" data-original="#bdbdbd" style="" class=""/><path d="m5 26c-.143-.096-3-2.06-3-6 0-3.96 3.836-5.918 3.999-6 .04.079 1.001 2.066 1.001 6 0 3.936-1.914 5.913-2 6z" fill="#181d2d" data-original="#bdbdbd" style="" class=""/><path d="m5.79 24.89c-.4.71-.76 1.08-.79 1.11-.05-.03-.38-.26-.81-.69.54-.12 1.07-.26 1.6-.42z" fill="#181d2d" data-original="#9e9e9e" style="" class=""/><path d="m27 26c-.09-.091-2-2.068-2-6 0-3.934.961-5.921 1.002-6.004.161.086 3.998 2.049 3.998 6.004 0 3.953-2.875 5.917-3 6z" fill="#181d2d" data-original="#9e9e9e" style="" class=""/><circle cx="10.5" cy="28.5" fill="#181d2d" r="1.5" data-original="#f57c00" style="" class=""/><circle cx="21.5" cy="28.5" fill="#181d2d" r="1.5" data-original="#f57c00" style="" class=""/><g fill="#ff9800"><circle cx="13.5" cy="28.5" r="1.5" fill="#181d2d" data-original="#ff9800" style="" class=""/><circle cx="18.5" cy="28.5" r="1.5" fill="#181d2d" data-original="#ff9800" style="" class=""/></g></g><g><circle cx="12" cy="9" r="1" fill="#181d2d" data-original="#000000" style="" class=""/><path d="m20 5c-2.206 0-4 1.794-4 4 0 .997.38 1.899.985 2.601l-.985.985-.985-.985c.605-.702.985-1.604.985-2.601 0-2.206-1.794-4-4-4s-4 1.794-4 4 1.794 4 4 4c.472 0 .918-.097 1.339-.247l1.954 1.954c.187.188.442.293.707.293s.52-.105.707-.293l1.954-1.954c.421.15.867.247 1.339.247 2.206 0 4-1.794 4-4s-1.794-4-4-4zm-8 6c-1.103 0-2-.897-2-2s.897-2 2-2 2 .897 2 2-.897 2-2 2zm8 0c-1.103 0-2-.897-2-2s.897-2 2-2 2 .897 2 2-.897 2-2 2z" fill="#181d2d" data-original="#000000" style="" class=""/><circle cx="20" cy="9" r="1" fill="#181d2d" data-original="#000000" style="" class=""/><path d="m27 13.426v-1.426c0-2.979-.577-5.14-1.808-6.719l1.664-2.766c.229-.381.18-.868-.122-1.194-.303-.327-.783-.414-1.182-.216-.037.02-3.854 1.895-9.552 1.895-5.666 0-9.516-1.876-9.554-1.896-.398-.198-.879-.107-1.18.218-.302.327-.352.813-.123 1.194l1.665 2.766c-1.23 1.578-1.808 3.739-1.808 6.718v1.426c-1.215.768-4 2.925-4 6.574 0 4.483 3.305 6.738 3.445 6.832.17.113.363.168.555.168.258 0 .514-.1.708-.293.04-.039.455-.484.92-1.285.468.697 1.027 1.335 1.684 1.896-.193.354-.312.752-.312 1.182 0 1.379 1.122 2.5 2.5 2.5.565 0 1.081-.195 1.5-.513.419.318.935.513 1.5.513.824 0 1.55-.406 2.006-1.022.165.006.325.022.494.022s.329-.016.494-.022c.455.616 1.182 1.022 2.006 1.022.565 0 1.081-.195 1.5-.513.419.318.935.513 1.5.513 1.379 0 2.5-1.121 2.5-2.5 0-.43-.119-.828-.311-1.182.656-.562 1.215-1.199 1.684-1.896.465.801.881 1.246.92 1.285.193.193.449.293.707.293.192 0 .386-.055.555-.168.14-.094 3.445-2.349 3.445-6.832 0-3.649-2.785-5.806-4-6.574zm-22.158 11.115c-.756-.782-1.842-2.297-1.842-4.541 0-2.165 1.455-3.672 2.475-4.462.246.918.525 2.409.525 4.462 0 2.209-.658 3.715-1.158 4.541zm5.658 4.459c-.276 0-.5-.225-.5-.5s.224-.5.5-.5.5.225.5.5-.224.5-.5.5zm3 0c-.276 0-.5-.225-.5-.5s.224-.5.5-.5.5.225.5.5-.224.5-.5.5zm5 0c-.275 0-.5-.225-.5-.5s.225-.5.5-.5.5.225.5.5-.225.5-.5.5zm0-3c-1.205 0-2.213.856-2.448 1.993-.035 0-.069 0-.104 0-.235-1.137-1.243-1.993-2.448-1.993-.565 0-1.081.195-1.5.513-.292-.221-.628-.387-1-.462v-2.051c0-2.757 2.243-5 5-5s5 2.243 5 5v2.051c-.372.075-.708.24-1 .462-.419-.318-.935-.513-1.5-.513zm3 3c-.275 0-.5-.225-.5-.5s.225-.5.5-.5.5.225.5.5-.225.5-.5.5zm3.5-15.204c-.272.655-1 2.72-1 6.204 0 1.173.164 2.18.398 3.046-.324.8-.8 1.525-1.398 2.168v-1.214c0-3.859-3.141-7-7-7-3.86 0-7 3.141-7 7v1.213c-.599-.643-1.073-1.369-1.398-2.168.234-.866.398-1.873.398-3.045 0-3.484-.728-5.55-1-6.204v-1.796c0-2.812.557-4.689 1.754-5.91.319-.325.378-.825.143-1.216l-.574-.954c1.829.536 4.476 1.08 7.677 1.08s5.848-.544 7.678-1.08l-.574.954c-.235.391-.177.891.143 1.216 1.195 1.221 1.753 3.098 1.753 5.91zm2.159 10.747c-.501-.826-1.159-2.333-1.159-4.543 0-2.054.279-3.545.525-4.462 1.02.791 2.475 2.298 2.475 4.462 0 2.25-1.083 3.761-1.841 4.543z" fill="#181d2d" data-original="#000000" style="" class=""/></g></g></g></g></svg>
