<?xml version="1.0"?>
<svg xmlns="http://www.w3.org/2000/svg" xmlns:xlink="http://www.w3.org/1999/xlink" xmlns:svgjs="http://svgjs.com/svgjs" version="1.1" width="512" height="512" x="0" y="0" viewBox="0 0 52 52" style="enable-background:new 0 0 512 512" xml:space="preserve" class=""><g><g xmlns="http://www.w3.org/2000/svg"><g><g><g><path d="m29.052 34.854h5.916v15.144h-5.916z" fill="#091217" data-original="#ba8559" style="" class=""/></g><g opacity=".05"><path d="m34.96874 34.85645v15.13907h-5.91961v-2.70985h.41996c1.72987 0 3.1198-1.38993 3.1198-3.1198v-9.30941h2.37985z" fill="#091217" data-original="#000000" style="" class=""/></g><g><g><path d="m45.55988 40.52003h-27.10659c-.75991 0-1.04986-1.13104-.41993-1.6173 2.93963-2.2726 5.45928-4.85178 7.53903-7.72696h-6.57919c-.72989 0-1.01983-1.07813-.40992-1.55382 3.30958-2.5686 6.06925-5.51778 8.24897-8.85799h-5.32935c-.68991 0-.95984-1.01478-.38997-1.4693 5.58933-4.40784 9.21888-10.17929 10.89866-17.29314 1.67978 7.11385 5.30933 12.88531 10.89866 17.29314.56988.45452.29995 1.4693-.38997 1.4693l-5.32935-.01058c2.17972 3.34022 4.93938 6.29998 8.24897 8.86857.59996.47568.31997 1.55382-.40992 1.55382l-6.5892-.01058c2.08977 2.87518 4.60941 5.45436 7.54904 7.73754.62992.48627.32997 1.6173-.42994 1.6173z" fill="#091217" data-original="#52cc89" style="" class=""/></g></g><g opacity=".05"><g><path d="m45.55811 40.51606h-27.10836c-.7599 0-1.04992-1.12987-.41996-1.60989.47995-.36997.94995-.74995 1.39994-1.13994h19.21877c.75996 0 1.05993-1.12987.42997-1.60989-2.04986-1.59987-3.88971-3.32975-5.52962-5.20963-.85993-.98999-.17998-2.52987 1.12994-2.52987l3.43979.01001c.72993 0 1.00994-1.07995.40995-1.54989-2.48983-1.92987-4.65968-4.07976-6.50961-6.44961-.76991-.97992-.03997-2.41983 1.20995-2.40988h2.37986c.68996 0 .95996-1.0199.38999-1.46988-2.42984-1.90985-4.47976-4.07976-6.15965-6.49959-.30998-.43997-.33994-1.00995-.10998-1.49991.96991-2.03985 1.72987-4.21971 2.27983-6.54958 1.67995 7.11955 5.30973 12.88921 10.89934 17.29891.56997.44998.29997 1.46988-.38999 1.46988l-5.32962-.00995c2.17986 3.33976 4.93969 6.29959 8.24949 8.86944.59994.46994.31992 1.54989-.41001 1.54989l-6.58955-.01001c2.08984 2.86982 4.6097 5.44967 7.54952 7.73951.62994.48001.32997 1.60988-.42999 1.60988z" fill="#091217" data-original="#000000" style="" class=""/></g></g></g></g><g><g><g><g><path d="m16.247 35.243h5.507v14.755h-5.507z" fill="#091217" data-original="#c48c5e" style="" class=""/></g><g opacity=".05"><path d="m21.75456 35.24522v14.7505h-5.5106v-2.52262h.39094c1.61035 0 2.90424-1.29389 2.90424-2.90424v-9.32364z" fill="#091217" data-original="#000000" style="" class=""/></g><g><g><path d="m31.6139 40.51749h-25.23367c-.70741 0-.97732-1.05289-.39092-1.50555 2.73652-2.11557 5.08207-4.51654 7.01813-7.19307h-6.1246c-.67946 0-.94937-1.00364-.3816-1.44646 3.08091-2.39112 5.6499-5.13653 7.67901-8.24595h-4.96112c-.64225 0-.89352-.94466-.36302-1.36778 5.20314-4.10328 8.5819-9.47596 10.14562-16.09828 1.56372 6.62232 4.94249 11.995 10.14562 16.09828.5305.42311.27923 1.36778-.36302 1.36778l-4.96112-.00985c2.02911 3.10942 4.5981 5.86468 7.67901 8.2558.55851.44281.29786 1.44646-.3816 1.44646l-6.13392-.00985c1.94537 2.67652 4.29092 5.07749 7.02744 7.20292.5864.45266.30717 1.50555-.40024 1.50555z" fill="#091217" data-original="#51d690" style="" class=""/></g></g><g opacity=".05"><g><path d="m31.61226 40.51379h-25.23532c-.7074 0-.97738-1.0518-.39094-1.49865.44679-.34441.88432-.69814 1.30321-1.06118h17.89086c.70745 0 .9867-1.0518.40026-1.49865-1.90822-1.48933-3.62095-3.09968-5.14756-4.84968-.80051-.92159-.16755-2.35507 1.05186-2.35507l3.20212.00932c.6795 0 .94016-1.00533.38162-1.4428-2.3178-1.79653-4.33772-3.79787-6.05983-6.00398-.71671-.91221-.03721-2.25263 1.12635-2.24337h2.21542c.64229 0 .89363-.94943.36304-1.36832-2.26195-1.77789-4.17023-3.79787-5.73405-6.05051-.28856-.40957-.31646-.94016-.10238-1.39627.90289-1.89891 1.61035-3.92815 2.1223-6.09704 1.56387 6.62763 4.94285 11.99864 10.14626 16.10365.53059.41889.27924 1.36832-.36304 1.36832l-4.96138-.00926c2.02924 3.109 4.59839 5.86433 7.67949 8.25661.55849.43747.29782 1.4428-.38168 1.4428l-6.13425-.00932c1.94544 2.67153 4.29119 5.07313 7.02789 7.20475.58644.44685.3072 1.49865-.40025 1.49865z" fill="#091217" data-original="#000000" style="" class=""/></g></g></g></g><path d="m46.60329 38.1133c-2.30566-1.79102-4.35938-3.78467-6.12598-5.94482l4.55273.00732c1.68001 0 2.37458-2.27176 1.02344-3.34375-2.69727-2.09326-5.02832-4.46729-6.94922-7.07471l3.41602.00684c.71777 0 1.34277-.45801 1.59082-1.16699.26563-.75977.0332-1.59766-.58203-2.08789-5.375-4.23926-8.92285-9.87061-10.54395-16.73779-.10742-.45117-.50977-.77002-.97363-.77002s-.86621.31885-.97363.77002c-1.16388 4.9306-3.34668 9.2052-6.46613 12.80182-2.15063-2.95587-3.69897-6.34039-4.59637-10.14313-.10742-.45117-.50977-.77002-.97363-.77002s-.86621.31885-.97363.77002c-1.50488 6.37695-4.7998 11.60645-9.79492 15.54688-1.26373 1.00723-.61052 3.14941.98633 3.14941h3.04492c-1.76465 2.37061-3.90332 4.53711-6.37891 6.45801-1.31065 1.02218-.64174 3.23437.99707 3.23437h4.08984c-1.61719 1.96533-3.49316 3.77686-5.59473 5.40137-1.33554 1.03239-.66626 3.29736 1.00293 3.29736h8.86621v8.48096c0 .55225.44727 1 1 1h5.50684c.55273 0 1-.44775 1-1v-8.48096c.10269.00005 5.6464.0026 5.29883.00244v8.47852c0 .55225.44727 1 1 1h5.91504c.55273 0 1-.44775 1-1v-8.47852h9.59277c1.7231-.00001 2.41801-2.34517 1.04297-3.40674zm-32.78515-5.7085c.21973-.3042.25098-.70605.08008-1.04101-.1709-.33447-.51465-.54492-.89063-.54492h-5.45703c2.98535-2.38672 5.49609-5.125 7.46777-8.146.43239-.66335-.04521-1.54639-.83789-1.54639h-4.18652c4.18652-3.44873 7.20605-7.77637 9.00781-12.90332 1.80176 5.12793 4.82129 9.45508 9.00586 12.90186l-4.18262-.0083c-.00098 0-.00098 0-.00195 0-.7943 0-1.26964.88297-.83789 1.54639 1.98047 3.03467 4.49316 5.77783 7.46582 8.15479l-5.46191-.00879c-.37988.02637-.72168.20947-.89258.54541-.1709.33496-.13965.73828.08203 1.04248 1.90137 2.6167 4.20801 5.00977 6.86133 7.12061h-24.07422c2.65332-2.10256 4.95703-4.49367 6.85254-7.11281zm6.93554 16.59375h-3.50684v-7.48096h3.50684zm13.21387 0h-3.91504v-7.47852h3.91504zm-.6626-9.47852c-.04456-.50659-.26868-.98279-.67725-1.29834-2.09961-1.63037-3.97656-3.44434-5.59863-5.40918l4.0918.00635c1.63145 0 2.30383-2.19854.99414-3.23633-2.4668-1.91504-4.60449-4.08301-6.37305-6.46191l3.04199.00586c1.59397 0 2.25375-2.1389.98242-3.15283-1.45898-1.15082-2.75488-2.42511-3.92163-3.79321 2.7207-3.05988 4.79309-6.58942 6.16675-10.57788 1.94531 5.64941 5.26074 10.40088 9.88379 14.16016l-4.70215-.00928c-.00098 0-.00098 0-.00195 0-.7943 0-1.26964.88297-.83789 1.54639 2.1582 3.30713 4.90625 6.2915 8.1709 8.875l-6.08105-.00977c-.00098 0-.00098 0-.00195 0-.81806 0-1.28746.92971-.80859 1.58789 2.0918 2.87939 4.64355 5.50928 7.54297 7.76709h-11.87062z" fill="#091217" data-original="#293c66" style="" class=""/></g></g></g></svg>
