<?xml version="1.0" encoding="UTF-8" standalone="no"?>
<svg
   xmlns:dc="http://purl.org/dc/elements/1.1/"
   xmlns:cc="http://creativecommons.org/ns#"
   xmlns:rdf="http://www.w3.org/1999/02/22-rdf-syntax-ns#"
   xmlns:svg="http://www.w3.org/2000/svg"
   xmlns="http://www.w3.org/2000/svg"
   xmlns:sodipodi="http://sodipodi.sourceforge.net/DTD/sodipodi-0.dtd"
   xmlns:inkscape="http://www.inkscape.org/namespaces/inkscape"
   version="1.1"
   width="512"
   height="512"
   x="0"
   y="0"
   viewBox="0 0 512 512"
   style="enable-background:new 0 0 512 512"
   xml:space="preserve"
   class=""
   id="svg146"
   sodipodi:docname="satellite-dish2.svg"
   inkscape:version="1.0.2 (e86c8708, 2021-01-15)"><metadata
     id="metadata152"><rdf:RDF><cc:Work
         rdf:about=""><dc:format>image/svg+xml</dc:format><dc:type
           rdf:resource="http://purl.org/dc/dcmitype/StillImage" /><dc:title></dc:title></cc:Work></rdf:RDF></metadata><defs
     id="defs150" /><sodipodi:namedview
     pagecolor="#ffffff"
     bordercolor="#666666"
     borderopacity="1"
     objecttolerance="10"
     gridtolerance="10"
     guidetolerance="10"
     inkscape:pageopacity="0"
     inkscape:pageshadow="2"
     inkscape:window-width="1792"
     inkscape:window-height="994"
     id="namedview148"
     showgrid="false"
     inkscape:zoom="1.4355469"
     inkscape:cx="256"
     inkscape:cy="256"
     inkscape:window-x="0"
     inkscape:window-y="25"
     inkscape:window-maximized="0"
     inkscape:current-layer="svg146"
     inkscape:document-rotation="0" /><g
     id="g144"
     transform="translate(-61.997278,55.72789)"><g
       id="g142"><path
         d="m 167.288,292.445 c -3.727,7.688 -5.833,16.308 -5.833,25.427 0,24.919 15.604,46.176 37.566,54.585 9.429,-2.954 17.807,-8.283 24.425,-15.299 v -12.733 z"
         fill="#181d2d"
         data-original="#4a80aa"
         class=""
         id="path100" /><path
         d="m 162.437,318.072 c 0,-8.908 2.06,-17.328 5.707,-24.835 l -17.951,-16.616 h -7.284 c -11.015,10.391 -17.901,25.112 -17.901,41.45 0,31.474 25.514,56.988 56.988,56.988 6.556,0 12.843,-1.125 18.703,-3.164 -22.272,-7.748 -38.262,-28.912 -38.262,-53.823 z"
         fill="#181d2d"
         data-original="#407093"
         class=""
         id="path102" /><path
         d="m 493.303,6.763 c -9.018,-9.018 -23.639,-9.018 -32.656,0 L 438.61,28.8 v 2.793 l 27.505,28.673 5.151,1.19 22.036,-22.037 c 9.019,-9.017 9.019,-23.638 10e-4,-32.656 z"
         fill="#181d2d"
         data-original="#ffd086"
         class=""
         id="path104" /><path
         d="m 499.395,17.663 c -0.962,-3.992 -2.976,-7.783 -6.092,-10.9 -9.018,-9.018 -23.639,-9.018 -32.656,0 L 438.61,28.8 v 2.793 l 14.583,15.202 c 8.694,-9.047 17.326,-17.975 21.765,-22.414 7.4,-7.399 18.208,-7.456 24.437,-6.718 z"
         fill="#181d2d"
         data-original="#ffc365"
         class=""
         id="path106" /><g
         id="g110"><path
           d="m 417.858,65.465 c -0.253,0 -0.509,-0.013 -0.766,-0.038 L 162.434,40.361 c -4.247,-0.418 -7.35,-4.199 -6.932,-8.446 0.418,-4.247 4.201,-7.348 8.446,-6.933 l 254.658,25.065 c 4.246,0.418 7.35,4.199 6.932,8.446 -0.393,3.991 -3.754,6.972 -7.68,6.972 z"
           fill="#181d2d"
           data-original="#365e7d"
           class=""
           id="path108" /></g><g
         id="g114"><path
           d="m 236.087,113.138 c -3.427,0 -6.558,-2.298 -7.468,-5.768 -1.083,-4.128 1.386,-8.352 5.513,-9.435 L 415.893,50.26 c 4.127,-1.081 8.352,1.386 9.434,5.514 1.083,4.127 -1.385,8.351 -5.513,9.434 l -181.761,47.675 c -0.658,0.172 -1.318,0.255 -1.966,0.255 z"
           fill="#181d2d"
           data-original="#407093"
           class=""
           id="path112" /></g><g
         id="g118"><path
           d="m 467.222,344.767 c -3.929,0 -7.29,-2.984 -7.681,-6.976 L 434.631,82.977 c -0.415,-4.246 2.691,-8.026 6.938,-8.442 4.247,-0.396 8.026,2.692 8.441,6.939 l 24.91,254.814 c 0.415,4.246 -2.691,8.026 -6.938,8.442 -0.255,0.024 -0.509,0.037 -0.76,0.037 z"
           fill="#181d2d"
           data-original="#365e7d"
           class=""
           id="path116" /></g><g
         id="g122"><path
           d="m 393.925,272.44 c -0.655,0 -1.321,-0.085 -1.985,-0.26 -4.125,-1.094 -6.582,-5.324 -5.488,-9.449 L 434.829,80.268 c 1.093,-4.126 5.322,-6.579 9.448,-5.489 4.125,1.094 6.582,5.324 5.488,9.449 l -48.377,182.463 c -0.917,3.462 -4.044,5.749 -7.463,5.749 z"
           fill="#181d2d"
           data-original="#407093"
           class=""
           id="path120" /></g><path
         d="m 428.265,33.085 h 31.249 v 46.183 h -31.249 z"
         fill="#181d2d"
         transform="matrix(0.707,-0.707,0.707,0.707,90.29,330.331)"
         data-original="#ffc365"
         class=""
         id="path124" /><path
         d="m 433.243,67.626 c 5.31,-5.56 13.602,-14.232 21.622,-22.57 L 438.61,28.8 416.513,50.896 Z"
         fill="#181d2d"
         data-original="#ffa90f"
         class=""
         id="path126" /><g
         id="g130"><path
           d="m 454.088,96.197 c -1.977,0 -3.955,-0.755 -5.463,-2.263 L 406.132,51.442 c -3.018,-3.018 -3.018,-7.909 0,-10.928 3.017,-3.016 7.909,-3.016 10.927,0 l 42.493,42.492 c 3.018,3.018 3.018,7.909 0,10.928 -1.509,1.509 -3.486,2.263 -5.464,2.263 z"
           fill="#181d2d"
           data-original="#4a80aa"
           class=""
           id="path128" /></g><path
         d="M 459.076,358.676 200.363,97.719 c -34.3,77.434 -40.256,160.559 -14.578,232.24 70.916,63.97 176.851,73.793 274.375,33.581 z"
         fill="#181d2d"
         data-original="#b5dcff"
         class=""
         id="path132" /><g
         id="g136"><path
           d="m 201.741,99.109 -59.275,-59.789 -5.94,0.586 c -41.762,101.283 -29.568,211.646 41.21,282.424 4.287,4.287 8.723,8.355 13.29,12.214 -29.836,-71.596 -24.987,-156.75 10.715,-235.435 z"
           fill="#181d2d"
           data-original="#8bcaff"
           class=""
           id="path134" /></g><path
         d="M 482.718,340.127 220.328,77.737 c -2.582,0.398 -5.068,1.572 -7.056,3.56 l -11.413,11.414 c -2.451,2.451 -3.67,5.652 -3.705,8.865 l 261.558,261.557 c 3.889,3.889 10.194,3.889 14.083,0 l 8.924,-8.923 c 3.888,-3.888 3.888,-10.194 -10e-4,-14.083 z"
         fill="#181d2d"
         data-original="#dbedff"
         class=""
         id="path138" /><path
         d="m 202.253,92.907 11.175,-11.175 c 2.058,-2.058 4.657,-3.236 7.339,-3.555 L 159.939,17.349 c -3.889,-3.889 -10.194,-3.889 -14.084,0 l -8.924,8.924 c -3.889,3.889 -3.889,10.194 0,14.083 l 61.683,61.683 c -0.081,-3.296 1.124,-6.617 3.639,-9.132 z"
         fill="#181d2d"
         data-original="#b5dcff"
         class=""
         id="path140" /></g></g></svg>
