<?xml version="1.0" encoding="UTF-8" standalone="no"?>
<svg
   xmlns:dc="http://purl.org/dc/elements/1.1/"
   xmlns:cc="http://creativecommons.org/ns#"
   xmlns:rdf="http://www.w3.org/1999/02/22-rdf-syntax-ns#"
   xmlns:svg="http://www.w3.org/2000/svg"
   xmlns="http://www.w3.org/2000/svg"
   xmlns:sodipodi="http://sodipodi.sourceforge.net/DTD/sodipodi-0.dtd"
   xmlns:inkscape="http://www.inkscape.org/namespaces/inkscape"
   version="1.1"
   width="512"
   height="512"
   x="0"
   y="0"
   viewBox="0 0 512 512"
   style="enable-background:new 0 0 512 512"
   xml:space="preserve"
   class=""
   id="svg64"
   sodipodi:docname="satellite-base.svg"
   inkscape:version="1.0.2 (e86c8708, 2021-01-15)"><metadata
     id="metadata70"><rdf:RDF><cc:Work
         rdf:about=""><dc:format>image/svg+xml</dc:format><dc:type
           rdf:resource="http://purl.org/dc/dcmitype/StillImage" /><dc:title></dc:title></cc:Work></rdf:RDF></metadata><defs
     id="defs68" /><sodipodi:namedview
     pagecolor="#ffffff"
     bordercolor="#666666"
     borderopacity="1"
     objecttolerance="10"
     gridtolerance="10"
     guidetolerance="10"
     inkscape:pageopacity="0"
     inkscape:pageshadow="2"
     inkscape:window-width="1792"
     inkscape:window-height="994"
     id="namedview66"
     showgrid="false"
     inkscape:zoom="1.4162153"
     inkscape:cx="265.72662"
     inkscape:cy="253.28795"
     inkscape:window-x="0"
     inkscape:window-y="25"
     inkscape:window-maximized="0"
     inkscape:current-layer="svg64"
     inkscape:document-rotation="0" /><g
     id="g62"><g
       id="g60"><path
         d="m184.017 370.523-13.81-6.611-82.042 121.305h91.56l8.823-5.753v-104.789z"
         fill="#181d2d"
         data-original="#407093"
         style=""
         class=""
         id="path10" /><path
         d="m171.456 364.51-31.05-14.865h-5.852l-87.799 129.819 5.227 5.753h37.837z"
         fill="#181d2d"
         data-original="#365e7d"
         style=""
         class=""
         id="path12" /><path
         d="m205.031 479.464h-121.07c-5.5 0-9.959 4.458-9.959 9.959v12.62c0 5.499 4.458 9.957 9.957 9.958h121.072c5.5 0 9.959-4.458 9.959-9.958v-12.62c0-5.501-4.459-9.959-9.959-9.959z"
         fill="#181d2d"
         data-original="#4a80aa"
         style=""
         class=""
         id="path14" /><path
         d="m76.063 502.042v-12.62c0-5.5 4.459-9.959 9.959-9.959h-64.13c-5.5 0-9.959 4.458-9.959 9.959v12.62c0 5.5 4.459 9.958 9.959 9.958h64.129c-5.5 0-9.958-4.458-9.958-9.958z"
         fill="#181d2d"
         data-original="#407093"
         style=""
         class=""
         id="path16" /><g
         id="g28" /><g
         id="g32" /><g
         id="g36" /><g
         id="g40" /><g
         id="g48" /><g
         id="g54" /></g></g></svg>
