<?xml version="1.0"?>
<svg xmlns="http://www.w3.org/2000/svg" xmlns:xlink="http://www.w3.org/1999/xlink" xmlns:svgjs="http://svgjs.com/svgjs" version="1.1" width="512" height="512" x="0" y="0" viewBox="0 0 512.001 512.001" style="enable-background:new 0 0 512 512" xml:space="preserve"><g><path xmlns="http://www.w3.org/2000/svg" d="m400.652 289.236c-6.783 0-13.547.616-20.202 1.837l-35.073-35.073 162.23-162.228c2.813-2.813 4.394-6.628 4.394-10.606 0-3.979-1.581-7.794-4.394-10.606l-68.166-68.166c-5.857-5.858-15.355-5.858-21.213 0l-68.145 68.145c-.007.007-.015.013-.022.02s-.013.015-.02.021l-94.041 94.041-35.072-35.072c6.542-35.789-4.852-73.015-30.77-98.934-21.032-21.033-48.996-32.615-78.742-32.615-16.556 0-33.168 3.755-48.042 10.86-4.394 2.099-7.496 6.199-8.319 10.999-.823 4.799.734 9.699 4.178 13.143l53.663 53.663-24.23 24.23-53.666-53.663c-3.444-3.443-8.342-4.997-13.143-4.178-4.799.824-8.9 3.926-10.999 8.32-20.304 42.519-11.559 93.469 21.759 126.783 21.026 21.027 48.989 32.607 78.738 32.607 6.781 0 13.543-.615 20.194-1.835l35.071 35.069-116.785 116.784c-1.437 1.437-2.566 3.149-3.321 5.036l-45.441 113.612c-2.228 5.571-.922 11.935 3.321 16.177 2.868 2.868 6.704 4.393 10.609 4.393 1.873 0 3.763-.351 5.568-1.073l113.607-45.445c1.886-.754 3.599-1.884 5.035-3.32l116.786-116.784 35.075 35.074c-6.545 35.787 4.845 73.011 30.762 98.932 21.036 21.032 49.001 32.616 78.747 32.616 16.555 0 33.168-3.756 48.042-10.86 4.394-2.099 7.496-6.199 8.319-10.999s-.734-9.7-4.178-13.142l-53.665-53.663 24.23-24.229 53.661 53.664c3.443 3.442 8.342 4.998 13.143 4.178 4.799-.823 8.9-3.925 10.999-8.318 20.311-42.517 11.568-93.469-21.754-126.787-21.022-21.029-48.982-32.608-78.728-32.608zm28.183-253.023 46.953 46.951-46.952 46.952-46.953-46.951zm-68.166 68.165 46.953 46.951-83.458 83.457-46.952-46.952zm-294.748 305.704 35.996 35.994-59.991 23.998zm62.687 20.26-46.954-46.952 106.178-106.178 46.955 46.952zm352.256-16.132-46.922-46.926c-2.813-2.814-6.628-4.394-10.607-4.394-3.978 0-7.793 1.58-10.606 4.394l-45.443 45.443c-2.814 2.813-4.394 6.628-4.394 10.606 0 3.979 1.581 7.794 4.394 10.606l46.911 46.909c-4.495.761-9.055 1.149-13.61 1.149-21.733 0-42.166-8.464-57.534-23.829-20.466-20.47-28.532-50.599-21.048-78.629 1.381-5.173-.1-10.69-3.886-14.476l-171.186-171.175c-2.85-2.851-6.68-4.394-10.607-4.394-1.289 0-2.588.166-3.866.507-6.873 1.834-13.973 2.764-21.105 2.764-21.736 0-42.165-8.459-57.525-23.821-18.919-18.916-26.995-45.611-22.695-71.151l46.924 46.922c5.858 5.857 15.355 5.857 21.213 0l45.443-45.443c5.858-5.857 5.858-15.355 0-21.213l-46.91-46.91c4.495-.761 9.055-1.149 13.611-1.149 21.732 0 42.163 8.462 57.528 23.827 20.469 20.471 28.538 50.601 21.057 78.634-1.38 5.172.101 10.689 3.886 14.474l171.178 171.18c3.786 3.786 9.302 5.27 14.475 3.886 6.874-1.835 13.977-2.765 21.111-2.765 21.732 0 42.159 8.458 57.518 23.819 18.921 18.918 26.997 45.615 22.695 71.155z" fill="#ffffff" data-original="#000000" style=""/></g></svg>
