<?xml version="1.0"?>
<svg xmlns="http://www.w3.org/2000/svg" xmlns:xlink="http://www.w3.org/1999/xlink" xmlns:svgjs="http://svgjs.com/svgjs" version="1.1" width="512" height="512" x="0" y="0" viewBox="0 0 340 340" style="enable-background:new 0 0 512 512" xml:space="preserve" class=""><g><path xmlns="http://www.w3.org/2000/svg" d="m298.658 54a103.989 103.989 0 0 1 22.159 18.641 12.32 12.32 0 0 1 3.144 8.407l-1.846 105.238q-.154 8.775.533 17.533l5.146 65.526a13.056 13.056 0 0 1 -6.221 12.243c-3.938 2.361-10.09 4.406-19.586 4.406l-7.074-13.53s-9.987-157.707 3.745-218.464z" fill="#181d2d" data-original="#3f536b" style="" class=""/><path xmlns="http://www.w3.org/2000/svg" d="m188.708 94a32.7 32.7 0 0 1 15.21 2.5 22.328 22.328 0 0 1 13.225 19.523l3.137 70.53q.151 3.431.635 6.835l4.725 33.31 2.132 46.907a10.306 10.306 0 0 1 -7.073 10.3c-3.586 1.156-8.8 2.092-16.289 2.092h-8.41z" fill="#181d2d" data-original="#3f536b" style="" class=""/><path xmlns="http://www.w3.org/2000/svg" d="m92.706 286h9.334a9.427 9.427 0 0 0 9.411-9.962l-5.694-100.041a36.74 36.74 0 0 0 -3.163-12.957l-5.325-11.86a36.732 36.732 0 0 1 -2.987-10.892l-3.806-33.461a12.327 12.327 0 0 0 -12.248-10.936h-13.68z" fill="#181d2d" data-original="#3f536b" style="" class=""/><path xmlns="http://www.w3.org/2000/svg" d="m31.13 95.891 37.637.929 2.963 8.771 7.814 46.219a26.957 26.957 0 0 0 2.956 8.49l2.07 3.765a26.948 26.948 0 0 1 3.306 11.8l4.83 110.135h-67.15a10.48 10.48 0 0 1 -10.484-10.269c-.315-15.659-1.074-47.635-2.616-84.784a373.658 373.658 0 0 1 6.57-85.1 12.336 12.336 0 0 1 12.104-9.956z" fill="#181d2d" data-original="#8294af" style="" class=""/><path xmlns="http://www.w3.org/2000/svg" d="m142.575 103.55s26.072-8.51 46.133-5.28c12.72 2.047 11.05 17.064 11.05 17.064l-1.621 76.524a54.455 54.455 0 0 0 1.217 12.66l3.826 17.695a54.415 54.415 0 0 1 1.23 11.507v45.853a6.424 6.424 0 0 1 -6.424 6.427h-54.653a9.02 9.02 0 0 1 -9.02-9.021v-45.842a38.906 38.906 0 0 0 -1.6-11.047 38.873 38.873 0 0 1 -1.6-11.048v-31.564a36.141 36.141 0 0 0 -1.08-8.774l-2.533-10.104 4.807-20.828 1.458-22.46a13.44 13.44 0 0 1 8.81-11.762z" fill="#181d2d" data-original="#8294af" style="" class=""/><path xmlns="http://www.w3.org/2000/svg" d="m278.22 56.408 20.438-2.408-2.081 156.462 5.41 60.338v15.2h-24.5a10.614 10.614 0 0 1 -10.61-10.869l2.235-92.959-2.181-77.112a170.926 170.926 0 0 1 .822-22.26l1.8-17.593a9.868 9.868 0 0 1 8.667-8.799z" fill="#181d2d" data-original="#8294af" style="" class=""/><g xmlns="http://www.w3.org/2000/svg" fill="#3f536b"><path d="m131.108 177.478v31.564a38.873 38.873 0 0 0 1.6 11.048 38.906 38.906 0 0 1 1.6 11.047v11.512l3.443-11.061a16.656 16.656 0 0 0 .64-6.884l-1.432-12.277a35.189 35.189 0 0 1 -.237-4.4c.053-6.187.243-23.488.732-28.621a69.273 69.273 0 0 0 .26-7.191 27.639 27.639 0 0 1 2.5-11.858l8.085-17.641a1.525 1.525 0 0 0 -2.443-1.736l-18.356 17.62 2.525 10.1a36.155 36.155 0 0 1 1.083 8.778z" fill="#181d2d" data-original="#3f536b" style="" class=""/><path d="m204.41 268.857-13.444-17.667c-.343-.451-.7-.892-1.061-1.325-4.189-6.177-7.833-8.453-7.918-15.888 0-3.106.849-10.583 2.582-13.16l5.623-9.967a29.054 29.054 0 0 0 3.109-6.05l4.833-12.943 1.856-21.857s-7.845 17.507-11.439 30.433a25.715 25.715 0 0 1 -2.318 5.692l-8.205 14.641c-1.946 3.473-2.222 12.719-1.4 18.842l-4.879-2.841a20.237 20.237 0 0 1 -6.153-4.811 1.365 1.365 0 0 0 -2.282 1.413c3.01 8.3 13.143 12.522 13.143 12.522 4.533 3.116 9.207 9.764 9.207 9.764l20.256 27.914z" fill="#181d2d" data-original="#3f536b" style="" class=""/><path d="m161.916 221.065 1.109 2.655a2.562 2.562 0 0 1 -4.728 1.974 2.643 2.643 0 0 1 -.185-.728l-.291-2.862a2.135 2.135 0 0 1 4.095-1.039z" fill="#181d2d" data-original="#3f536b" style="" class=""/><path d="m280.556 153.909a61.8 61.8 0 0 1 -12.656-14.715l.354 12.538a25.729 25.729 0 0 0 10.946 4.987 1.605 1.605 0 0 0 1.356-2.81z" fill="#181d2d" data-original="#3f536b" style="" class=""/><path d="m296.577 210.465.2-14.816-10.777 31.468a27.036 27.036 0 0 1 -11.19 14.129l-7.221 4.539-.471 19.576 17.441-18.061a28.681 28.681 0 0 0 7.259-13.226l5.008-20.835z" fill="#181d2d" data-original="#3f536b" style="" class=""/><path d="m40.322 237.7a1.032 1.032 0 0 1 .733 1.331c-1.515 4.425-3.585 9.17-5.221 12.7a1.118 1.118 0 0 0 1.825 1.239 112.443 112.443 0 0 0 10.4-13.336l14.353-25.424a85.359 85.359 0 0 0 9.764-22.889 1.02 1.02 0 0 0 -1.862-.79c-5.636 9.5-13.953 21.407-13.953 21.407l-8.413 10.662a5.939 5.939 0 0 1 -2.98 2.1c-3.98 1.131-5.812-3.268-5.812-3.268-6.986-18.361-19.766-28.323-26.8-33.376.032.96.065 1.922.1 2.89q.138 3.338.268 6.615s13.52 11.282 19.565 32.466a11.119 11.119 0 0 0 8.033 7.673z" fill="#181d2d" data-original="#3f536b" style="" class=""/><path d="m22.025 99.917 49.705 5.674-1.64-9.7h-38.96a12.311 12.311 0 0 0 -9.105 4.026z" fill="#181d2d" data-original="#3f536b" style="" class=""/><path d="m195.658 54h21.69a10.435 10.435 0 0 1 10.435 10.435v17.765a11.782 11.782 0 0 1 -11.775 11.782l-27.3.017z" fill="#181d2d" data-original="#3f536b" style="" class=""/></g><path xmlns="http://www.w3.org/2000/svg" d="m31.352 94.711h47.139l110.609-2.238s12.179.617 14.747-9.744l.566-5.869v-14.1a8.752 8.752 0 0 0 -8.755-8.76h-25.4q-4.3 0-8.587.382l-36.736 3.268a96.885 96.885 0 0 1 -23.737-.811 96.875 96.875 0 0 0 -17.238-1.166c-14.57.317-43.829 1.063-60.269 2.239a9.083 9.083 0 0 0 -8.434 9.066v17.933c0 5.136 4.021 8.427 9.116 9.066z" fill="#181d2d" data-original="#8294af" style="" class=""/><path xmlns="http://www.w3.org/2000/svg" d="m59.269 56.318-.477 11.451a1.675 1.675 0 0 0 3.175.813l6.2-12.523c-2.867.079-5.854.165-8.898.259z" fill="#181d2d" data-original="#3f536b" style="" class=""/><path xmlns="http://www.w3.org/2000/svg" d="m164.077 71.347a.707.707 0 0 0 1.319-.469c-.768-3.5-2.582-8.486-6.857-11.675a63.4 63.4 0 0 1 -4.976-4.1l-8.763.78 9.3 5.2a25.025 25.025 0 0 1 9.977 10.264z" fill="#181d2d" data-original="#3f536b" style="" class=""/><path xmlns="http://www.w3.org/2000/svg" d="m199.987 104.531a9.64 9.64 0 0 0 -.084-1.6c-.011-.07-.021-.139-.033-.208a10.525 10.525 0 0 0 -11.162-8.723 170.256 170.256 0 0 0 -46.133 9.549 13.4 13.4 0 0 0 -2.471 1.2c8.675-2.327 35.367-8.45 48.6-4.014a19.056 19.056 0 0 1 11.05 14.593z" fill="#181d2d" data-original="#3f536b" style="" class=""/><path xmlns="http://www.w3.org/2000/svg" d="m189.1 87.217-59.434 2.234-4.164-1.8a2.7 2.7 0 0 1 -1.567-3.113 27.591 27.591 0 0 0 .674-8.769.886.886 0 0 0 -1.727-.2l-.358 1.1a34.826 34.826 0 0 1 -6.19 11.294c-6.056.233-75.334 2.852-86.984 1.493 0 0-9.5-.55-14.092-4.54a10.187 10.187 0 0 0 8.919 10.108l6.954.872h47.1l110.477-1.896s13.134-.276 15.7-10.636v-6.5s-2.378 10.15-15.308 10.353z" fill="#181d2d" data-original="#3f536b" style="" class=""/></g></svg>
