<?xml version="1.0"?>
<svg xmlns="http://www.w3.org/2000/svg" xmlns:xlink="http://www.w3.org/1999/xlink" xmlns:svgjs="http://svgjs.com/svgjs" version="1.1" width="512" height="512" x="0" y="0" viewBox="0 0 464 464" style="enable-background:new 0 0 512 512" xml:space="preserve" class=""><g><g xmlns="http://www.w3.org/2000/svg" fill="#181d2d"><path d="m432 352-56-88h40l-64-80 32 8-72-144-72 144 32-8-64 80h40l-56 88 48-8-48 88 96-12.800781 24-3.199219 24 3.199219 96 12.800781-48-88zm0 0" fill="#181d2d" data-original="#181d2d" style=""/><path d="m216.800781 313.039062.480469-.800781-1.28125-.238281zm0 0" fill="#181d2d" data-original="#181d2d" style=""/><path d="m208 232 40 8-17.921875-3.601562zm0 0" fill="#181d2d" data-original="#181d2d" style=""/><path d="m264 320-30.167969-47.40625 4.328125 6.847656zm0 0" fill="#181d2d" data-original="#181d2d" style=""/></g><path xmlns="http://www.w3.org/2000/svg" d="m288 419.199219v44.800781h48v-44.800781l-24-3.199219zm0 0" fill="#181d2d" data-original="#754c29" style="" class=""/><path xmlns="http://www.w3.org/2000/svg" d="m216.800781 313.039062-.800781-1.039062 1.28125.238281 46.71875 7.761719-25.839844-40.558594-4.328125-6.847656-25.832031-40.59375 22.078125 4.398438 17.921875 3.601562-9.921875-13.601562-54.078125-74.398438 40 8-80-160-80 160 40-8-64 88 40-8-56 88 48-8-72 88 120-13.359375 24-2.640625 24 2.640625 41.921875 4.640625 78.078125 8.71875zm0 0" fill="#181d2d" data-original="#5eac24" style="" class=""/><path xmlns="http://www.w3.org/2000/svg" d="m120 386.640625v77.359375h48v-77.359375l-24-2.640625zm0 0" fill="#181d2d" data-original="#754c29" style="" class=""/><path xmlns="http://www.w3.org/2000/svg" d="m228.398438 264-9.039063-14.160156-11.359375-17.839844 25.832031 40.59375zm0 0" fill="#181d2d" data-original="#181d2d" style=""/><path xmlns="http://www.w3.org/2000/svg" d="m74.464844 367.503906c-4.25 0-7.753906-3.320312-7.984375-7.5625-.234375-4.242187 2.890625-7.925781 7.113281-8.390625l69.527344-7.703125c.585937-.054687 1.171875-.054687 1.757812 0l49.96875 5.527344-9-10.976562-46.785156-60.679688c-.933594-1.234375-1.488281-2.714844-1.597656-4.261719-2.980469-2.191406-4.074219-6.136719-2.640625-9.546875 1.429687-3.410156 5.011719-5.394531 8.664062-4.796875l38.351563 6.207031-44.550782-69.960937c-1.644531-2.410156-1.847656-5.523437-.527343-8.125 1.320312-2.605469 3.953125-4.28125 6.871093-4.378906 2.914063-.09375 5.652344 1.402343 7.144532 3.914062l54.09375 84.992188c1.6875 2.652343 1.660156 6.046875-.0625 8.675781-1.726563 2.628906-4.832032 4.003906-7.9375 3.515625l-37.4375-6.066406 38.964844 50.546875 21.28125 25.972656c2.0625 2.519531 2.398437 6.03125.84375 8.890625-1.550782 2.863281-4.679688 4.496094-7.914063 4.136719l-68.609375-7.585938-68.648438 7.617188c-.292968.027344-.589843.042968-.886718.039062zm99.488281-174.917968c-2.5625 0-4.972656-1.222657-6.480469-3.296876l-29.945312-41.183593c-2.597656-3.578125-1.804688-8.582031 1.773437-11.179688 3.574219-2.601562 8.582031-1.804687 11.179688 1.769531l29.933593 41.183594c1.769532 2.433594 2.023438 5.652344.660157 8.332032-1.363281 2.679687-4.113281 4.371093-7.121094 4.375zm-11.847656-76.800782c-3.046875.015625-5.839844-1.699218-7.203125-4.425781l-18.101563-36.191406c-1.980469-3.976563-.359375-8.804688 3.613281-10.785157 3.976563-1.976562 8.804688-.359374 10.785157 3.617188l18.097656 36.191406c1.242187 2.480469 1.109375 5.425782-.347656 7.789063-1.457031 2.359375-4.03125 3.796875-6.804688 3.796875zm0 0" fill="#181d2d" data-original="#4e901e" style="" class=""/><path xmlns="http://www.w3.org/2000/svg" d="m373.695312 399.945312c-.351562 0-.707031-.027343-1.054687-.074218l-57.175781-7.625c-2.882813-.316406-5.367188-2.171875-6.492188-4.84375-1.128906-2.675782-.71875-5.746094 1.066406-8.03125 1.789063-2.285156 4.671876-3.425782 7.535157-2.980469l41.554687 5.539063-41.714844-76.464844c-1.460937-2.6875-1.265624-5.972656.507813-8.464844s4.8125-3.757812 7.832031-3.257812l24.34375 4.058593-39.136718-61.503906c-1.570313-2.464844-1.671876-5.585937-.265626-8.144531 1.402344-2.558594 4.089844-4.152344 7.007813-4.152344h15.097656l-27.023437-33.777344c-2.761719-3.449218-2.203125-8.484375 1.246094-11.246094 3.453124-2.761718 8.488281-2.203124 11.25 1.246094l37.414062 46.777344c1.925781 2.402344 2.300781 5.699219.960938 8.472656-1.335938 2.773438-4.144532 4.535156-7.222657 4.527344h-17.144531l40.941406 64.34375c1.695313 2.664062 1.664063 6.074219-.078125 8.707031-1.742187 2.632813-4.871093 3.996094-7.984375 3.476563l-25.832031-4.304688 41.390625 75.898438c1.351562 2.476562 1.292969 5.484375-.148438 7.910156-1.441406 2.425781-4.050781 3.910156-6.875 3.914062zm-52.152343-253.3125c-3.03125 0-5.804688-1.710937-7.160157-4.425781l-9.542968-19.070312c-1.96875-3.964844-.351563-8.777344 3.613281-10.75 3.964844-1.96875 8.777344-.351563 10.746094 3.613281l9.535156 19.078125c1.242187 2.480469 1.109375 5.425781-.347656 7.78125-1.457031 2.359375-4.03125 3.796875-6.800781 3.796875zm0 0" fill="#181d2d" data-original="#5eac24" style="" class=""/></g></svg>
