<?xml version="1.0"?>
<svg xmlns="http://www.w3.org/2000/svg" xmlns:xlink="http://www.w3.org/1999/xlink" xmlns:svgjs="http://svgjs.com/svgjs" version="1.1" width="512" height="512" x="0" y="0" viewBox="0 0 32 32" style="enable-background:new 0 0 512 512" xml:space="preserve" class=""><g><g xmlns="http://www.w3.org/2000/svg" id="Layer_3" data-name="Layer 3"><path d="m16 15a7 7 0 1 0 -7-7 7.008 7.008 0 0 0 7 7zm0-12a5 5 0 1 1 -5 5 5.006 5.006 0 0 1 5-5z" fill="#ffffff" data-original="#000000" style="" class=""/><path d="m20.97 17h-9.94a8.04 8.04 0 0 0 -8.03 8.03v4.97a1 1 0 0 0 1 1h24a1 1 0 0 0 1-1v-4.97a8.04 8.04 0 0 0 -8.03-8.03zm6.03 12h-22v-3.97a6.037 6.037 0 0 1 6.03-6.03h9.94a6.037 6.037 0 0 1 6.03 6.03z" fill="#ffffff" data-original="#000000" style="" class=""/></g></g></svg>
