<svg width="100%" height="100%" preserveAspectRatio="none" id="wave-reflection" xmlns="http://www.w3.org/2000/svg" viewBox="0 0 1440 320">
    <path fill="#181d2d" d="M0,128L24,133.3C48,139,96,149,144,165.3C192,181,240,203,288,186.7C336,171,384,117,432,112C480,107,528,149,576,138.7C624,128,672,64,720,53.3C768,43,816,85,864,106.7C912,128,960,128,1008,133.3C1056,139,1104,149,1152,170.7C1200,192,1248,224,1296,245.3C1344,267,1392,277,1416,282.7L1440,288L1440,320L1416,320C1392,320,1344,320,1296,320C1248,320,1200,320,1152,320C1104,320,1056,320,1008,320C960,320,912,320,864,320C816,320,768,320,720,320C672,320,624,320,576,320C528,320,480,320,432,320C384,320,336,320,288,320C240,320,192,320,144,320C96,320,48,320,24,320L0,320Z"></path>
</svg>