<?xml version="1.0"?>
<svg xmlns="http://www.w3.org/2000/svg" xmlns:xlink="http://www.w3.org/1999/xlink" xmlns:svgjs="http://svgjs.com/svgjs" version="1.1" width="512" height="512" x="0" y="0" viewBox="0 0 512 512" style="enable-background:new 0 0 512 512" xml:space="preserve" class=""><g><path xmlns="http://www.w3.org/2000/svg" d="m360.944 150.719 77.279-99.167a10.5 10.5 0 0 0 -1.823-14.74l-27.056-21.083a10.423 10.423 0 0 0 -6.169-2.2 12.941 12.941 0 0 0 -22.844-5.14l-125.748 161.367c-.088.006-.178 0-.266.013l-9.938-7.745a10.654 10.654 0 0 0 1.017-1.111l10.338-13.267 10.743-13.786a10.5 10.5 0 0 0 -1.829-14.736l-45.973-35.824-53.195-41.456-45.98-35.83a10.5 10.5 0 0 0 -14.736 1.828l-21.082 27.058a10.425 10.425 0 0 0 -2.2 6.163 12.947 12.947 0 0 0 -5.139 22.849l118.347 92.226-37.969 28.69a46.272 46.272 0 0 0 -18.162 32.769 12.484 12.484 0 0 0 9.69 13.292l-34.879 44.759-35.827 45.973a10.5 10.5 0 0 0 1.827 14.736l13.269 10.343 13.786 10.743a10.438 10.438 0 0 0 6.441 2.213c.156 0 .311-.019.466-.026a12.924 12.924 0 0 0 12.421 9.431 13.178 13.178 0 0 0 1.619-.1 12.887 12.887 0 0 0 5.38-1.95c-8.091 81.115-12.251 124.284-12.365 128.362a12.761 12.761 0 0 0 12.763 13.117h245.773a12.763 12.763 0 0 0 12.763-13.121c-.119-4.221-4.542-50.394-13.15-137.275l11.038 8.6a10.423 10.423 0 0 0 6.433 2.221 10.571 10.571 0 0 0 1.314-.082 10.432 10.432 0 0 0 6.99-3.967l10.337-13.266 10.742-13.784a10.421 10.421 0 0 0 2.2-6.91 12.938 12.938 0 0 0 4.425-22.657l-63.367-49.365c-1.322-13.213-2.328-23.23-2.848-28.414a12.467 12.467 0 0 0 7.6-12.584 46.285 46.285 0 0 0 -18.09-32.826l-13.272-10.08 18.9-24.259zm69.923-106.808a1.5 1.5 0 0 1 .26 2.1l-33.063 42.432-11.419-8.9 33.984-43.611zm-30.11-19.6v-.007l.944-1.212a1.5 1.5 0 0 1 2.107-.262l9.722 7.57-33.984 43.61-10.9-8.495zm-73.566 94.4 35.921-46.1 10.9 8.5-35.922 46.1zm5.369 15.594-33.984 43.61-9.719-7.573a1.5 1.5 0 0 1 -.26-2.106l.838-1.075 32.224-41.351zm54.871-120.382a3.947 3.947 0 0 1 6.228 4.852l-70.273 90.177-6.059 7.776-19.664 25.232-27.219 34.929a17.863 17.863 0 0 0 -6.013-5.129zm-131.426 164.761a8.984 8.984 0 0 1 8.923 7.6 9.322 9.322 0 0 1 .112 1.434 9.03 9.03 0 0 1 -18.055.293c.01-.143-.005-.285-.008-.429a9.04 9.04 0 0 1 9.028-8.898zm-.536 43.65-9.02-.012 12.536-16.087 5.711 4.451a10.536 10.536 0 0 0 -1.016 1.111zm-5.769 22.049 7.573-9.718 43.61 33.984-8.5 10.9-42.428-33.064a1.5 1.5 0 0 1 -.261-2.1zm58.283 29.8 46.1 35.921-8.5 10.9-46.1-35.922zm5.532-7.1 8.9-11.421 27.715 21.6 18.382 14.324-8.9 11.42zm-7.1-5.533-43.615-33.985 7.977-10.237a1.488 1.488 0 0 1 1-.566 1.377 1.377 0 0 1 .185-.012 1.485 1.485 0 0 1 .922.317l42.427 33.062zm-68.115-106.168a1.5 1.5 0 0 1 -2.106.261l-42.426-33.062 8.495-10.9 43.61 33.984zm-51.631-38.334-46.1-35.922 8.494-10.9 46.1 35.922zm72.453 9.176a1.5 1.5 0 0 1 .26 2.1l-7.982 10.24-43.61-33.984 8.9-11.42zm-49.527-38.6-8.9 11.42-46.095-35.918 8.9-11.42zm-97.731-74.252a1.5 1.5 0 0 1 2.1-.26l42.436 33.062-8.9 11.42-43.614-33.984zm-21.083 27.055 7.573-9.718 43.61 33.984-8.494 10.9-42.428-33.062a1.5 1.5 0 0 1 -.261-2.104zm-9.592 10.842a3.954 3.954 0 0 1 5.541-.687l157.97 123.104a18.116 18.116 0 0 0 -4.909 6.183l-157.914-123.059a3.954 3.954 0 0 1 -.688-5.541zm69.825 170.931a3.507 3.507 0 0 1 -3.489-3.816 37.256 37.256 0 0 1 14.623-26.383l39.893-30.145 36.086 28.122c.032.25.073.5.115.745l-4.689 6.016a10.429 10.429 0 0 0 -1.111-1.016l-13.785-10.742-13.267-10.335a10.5 10.5 0 0 0 -14.738 1.828l-35.64 45.735zm26.144 23.354 11.419 8.9-35.921 46.1-11.42-8.9zm-1.567-12.631-10.9-8.5 33.063-42.427a1.5 1.5 0 0 1 1-.567 1.573 1.573 0 0 1 .185-.011 1.478 1.478 0 0 1 .92.316l9.718 7.573zm7.1 5.532 33.984-43.61 10.237 7.977a1.5 1.5 0 0 1 .261 2.106l-33.063 42.426zm-23.533-6.928 10.9 8.5-35.922 46.1-10.9-8.5zm-74.258 97.731a1.5 1.5 0 0 1 -.259-2.1l33.059-42.431 10.9 8.5-33.984 43.61zm29.16 20.822a1.5 1.5 0 0 1 -2.105.261l-10.236-7.977 33.984-43.61 11.42 8.9zm12.2 9.945a3.947 3.947 0 0 1 -3.6-6.344l34.323-44.045 85.624-109.876a18.107 18.107 0 0 0 6.428 4.6l-14.856 19.064a4.485 4.485 0 0 0 -1.087 1.394l-104.2 133.716a3.919 3.919 0 0 1 -2.627 1.491zm256.424 135.6a3.761 3.761 0 0 1 -3.766 3.868h-245.768a3.762 3.762 0 0 1 -3.767-3.868c.039-1.391.657-8.671 2.624-29.2h248.078c1.949 20.498 2.565 27.801 2.604 29.197zm-3.464-38.2h-246.346c2.065-21.352 5.261-53.782 10.112-102.332l96.456-123.776 9.02.012-5.862 7.521a10.5 10.5 0 0 0 1.828 14.736l45.972 35.826 53.2 41.454 25.13 19.583c5.075 51.121 8.38 84.937 10.495 106.972zm17.986-98.083a1.489 1.489 0 0 1 -1 .565 1.472 1.472 0 0 1 -1.107-.305l-19.221-14.979-.017-.014-23.181-18.073 8.5-10.9 43.61 33.984zm21.083-27.055-7.977 10.237-43.61-33.985 8.9-11.42 40.5 31.558 1.93 1.5a1.5 1.5 0 0 1 .26 2.1zm9.685-14.308a3.948 3.948 0 0 1 -6.345 3.6l-44.045-34.323-53.19-41.456-56.807-44.268a18.113 18.113 0 0 0 4.774-6.252l154.126 120.067a3.921 3.921 0 0 1 1.492 2.628zm-94.564-86.544 23.443.029c.4 4.01 1.089 10.852 1.984 19.78zm16.451-39.2a37.268 37.268 0 0 1 14.567 26.43 3.507 3.507 0 0 1 -3.494 3.807l-39.093-.048-46.959-36.583 7.331-9.408a10.737 10.737 0 0 0 1.111 1.016l27.053 21.082a10.511 10.511 0 0 0 14.736-1.829l11.387-14.622zm-31.85-1.064a1.5 1.5 0 0 1 -2.106.261l-10.235-7.977 33.984-43.61 11.42 8.9zm27.175-58.425 35.922-46.1 11.419 8.9-35.921 46.1z" fill="#181d2d" data-original="#000000" style="" class=""/><path xmlns="http://www.w3.org/2000/svg" d="m205.566 411.67h-10.7a11.68 11.68 0 0 1 -11.666-11.67v-27.7a11.68 11.68 0 0 1 11.667-11.667h10.7a11.679 11.679 0 0 1 11.666 11.667v27.7a11.679 11.679 0 0 1 -11.667 11.67zm-10.7-42.031a2.669 2.669 0 0 0 -2.667 2.667v27.694a2.669 2.669 0 0 0 2.667 2.667h10.7a2.669 2.669 0 0 0 2.666-2.667v-27.7a2.669 2.669 0 0 0 -2.666-2.667z" fill="#181d2d" data-original="#000000" style="" class=""/><path xmlns="http://www.w3.org/2000/svg" d="m317.191 411.67h-10.691a11.68 11.68 0 0 1 -11.672-11.67v-27.7a11.68 11.68 0 0 1 11.672-11.661h10.7a11.679 11.679 0 0 1 11.667 11.667v27.694a11.679 11.679 0 0 1 -11.676 11.67zm-10.7-42.031a2.669 2.669 0 0 0 -2.667 2.667v27.694a2.669 2.669 0 0 0 2.667 2.667h10.7a2.669 2.669 0 0 0 2.667-2.667v-27.7a2.669 2.669 0 0 0 -2.667-2.667z" fill="#181d2d" data-original="#000000" style="" class=""/><path xmlns="http://www.w3.org/2000/svg" d="m256.632 260.047h-1.2a22.183 22.183 0 0 0 -22.159 22.159v38.668a9.508 9.508 0 0 0 9.5 9.5h26.524a9.509 9.509 0 0 0 9.5-9.5v-38.668a22.183 22.183 0 0 0 -22.165-22.159zm13.158 22.159v11.346h-9.26v-23.915a13.181 13.181 0 0 1 9.26 12.569zm-18.26-12.569v23.915h-9.259v-11.346a13.182 13.182 0 0 1 9.259-12.569zm-9.259 51.237v-18.322h9.259v18.82h-8.761a.5.5 0 0 1 -.498-.498zm27.022.5h-8.763v-18.82h9.26v18.322a.5.5 0 0 1 -.497.496z" fill="#181d2d" data-original="#000000" style="" class=""/></g></svg>
