<?xml version="1.0"?>
<svg xmlns="http://www.w3.org/2000/svg" xmlns:xlink="http://www.w3.org/1999/xlink" xmlns:svgjs="http://svgjs.com/svgjs" version="1.1" width="512" height="512" x="0" y="0" viewBox="0 0 409.665 409.665" style="enable-background:new 0 0 512 512" xml:space="preserve" class=""><g><path xmlns="http://www.w3.org/2000/svg" d="m31.238281 236.003906c.707031 0 1.414063-.023437 2.121094-.070312l97.753906-8.160156c10.1875-.753907 18.4375-8.21875 20.660157-17.820313h18.882812c.855469 5.714844 3.101562 10.96875 6.398438 15.417969l-13.359376 13.359375c-8.363281-5.21875-19.476562-4.660157-27.238281 2.027343l-91.066406 79.527344c-6.476563 5.65625-10.359375 13.832032-10.652344 22.429688-.289062 8.59375 3.035157 17.011718 9.117188 23.09375 5.835937 5.839844 13.820312 9.132812 22.054687 9.132812.347656 0 .695313-.007812 1.042969-.015625 8.59375-.292969 16.769531-4.175781 22.425781-10.652343l79.550782-91.089844c6.667968-7.742188 7.222656-18.851563 2.003906-27.210938l13.359375-13.363281c4.449219 3.296875 9.703125 5.546875 15.417969 6.398437v18.882813c-9.601563 2.222656-17.0625 10.464844-17.820313 20.613281l-8.164063 97.882813c-.578124 8.582031 2.457032 17.105469 8.328126 23.390625 5.871093 6.28125 14.175781 9.886718 22.777343 9.886718 8.601563 0 16.902344-3.601562 22.777344-9.886718 5.871094-6.28125 8.90625-14.808594 8.320313-23.46875l-8.15625-97.757813c-.753907-10.1875-8.21875-18.433593-17.820313-20.660156v-18.882813c5.714844-.851562 10.96875-3.101562 15.417969-6.398437l13.359375 13.363281c-5.21875 8.359375-4.660157 19.472656 2.023437 27.234375l79.527344 91.066407c5.660156 6.476562 13.832031 10.359374 22.429688 10.652343.347656.007813.695312.015625 1.042968.015625 8.230469 0 16.222656-3.292968 22.054688-9.132812 6.082031-6.082032 9.40625-14.5 9.117187-23.09375-.289062-8.597656-4.171875-16.773438-10.652343-22.433594l-91.089844-79.546875c-7.742188-6.667969-18.851563-7.222656-27.214844-2.003906l-13.359375-13.359375c3.296875-4.449219 5.546875-9.703125 6.398437-15.417969h18.882813c2.222656 9.601563 10.464844 17.066406 20.613281 17.820313l97.882813 8.164062c.691406.046875 1.386719.070312 2.078125.070312 7.867187 0 15.539062-3 21.3125-8.398437 6.28125-5.875 9.886718-14.175781 9.886718-22.777344 0-8.597656-3.601562-16.902343-9.886718-22.773437-6.28125-5.871094-14.796875-8.898438-23.472656-8.324219l-97.757813 8.15625c-10.1875.757813-18.433594 8.21875-20.65625 17.820313h-18.882813c-.851562-5.714844-3.101562-10.96875-6.398437-15.417969l13.351563-13.351563c3.707031 2.316406 7.945312 3.527344 12.210937 3.527344 5.347656 0 10.714844-1.839844 15.035156-5.558594l91.066407-79.527344c6.476562-5.65625 10.359374-13.832031 10.652343-22.429687.289063-8.597656-3.035156-17.015625-9.117187-23.097656-6.082032-6.082031-14.480469-9.378907-23.097656-9.117188-8.597657.292969-16.769532 4.175781-22.429688 10.652344l-79.546875 91.09375c-6.667969 7.738281-7.222656 18.847656-2.003906 27.210937l-13.359375 13.359376c-4.449219-3.296876-9.703125-5.542969-15.417969-6.398438v-18.882812c9.601563-2.222657 17.066406-10.460938 17.820313-20.609376l8.160156-97.886718c.582031-8.582032-2.453125-17.105469-8.324219-23.390625-5.875-6.285157-14.175781-9.886719-22.777344-9.886719-8.601562 0-16.90625 3.605469-22.777343 9.886719-5.871094 6.285156-8.90625 14.8125-8.320313 23.472656l8.15625 97.757813c.757813 10.1875 8.21875 18.433593 17.820313 20.65625v18.882812c-5.714844.855469-10.96875 3.101562-15.417969 6.398438l-13.359375-13.359376c5.21875-8.363281 4.660156-19.476562-2.027344-27.238281l-79.527344-91.066406c-5.65625-6.476563-13.832031-10.359375-22.425781-10.652344-8.59375-.257812-17.015625 3.035157-23.097656 9.117188s-9.40625 14.5-9.117188 23.097656c.292969 8.597656 4.175781 16.773437 10.652344 22.429687l91.09375 79.550782c4.304687 3.707031 9.65625 5.539062 15 5.539062 4.265625 0 8.507813-1.210937 12.21875-3.53125l13.351563 13.351563c-3.296876 4.449219-5.542969 9.703125-6.398438 15.417969h-18.882812c-2.222657-9.601563-10.464844-17.0625-20.613282-17.820313l-97.882812-8.160156c-8.566406-.589844-17.105469 2.453125-23.390625 8.328125-6.285157 5.871094-9.886719 14.175781-9.886719 22.773437 0 8.601563 3.605469 16.90625 9.886719 22.777344 5.773437 5.394531 13.433593 8.394531 21.351562 8.394531zm173.59375-55.527344c13.429688 0 24.359375 10.925782 24.359375 24.355469 0 13.429688-10.929687 24.359375-24.359375 24.359375-13.429687 0-24.355469-10.929687-24.355469-24.359375 0-13.429687 10.925782-24.355469 24.355469-24.355469zm-43.640625 85.996094-79.527344 91.066406c-3.855468 4.414063-9.203124 6.953126-15.058593 7.152344-5.867188.175782-11.367188-1.976562-15.511719-6.121094-4.144531-4.144531-6.316406-9.652343-6.117188-15.511718.195313-5.855469 2.734376-11.207032 7.152344-15.0625l91.039063-79.5c2.386719-2.0625 5.359375-3.078125 8.324219-3.078125 3.285156 0 6.566406 1.25 9.035156 3.71875 4.699218 4.699219 4.984375 12.324219.664062 17.335937zm56.375 12.882813 8.152344 97.722656c.394531 5.847656-1.589844 11.425781-5.589844 15.707031-4.003906 4.28125-9.4375 6.640625-15.296875 6.640625-5.863281 0-11.292969-2.359375-15.296875-6.640625-4-4.28125-5.988281-9.859375-5.597656-15.628906l8.164062-97.847656c.492188-6.625 6.085938-11.820313 12.730469-11.820313s12.238281 5.195313 12.734375 11.867188zm40.613282-33.941407c2.957031 0 5.921874 1.011719 8.292968 3.058594l91.066406 79.523438c4.414063 3.855468 6.953126 9.207031 7.152344 15.0625.195313 5.859375-1.976562 11.367187-6.121094 15.511718-4.148437 4.140626-9.707031 6.25-15.511718 6.121094-5.859375-.199218-11.207032-2.738281-15.0625-7.152344l-79.503906-91.042968c-4.339844-5.035156-4.058594-12.660156.644531-17.359375 2.472656-2.472657 5.753906-3.722657 9.042969-3.722657zm21.171874-53.316406 97.722657-8.152344c.492187-.03125.976562-.046874 1.460937-.046874 5.3125 0 10.324219 1.972656 14.25 5.640624 4.28125 4 6.640625 9.433594 6.640625 15.292969s-2.359375 11.292969-6.640625 15.296875c-4.28125 4-9.871094 6.007813-15.628906 5.597656l-97.847656-8.160156c-6.628906-.496094-11.820313-6.089844-11.820313-12.734375s5.191407-12.238281 11.863281-12.734375zm-30.882812-48.90625 79.527344-91.0625c3.855468-4.417968 9.203125-6.957031 15.0625-7.152344.242187-.007812.488281-.015624.734375-.015624 5.582031 0 10.808593 2.164062 14.777343 6.132812 4.144532 4.144531 6.316407 9.65625 6.121094 15.515625-.199218 5.855469-2.738281 11.203125-7.152344 15.058594l-91.039062 79.503906c-5.039062 4.339844-12.664062 4.054687-17.363281-.644531-4.703125-4.699219-4.984375-12.324219-.667969-17.335938zm-56.371094-12.878906-8.15625-97.726562c-.394531-5.847657 1.59375-11.421876 5.59375-15.707032 4.003906-4.28125 9.433594-6.640625 15.296875-6.640625 5.859375 0 11.292969 2.359375 15.296875 6.640625 4 4.28125 5.984375 9.859375 5.597656 15.628906l-8.160156 97.851563c-.496094 6.625-6.089844 11.816406-12.734375 11.816406s-12.238281-5.191406-12.734375-11.863281zm-48.90625 30.882812-91.0625-79.527343c-4.417968-3.855469-6.957031-9.203125-7.152344-15.058594-.199218-5.859375 1.972657-11.371094 6.117188-15.515625 3.972656-3.96875 9.195312-6.132812 14.777344-6.132812.242187 0 .488281.007812.734375.015624 5.855469.195313 11.203125 2.734376 15.058593 7.152344l79.507813 91.039063c4.339844 5.035156 4.054687 12.660156-.644531 17.359375-4.699219 4.699218-12.324219 4.988281-17.335938.667968zm-126.3125 28.34375c3.929688-3.671874 8.949219-5.648437 14.207032-5.648437.472656 0 .945312.015625 1.421874.050781l97.847657 8.160156c6.628906.492188 11.820312 6.085938 11.820312 12.730469s-5.191406 12.238281-11.867187 12.734375l-97.722656 8.15625c-5.851563.371094-11.421876-1.589844-15.707032-5.59375-4.28125-4-6.640625-9.433594-6.640625-15.296875 0-5.859375 2.359375-11.292969 6.640625-15.292969zm0 0" fill="#212e54" data-original="#000000" style="" class=""/></g></svg>
