<?xml version="1.0" encoding="UTF-8" standalone="no"?>
<svg
   xmlns:dc="http://purl.org/dc/elements/1.1/"
   xmlns:cc="http://creativecommons.org/ns#"
   xmlns:rdf="http://www.w3.org/1999/02/22-rdf-syntax-ns#"
   xmlns:svg="http://www.w3.org/2000/svg"
   xmlns="http://www.w3.org/2000/svg"
   xmlns:sodipodi="http://sodipodi.sourceforge.net/DTD/sodipodi-0.dtd"
   xmlns:inkscape="http://www.inkscape.org/namespaces/inkscape"
   width="210mm"
   height="297mm"
   viewBox="0 0 210 297"
   version="1.1"
   id="svg8"
   inkscape:version="1.0.2 (e86c8708, 2021-01-15)"
   sodipodi:docname="windmilledit.svg">
  <defs
     id="defs2" />
  <sodipodi:namedview
     id="base"
     pagecolor="#ffffff"
     bordercolor="#666666"
     borderopacity="1.0"
     inkscape:pageopacity="0.0"
     inkscape:pageshadow="2"
     inkscape:zoom="0.31493948"
     inkscape:cx="-646.86393"
     inkscape:cy="891.63753"
     inkscape:document-units="mm"
     inkscape:current-layer="layer1"
     inkscape:document-rotation="0"
     showgrid="false"
     inkscape:window-width="1792"
     inkscape:window-height="1120"
     inkscape:window-x="0"
     inkscape:window-y="0"
     inkscape:window-maximized="0" />
  <metadata
     id="metadata5">
    <rdf:RDF>
      <cc:Work
         rdf:about="">
        <dc:format>image/svg+xml</dc:format>
        <dc:type
           rdf:resource="http://purl.org/dc/dcmitype/StillImage" />
        <dc:title></dc:title>
      </cc:Work>
    </rdf:RDF>
  </metadata>
  <g
     inkscape:label="Layer 1"
     inkscape:groupmode="layer"
     id="layer1">
    <g
       id="g20"
       transform="matrix(0.57180556,0,0.00303329,0.59392865,-41.257508,26.412665)"
       style="opacity:1;fill:#212e54;fill-opacity:1;fill-rule:evenodd">
      <path
         d="m 285.354,142.086 a 4.476,4.476 0 0 1 -2.718,-0.916 l -18.073,-13.726 a 14.064,14.064 0 0 0 -6.393,-2.7 4.5,4.5 0 1 1 1.336,-8.9 23.086,23.086 0 0 1 10.5,4.433 L 288.079,134 a 4.5,4.5 0 0 1 -2.725,8.084 z"
         fill="#212e54"
         data-original="#212e54"
         class=""
         id="path10"
         style="fill:#212e54;fill-opacity:1;fill-rule:evenodd" />
      <path
         id="path12"
         style="fill:#212e54;fill-opacity:1;fill-rule:evenodd;stroke-width:2.20257"
         transform="matrix(0.46271557,0,-0.00236316,0.44548,72.388946,-44.471108)"
         d="m 688.0625,107.45312 a 29.054723,27.96254 86.021839 0 0 -0.10156,0.002 29.054723,27.96254 86.021839 0 0 -21.84375,11.20312 L 396.20508,480.89062 c -0.19011,0.0134 -0.38419,1.1e-4 -0.57422,0.0293 L 374.06445,463.5332 a 23.920023,23.020856 86.021839 0 0 2.18555,-2.49218 l 22.18945,-29.78321 23.0586,-30.94531 a 23.574267,22.688098 86.021837 0 0 -4.11914,-33.08008 l -99.76758,-80.41601 -115.4375,-93.0586 -99.7793,-80.43164 a 23.574267,22.688098 86.021837 0 0 -31.828124,4.10547 l -45.25,60.73828 A 23.405879,22.52604 86.021835 0 0 20.630859,192.00391 29.068194,27.975505 86.021838 0 0 9.7871094,243.29492 L 258.06836,443.43555 c 1.39253,0.10171 2.32459,0.59375 2.43945,1.77343 0.006,0.0678 0.005,0.13538 0.0117,0.20313 l 6.0918,4.91016 -0.15235,0.11914 c 6.38284,2.97244 14.30541,7.09477 15.36329,13.29882 l 0.74218,-0.58398 78.31055,63.12695 c 0.0721,0.5612 0.16228,1.12385 0.25586,1.67383 l -10.06445,13.50391 a 23.41486,22.534683 86.02184 0 0 -2.41407,-2.2793 l -29.91406,-24.11523 -28.78906,-23.19922 a 23.574267,22.688098 86.021837 0 0 -10.87891,-4.75977 c -1.7621,0.48232 -3.22061,0.35279 -4.46679,-0.17773 a 23.574267,22.688098 86.021837 0 0 -16.48633,9.04297 l -76.49805,102.66211 -0.67578,-0.002 c -1.19169,2.21651 -2.46437,4.40757 -3.9082,6.57617 -0.76231,1.14495 -1.46567,3.71368 -2.70118,3.11133 -0.30545,-0.14891 -0.65199,-0.3144 -0.98437,-0.47461 -1.73296,2.5665 -3.10088,5.71231 -5.56055,7.69532 -0.27014,0.21773 -0.50145,0.33258 -0.71289,0.4082 -0.33203,0.50345 -0.75043,1.1817 -1.16601,1.85937 a 28.028681,26.975067 86.021841 0 0 1.19336,0.31055 L 92.236328,718.59375 15.335938,821.79297 a 23.574267,22.688098 86.021837 0 0 4.117187,33.08008 l 28.794922,23.21679 29.916015,24.11524 a 23.435066,22.55413 86.021835 0 0 13.945313,4.9668 c 0.337141,0 0.672904,-0.0412 1.007813,-0.0566 a 29.016555,27.925808 86.021838 0 0 26.953122,21.16797 29.586827,28.474643 86.021837 0 0 3.4961,-0.22461 28.933484,27.845859 86.021839 0 0 11.60547,-4.37695 c -0.0183,0.20118 -0.0311,0.33815 -0.0488,0.5332 1.44422,-1.17343 2.89774,-2.31236 4.35547,-3.40625 l 0.85937,-0.875 c 0.19119,-0.067 0.38041,-0.14782 0.57031,-0.22461 1.00792,-0.99862 2.05748,-1.95588 3.14258,-2.875 0.12512,-0.27879 0.24297,-0.5576 0.33203,-0.83398 1.30242,-1.61902 1.83607,-4.84783 3.90625,-4.85547 0.0323,-10e-5 0.0652,0.002 0.0977,0.002 0.44138,-0.66178 0.90417,-1.31113 1.22656,-2.00976 0.66164,-0.81538 1.25839,-1.68931 1.95508,-2.47266 0.36038,-0.57386 0.82918,-1.24122 1.58008,-2.28711 0.69062,-0.77155 1.20289,-1.7638 2.02734,-2.36914 0.56798,-1.00536 1.1738,-2.02033 1.79102,-3.03125 0.0669,-0.73655 0.11174,-1.2386 0.18554,-2.04883 l 207.03711,-277.84765 19.49414,0.0293 -12.58398,16.88085 a 23.574267,22.688098 86.021837 0 0 1.33008,30.41602 c 3.79931,1.12269 7.80154,3.64454 11.58398,7.98633 0.9773,1.12181 1.95439,2.24151 2.93164,3.36328 0.306,0.46151 0.61991,0.91659 0.9336,1.37305 4.3286,2.55168 8.4379,5.69498 12.56445,7.7207 8.64288,5.67853 16.82777,11.24184 23.80859,19.01172 0.6348,0.70659 1.83077,1.49178 1.80664,2.35742 1.28602,0.23471 2.32942,0.92662 2.9668,2.24414 0.2874,0.59413 0.48405,1.19491 0.64258,1.79688 0.65525,0.0388 1.40201,0.23855 2.21875,0.56835 0.36173,0.006 0.73126,0.14857 1.26367,0.60157 7.53983,3.8609 19.26678,16.12243 20.13477,17.11914 0.98141,1.12699 1.72247,2.18309 2.25976,3.17383 0.23187,0.13643 0.45669,0.26818 0.7207,0.42773 3.6396,2.19943 6.40589,4.59904 8.42383,7.04297 l 10.29297,8.29687 115.44922,93.05469 54.5332,43.95899 c 0.0274,0.27169 0.0484,0.48316 0.0742,0.74023 3.5096,1.10266 7.30823,3.33013 11.14453,6.9707 2.71621,2.57763 1.20189,1.10071 4.5,4.47266 0.572,0.69597 1.17563,1.36726 1.7168,2.08789 0.0733,0.0976 -0.78972,-0.66525 -0.73242,-0.54687 0.10764,0.22227 0.33788,0.36078 0.50586,0.54101 -0.008,0.009 -0.0155,0.0183 -0.0234,0.0273 0.37448,0.15071 0.6344,0.25876 1.03906,0.41796 1.19756,1.24508 2.23859,2.28874 3.13282,3.20118 -0.0255,-0.25351 -0.0474,-0.46404 -0.0762,-0.75 l 15.71094,12.6621 c 0.044,-0.0259 0.0954,0.028 0.14844,0.11719 l 8.0957,6.52539 a 23.401389,22.521718 86.021841 0 0 13.92774,4.98633 23.733674,22.841512 86.021839 0 0 2.83789,-0.18359 23.421595,22.541166 86.021836 0 0 15.06054,-8.90625 l 22.1875,-29.7793 23.05664,-30.94141 a 23.396899,22.517397 86.021838 0 0 4.67774,-15.50976 29.047987,27.956058 86.021836 0 0 9.30273,-50.86133 L 643.74023,680.96289 c -0.0857,-0.84503 -0.11708,-1.14272 -0.18554,-1.81641 -7.13802,-4.524 -16.0983,-10.41814 -21.23242,-16.58593 0.0508,0.50065 0.0695,0.68638 0.12695,1.25195 l -55.17969,-44.4668 1.33203,0.002 c -1.91622,-1.18402 -3.87043,-2.43563 -5.39258,-4.01368 -3.76564,-1.90447 -5.82282,-3.82362 -7.14843,-6.5957 -1.38103,-1.07375 -2.74649,-2.4147 -4.39258,-3.93164 -0.0283,-0.0261 -0.52736,-0.42589 -0.66211,-0.53711 -0.65601,-0.23531 -1.37252,-0.36091 -1.94141,-0.74609 -1.0642,-0.72057 -2.04524,-1.55616 -3.06836,-2.33399 -0.81648,-0.70135 -1.6472,-1.38441 -2.47656,-2.07031 l -1.35547,-0.002 -101.90429,-82.11914 15.73437,-21.11914 a 24.106372,23.200201 86.021839 0 0 2.41406,2.28125 l 58.70703,47.32422 a 23.598964,22.711866 86.021839 0 0 31.82618,-4.10547 l 24.4414,-32.82422 1.0918,0.85937 c 0.12315,-0.049 0.24557,-0.1006 0.37305,-0.14453 0.42679,-1.37464 1.79069,-3.01464 3.80273,-5.66211 1.30534,-1.44315 2.05787,-2.31771 2.74805,-2.61523 1.74741,-2.43363 3.45287,-4.89876 5.16601,-7.35742 l -1.29687,-1.01758 40.56836,-54.45703 0.0137,-0.004 165.875,-222.60742 a 23.574267,22.688098 86.021837 0 0 -4.10938,-33.08789 l -58.71289,-47.32617 a 23.401389,22.521718 86.021841 0 0 -13.35742,-4.9375 29.054723,27.96254 86.021839 0 0 -27.48242,-22.74415 z m 0.20312,20.2129 a 8.8627219,8.5295741 86.02176 0 1 0.0215,0 8.8627219,8.5295741 86.02176 0 1 6.75391,14.30664 l -150.8379,202.42773 -13.00585,17.45508 -42.20704,56.63867 -58.42382,78.4082 A 40.105441,38.597856 86.02184 0 0 417.51172,485.38867 L 681.52344,131.08008 a 8.8627219,8.5295741 86.02176 0 1 6.74218,-3.41406 z m -599.835932,0.88867 a 3.3677524,3.2411568 86.021837 0 1 0.0078,0 3.3677524,3.2411568 86.021837 0 1 2.072266,0.70703 l 92.089844,74.2168 -19.10352,25.63476 -94.644528,-76.28711 17.123047,-22.98047 a 3.3677524,3.2411568 86.021837 0 1 2.455079,-1.29101 z m 626.490232,21.80859 a 3.3677524,3.2411568 86.021837 0 1 0.008,0 3.3677524,3.2411568 86.021837 0 1 0.002,0 3.3677524,3.2411568 86.021837 0 1 2.08984,0.71289 l 21.09766,16.99219 -72.94531,97.89453 -23.6543,-19.06836 68.92578,-92.49414 v -0.0156 l 2.02539,-2.72071 a 3.3677524,3.2411568 86.021837 0 1 2.45117,-1.30078 z m -657.943358,18.39844 94.636718,76.28516 -18.23047,24.46874 -92.072263,-74.21679 a 3.3677524,3.2411568 86.021837 0 1 -0.587891,-4.72266 z m 696.544918,11.72461 22.21875,17.91015 a 3.3677524,3.2411568 86.021837 0 1 0.58399,4.71485 l -70.9668,95.25 -24.7793,-19.97656 z M 26.867188,211.50586 a 8.8773963,8.5436969 86.021761 0 1 0.01953,0 8.8773963,8.5436969 86.021761 0 1 0.002,0 8.8773963,8.5436969 86.021761 0 1 5.193359,1.86719 L 374.89258,489.71289 A 40.673469,39.144532 86.021838 0 0 364.35352,503.5918 L 21.666016,227.35352 a 8.8773963,8.5436969 86.021761 0 1 -1.550782,-12.4375 8.8773963,8.5436969 86.021761 0 1 6.751954,-3.41016 z m 171.140622,4.39062 100.03125,80.625 -19.10351,25.63868 -100.03125,-80.62891 z m -30.98828,41.57227 100.04102,80.63672 -18.23243,24.46875 -100.03906,-80.63867 z m 462.62109,5.35352 23.65235,19.08007 -77.10352,103.48438 -23.65234,-19.08203 z m 39.05274,31.50585 24.7793,19.97657 -77.10157,103.48633 -24.78125,-19.98047 z m -355.25977,14.6211 92.08203,74.22266 a 3.3677524,3.2411568 86.021837 0 1 0.5879,4.71289 l -17.13477,22.98828 -94.63867,-76.28711 z m -30.96484,41.57617 94.63672,76.28711 -16.25586,21.8125 a 3.3677524,3.2411568 86.021837 0 1 -4.54688,0.58594 l -92.06835,-74.2168 z m 258.19531,31.7168 23.65625,19.07031 -72.94531,97.89258 -21.0918,-16.99805 a 3.3677524,3.2411568 86.021837 0 1 -0.58593,-4.72851 l 1.80078,-2.41407 z m 39.04883,31.50586 24.7832,19.97851 -70.96875,95.23633 a 3.3677524,3.2411568 86.021837 0 1 -4.54687,0.58399 l -22.21094,-17.9043 z m -180.50586,87.18554 a 20.296322,19.533372 86.02184 0 1 0.0801,0 20.296322,19.533372 86.02184 0 1 0.0937,0 20.170592,19.412368 86.021842 0 1 19.37109,17.0586 20.929459,20.142709 86.021838 0 1 0.25782,3.2207 20.273869,19.511764 86.021839 0 1 -39.01563,0.65625 c 0.02,-0.32101 -0.0153,-0.63964 -0.0234,-0.96289 a 20.296322,19.533372 86.02184 0 1 19.23633,-19.97266 z m -123.2168,6.13672 a 3.5316497,3.3988931 86.021838 0 1 0.0937,0 3.3183587,3.1936198 86.021837 0 1 1.99219,0.70703 l 21.08985,17 -72.94922,97.90821 -23.6543,-19.08203 70.96875,-95.23829 a 3.3677524,3.2411568 86.021837 0 1 2.15234,-1.27148 3.5316497,3.3988931 86.021838 0 1 0.30664,-0.0234 z m 38.57813,30.13867 22.21484,17.90821 a 3.3677524,3.2411568 86.021837 0 1 0.58789,4.72656 l -70.96875,95.23633 -24.77929,-19.97656 z m 120.35156,0.97657 334.46485,269.52343 a 8.8033057,8.4723914 86.02176 0 1 3.25585,5.9004 l -0.01,0.008 a 8.8639254,8.5307322 86.021762 0 1 -13.67188,8.08008 L 663.375,744.65039 547.94922,651.5918 424.67383,552.2207 a 40.666733,39.138049 86.021838 0 0 10.24609,-14.03515 z m -64.25195,10.05664 a 40.653262,39.125084 86.021839 0 0 13.94531,10.32617 l -31.88867,42.79492 a 10.06958,9.6910663 86.02177 0 0 -2.33399,3.12891 L 126.73242,904.6543 A 8.7988155,8.4680698 86.021762 0 1 121.07227,908 h -0.0117 a 8.8616802,8.5285714 86.021761 0 1 -7.85352,-14.24023 l 73.67383,-98.8711 z m 35.46875,14.53515 12.39453,9.99219 a 23.655093,22.765886 86.021838 0 0 -2.18359,2.49219 l -17.625,23.6543 -19.49414,-0.0273 z m 28.16797,23.60352 a 3.3340749,3.2087453 86.021837 0 1 1.99414,0.71094 l 92.07226,74.21679 -19.0957,25.63868 -94.64844,-76.28907 17.1211,-22.98047 a 3.3408105,3.2152276 86.021838 0 1 2.15625,-1.26953 3.0915967,2.975382 86.021836 0 1 0.40039,-0.0273 z m -261.92188,21.08203 c -0.27182,0.11359 -0.53065,0.2467 -0.75,0.42969 -0.13809,0.11518 0.0908,0.12841 0.36524,0.1543 0.1254,-0.19923 0.25571,-0.39107 0.38476,-0.58399 z m 393.13477,8.57617 c 0.10372,0.082 0.20492,0.16576 0.31054,0.2461 -0.0276,-0.0595 -0.056,-0.1184 -0.084,-0.17774 -0.0156,-0.01 -0.0312,-0.0195 -0.0469,-0.0293 -0.059,-0.0158 -0.12023,-0.0247 -0.17969,-0.0391 z m 2.64453,1.83789 c 0.72363,0.45867 1.43141,0.91356 2.14062,1.35157 -0.67392,-0.47333 -1.3549,-0.92438 -2.14062,-1.35157 z m 3.5957,1.15039 c 0.15195,0.11088 0.29967,0.21419 0.44922,0.32422 h 0.16016 c -0.18384,-0.10354 -0.41791,-0.21897 -0.60938,-0.32422 z m -381.07226,0.52539 23.65429,19.08008 -77.10351,103.48438 -23.6543,-19.08203 z m 212.07812,7.04493 94.63672,76.28515 -18.24414,24.46875 -92.07227,-74.22265 a 3.3677524,3.2411568 86.021837 0 1 -0.58789,-4.71289 l 0.0117,-0.004 z m -173.01562,24.44336 24.77929,19.97656 -77.10156,103.48437 -24.7832,-19.97851 z m 314.03711,22.6875 60.14453,48.48828 39.89062,32.15429 -19.10351,25.63477 -100.03516,-80.63867 z m -108.86133,41.56836 c 0.0603,0.0695 0.12444,0.14726 0.1875,0.2207 0.23711,2.6e-4 0.48243,0.0133 0.74414,0.0488 -0.3351,-0.1184 -0.63339,-0.19514 -0.93164,-0.26953 z m 77.88476,0.01 100.04102,80.63281 -18.24414,24.4668 -100.04102,-80.63477 z m -411.10937,23.66602 23.6543,19.08203 -72.945317,97.89453 -21.085937,-17.01367 a 3.3677524,3.2411568 86.021837 0 1 -0.582032,-4.71289 z m 557.50586,27.81836 87.89062,70.83984 4.1875,3.36719 a 3.3677524,3.2411568 86.021837 0 1 0.58594,4.71484 l -0.006,0.0234 -17.12305,22.97851 -94.63867,-76.28906 z m -518.43946,3.66992 24.78321,19.98047 -70.968752,95.23632 a 3.3677524,3.2411568 86.021837 0 1 -4.544922,0.58594 l -22.21289,-17.9082 z m 487.48438,37.89648 94.63867,76.28516 -16.27929,21.82422 a 3.3430556,3.2173883 86.021839 0 1 -2.1543,1.26953 3.3048877,3.1806552 86.021837 0 1 -2.39649,-0.68555 l -41.71093,-33.62305 -0.0371,-0.0332 -50.30469,-40.57031 z m 36.82812,96.11524 c 0.29523,0.32815 0.58903,0.65794 0.87891,0.99218 0.004,-0.007 0.008,-0.0142 0.0117,-0.0215 0.14822,-0.28647 -0.52006,-0.77656 -0.89063,-0.9707 z m -514.88867,5.73437 c -0.0786,0.13168 -0.18952,0.30908 -0.29883,0.48047 0.0344,-0.0267 0.0923,-0.0714 0.12891,-0.0996 0.0523,-0.12438 0.11528,-0.25362 0.16992,-0.38086 z m 525.39844,287.36717 c 0.0613,0.6908 0.13479,1.5136 0.2168,2.4102 0.3312,0.1295 0.64665,0.2702 0.96093,0.4121 -0.0522,-0.1207 -0.11363,-0.2381 -0.16406,-0.3594 -0.34061,-0.8197 -0.67371,-1.6427 -1.01367,-2.4629 z m 18.26172,26.8828 c -1.40254,0.3114 -2.87377,0.4895 -3.77344,1.5235 -0.85861,0.9873 1.58913,-0.3771 3.49414,-0.8946 a 28.655083,27.577923 86.021836 0 0 0.2793,-0.6289 z" />
      <path
         id="path14"
         style="fill:#212e54;fill-opacity:1;fill-rule:evenodd;stroke-width:2.19129"
         transform="matrix(0.46271557,0,0,0.45007723,69.490926,2.6144934)"
         d="m 250.51562,806.22656 a 25.242289,25.951102 0 0 0 -0.56835,0.84571 c 0.21524,-0.27448 0.43141,-0.54827 0.65234,-0.80469 -0.0296,-0.0127 -0.0548,-0.0281 -0.084,-0.041 z m 21.875,2.5 c 0.18408,0.46563 0.3459,0.95451 0.49415,1.45703 1.22436,-0.38748 2.45097,-0.76089 3.67773,-1.12109 -1.17458,-0.14967 -2.56474,-0.25776 -4.17188,-0.33594 z" />
      <path
         id="path16"
         style="fill:#212e54;fill-opacity:1;fill-rule:evenodd;stroke-width:2.19129"
         transform="matrix(0.46271557,0,0,0.45007723,69.490926,2.6144934)"
         d="m 543.79688,862.75 c -0.28351,0.002 -0.5082,0.0397 -0.69532,0.10547 0.65345,-0.003 1.26971,-9e-4 1.87891,-0.002 -0.46724,-0.069 -0.85851,-0.10574 -1.18359,-0.10352 z m -44.09961,26.0957 c -0.002,0.005 -0.002,0.0106 -0.004,0.0156 0.001,-0.004 -0.002,0.0257 0,0.0156 0.002,-0.0104 0.002,-0.0209 0.004,-0.0312 z m 41.23437,2.58203 c 0.44408,0.3488 0.90468,0.69202 1.35938,1.03711 0.02,-0.11127 0.0398,-0.22257 0.0586,-0.33398 -0.4312,-0.17253 -0.88865,-0.41118 -1.36523,-0.70313 z" />
      <path
         id="path18"
         style="fill:#212e54;fill-opacity:1;fill-rule:evenodd;stroke-width:2.19129"
         transform="matrix(0.46271557,0,0,0.45007723,69.490926,2.6144934)"
         d="m 401.84766,571.97461 a 47.940899,49.287097 0 0 0 -3.95313,0.17187 c 1.77654,1.13461 3.53887,2.21018 5.30469,3.07032 8.61388,5.62053 16.7698,11.12785 23.71094,18.81836 0.63119,0.69937 1.82347,1.47523 1.79492,2.33203 1.28482,0.23231 2.32443,0.91859 2.95508,2.22265 0.28416,0.58763 0.47655,1.18145 0.63086,1.77735 0.6555,0.0381 1.40291,0.23574 2.21875,0.5625 0.36112,0.006 0.72892,0.14868 1.25781,0.5957 5.0317,2.55637 11.84433,8.76709 16.11523,12.94922 a 47.940899,49.287097 0 0 0 -47.4414,-42.5 z m 35.68554,31.39844 c 0.0601,0.0689 0.12475,0.14598 0.1875,0.21875 0.23711,2.6e-4 0.48261,0.0136 0.74414,0.0488 -0.33449,-0.11733 -0.63377,-0.19393 -0.93164,-0.26757 z m -17.25586,62.90429 c 1.8e-4,0.0469 -0.002,0.0934 -0.002,0.14063 h 0.28516 c -0.119,-0.0593 -0.16701,-0.0827 -0.28321,-0.14063 z" />
    </g>
  </g>
</svg>
