<?xml version="1.0"?>
<svg xmlns="http://www.w3.org/2000/svg" xmlns:xlink="http://www.w3.org/1999/xlink" xmlns:svgjs="http://svgjs.com/svgjs" version="1.1" width="512" height="512" x="0" y="0" viewBox="0 0 512 512" style="enable-background:new 0 0 512 512" xml:space="preserve" class=""><g><path xmlns="http://www.w3.org/2000/svg" d="m485.2 75.6c-7.2 1.8 12.6-15.7 15.5-22.1s-7-24.4-21.5-19.9-35.3 14.1-54.3 13.6c-14.5-.4-25.5 2.6-33.6 6.2-11.6-5.6-21.1-14.7-27.1-26.1-4.8 9.8-4.8 21.2 0 30.9l-29-16.5c-9.3 19-.9 44.6 9 62.5.9 23.5-13 38-28.4 42.5s-27.2.5-51.6 17.2c-31.7 21.7-99 25.4-124.6 32.6-32.4 9.1-48.9 20.8-48.9 20.8s-68.6 1.7-65.1 58.8c4.5 75.1-15.2 148.4-15.2 148.4s57.7-21.7 65.9-85.1 25.3-82.1 25.3-82.1 6.3 44.1 11.8 84.9-11.8 25.3-15.4 72.4 16.4 73.3 16.4 73.3h46c.9-2.3 1.5-4.8 1.8-7.2h34.4c2.2-14.9-4.4-27.4-18.1-38v-26.3s6.3-1.8 29.9-20.8 28.1-54.1 28.1-54.1c18.2 2.2 36.6-.4 53.5-7.5 0 0 17 33.5 8 48s-2.9 50.7 2.6 74.2 12.7 31.7 12.7 31.7h41.6c1-2.3 1.6-4.8 2-7.2h34.1c-2-15.2-7.1-25.2-15.3-29.9 0 0-17.2-20.8-18.6-39.7-1.4-18.8 33.4-113.2 33.9-114.7 14.2-14.7 24.7-32.4 30.8-51.9 0 0 5.4-60.6 30.8-90.5s40.7-58 47.1-65.2-7.3-15-14.5-13.2z" fill="#181d2d" data-original="#7e7873" style=""/><path xmlns="http://www.w3.org/2000/svg" d="m364.2 27.3c6 11.4 15.5 20.5 27.1 26.1-11 5-16.2 11-16.2 11l-10.9-6.1c-4.8-9.9-4.8-21.3 0-31z" fill="#181d2d" data-original="#7e7873" style=""/><path xmlns="http://www.w3.org/2000/svg" d="m28.2 415s30.2-45.5 33.9-81 19.7-78.4 28.4-82.4c10.3-4.7 11.2 5.7 11.2 5.7s6.3 44.1 11.8 84.9-11.8 25.4-15.4 72.4 16.4 73.3 16.4 73.3h46c.9-2.3 1.5-4.8 1.8-7.2 1.6-12-5-20.9-19-27.1 0 0-18.9-41.8-2.7-48 26.2-10 60.6-73.3 60.6-73.3 11.3 4.6 23.2 7.7 35.4 9.2 18.1 2.2 36.6-.4 53.4-7.4 0 0 17 33.5 8 48s-2.9 50.7 2.6 74.2 12.7 31.7 12.7 31.7h41.6c1-2.3 1.6-4.8 2-7.2 1.4-10.2-4.2-18.8-18.3-25.3 0 0-13.6-40.7-7.2-58.8s25.7-73.3 25.7-73.3c12.4-7.4 23.8-16.5 33.9-26.8 14.2-14.7 24.7-32.4 30.8-51.9 0 0 5.4-60.6 30.8-90.5s40.7-58 47.1-65.2-7.6-15-14.8-13.2 12.6-15.7 15.5-22.1-7-24.4-21.5-19.9-35.3 14.1-54.3 13.6c-14.5-.4-25.5 2.6-33.6 6.2-11.6-5.6-21.1-14.7-27.1-26.1-4.8 9.8-4.8 21.2 0 30.9l-29-16.5c-9.3 19-.9 44.6 9 62.5.9 23.5-13 38-28.4 42.5s-27.2.5-51.6 17.2c-31.7 21.7-99 25.4-124.6 32.6-32.4 9.1-48.9 20.8-48.9 20.8s-68.6 1.7-65.1 58.8c4.5 75.1-14.9 148.2-14.9 148.2 7.1-3.4 11.3-5.7 17.8-9.5z" fill="#181d2d" data-original="#d1c7bd" style="" class=""/><path xmlns="http://www.w3.org/2000/svg" d="m101.7 257.3c-1.2-6.9-5.1-8.4-11.2-5.7-8.6 4.3-24.7 46.9-28.4 82.4s-33.9 81-33.9 81c-6.9 4.1-11.6 6.7-17.8 9.5 0 0 9.3-35 13.5-81.5.1-.5 9.2-45.3 20.3-82.7 11.1-37.6 51.3-27.3 51.3-27.3s7.4-9.2 33.4-18.5 122.4-18.5 145.3-40.8c14.7-14.3 26-5.5 61.2-24.1 35.2-18.5 22.1-44.6 15-63.2s-2.4-37.4-2.4-37.4l16.3 9.4c-4.8-9.7-4.8-21.2 0-30.9 1.1 2.1 2.4 4.2 3.7 6.1 5.9 8.5 14 15.4 23.4 20 8.1-3.6 19.1-6.6 33.6-6.2v-.1c19 .5 39.8-9.1 54.3-13.6s24.4 13.6 21.5 19.9c-2.9 6.4-22.7 23.9-15.5 22.1 3.4-.8 8.4.5 12 2.9-.8.6-43.3 32.5-59.2 68-14.1 31.5-44.2 67.1-70.2 90 3.5 28.9 0 57.8-10.5 86.7 0 0-19.4 55.2-25.7 73.3-6.4 18.1 7.2 58.8 7.2 58.8 14.1 6.5 19.6 15.1 18.3 25.3-.4 2.4-1 4.9-2 7.2h-41.6c-.2-.2-7.3-8.5-12.7-31.7-5.5-23.5-11.7-59.7-2.7-74.2s-8-48-8-48c-1.9-14.9-5-31.1-.6-54.7-7.2 2.2-14.6 3.7-22.1 4.5-24.8 2.4-51.5 5-51.5 5 0 15.6-5.1 30.9-14.6 43.4 0 0-34.4 63.3-60.6 73.3-16.2 6.2 2.7 48 2.7 48 14 6.3 20.6 15.2 18.8 27.2-.3 2.4-.9 4.9-1.8 7.2h-46s-20-26.2-16.4-73.3 20.8-31.7 15.4-72.4c-5.5-40.8-11.8-84.9-11.8-84.9z" fill="#181d2d" data-original="#b2aba4" style="" class=""/><path xmlns="http://www.w3.org/2000/svg" d="m347.2 64.6c-10.8 6.6 9.4 30 9.4 30 4.9-8.7 11.4-10.3 18.5-9.9 0 0-17.4-26.5-27.9-20.1z" fill="#181d2d" data-original="#7e7873" style=""/><g xmlns="http://www.w3.org/2000/svg" fill="#383838"><path d="m466.8 35.8c.6 9.8 13.3 3.2 18.1 4.9 10.7 3.7 13-14.5 2.4-16.4-13-2.2-20.6 10.3-20.5 11.5z" fill="#181d2d" data-original="#383838" style="" class=""/><path d="m418.5 73.7c-3.6 0-6.6-3-6.6-6.6s3-6.6 6.6-6.6c1.6 0 9.6 1.2 9.6 6.6s-8 6.6-9.6 6.6z" fill="#181d2d" data-original="#383838" style="" class=""/><path d="m331.7 39.9c-11.5 23.3 1.8 52.9 8.6 65.5.3 14.6-6.2 31.7-25.3 37.3-4.1 1.1-8.4 1.9-12.6 2.4-10.4 1.4-22.2 3.1-40.2 15.4-21.4 14.7-61.4 21.1-90.7 25.8-13.3 2.1-24.8 4-32.6 6.2-28.5 8-44.9 17.9-49.1 20.7-6.7.4-36.8 3.1-54.8 22.7-9.8 10.6-14.2 24.2-13.2 40.6 4.4 73.5-15 146.3-15.2 147-.6 2.3.7 4.6 3 5.2.9.2 1.8.2 2.6-.1.6-.2 15.4-5.9 31.3-19.5 14.7-12.7 33.2-34.9 37.5-69 4.6-35.6 12.4-58.5 18.6-70.7 2.2 15.8 6.4 45.5 10.1 73.4 2.7 20-.3 25.1-4.4 32.2s-9.2 16-11 39.3c-3.7 48.1 16.4 75.1 17.3 76.2.8 1.1 2.1 1.7 3.4 1.7h46c1.8 0 3.4-1.1 4-2.8.5-1.5 1-2.9 1.4-4.5h30.9c2.1 0 3.9-1.5 4.2-3.6 2.3-15.4-3.8-29-18.1-40.7v-21.4c4-2.1 12.4-7.3 28.3-20.2 20.1-16.2 27-42.8 29-52.9 16.2 1.4 32.5-.9 47.8-6.6 4.7 10.4 12.1 31.3 6.5 40.3-9.6 15.4-4.2 50.6 2.1 77.4 5.7 24.3 13.4 33.2 13.7 33.5.8.9 2 1.4 3.2 1.4h41.6c1.7 0 3.3-1.1 3.9-2.7.6-1.5 1.1-3 1.5-4.6h30.7c2.3 0 4.3-1.9 4.3-4.2 0-.2 0-.4 0-.6-2.1-16.2-7.8-27.2-16.7-32.6-2.7-3.4-16-21.1-17.2-36.8-1.1-14.6 23.4-85 33.4-112 14.4-15 25.1-33.2 31.2-53 .1-.6 5.8-60.6 30-89 16.8-19.8 29.3-38.8 37.6-51.5 4.2-6.3 7.5-11.4 9.5-13.6 2.5-3.2 2.9-8.1.5-11.8-2.4-4-7.7-7.1-12.9-8.2 1.1-1.3 2.3-2.6 3.3-3.6 5.1-5.7 8.5-9.6 9.9-12.6 2.6-5.6-.7-13.9-5.3-19.1-5.8-6.6-13.6-9-21.3-6.6-3.4 1.1-7 2.4-10.9 3.8-12.5 4.5-28 10-42 9.6-14.1-.4-25.2 2.3-33.5 5.7-10-5.3-18.2-13.4-23.4-23.4-1.1-2.1-3.7-2.8-5.8-1.7-.8.4-1.4 1.1-1.8 1.9-3.6 7.3-4.8 15.6-3.5 23.7l-19.5-11.1c-2-1.2-4.7-.4-5.9 1.8zm33.7-2.8c4.6 6.4 10.4 11.8 17 16.1-2.8 1.7-5.5 3.7-8 5.9l-6.8-3.9c-2.6-5.7-3.3-12-2.2-18.1zm-159.4 355.2c-20.8 16.7-27.7 19.7-28.5 20-1.8.5-3.1 2.2-3 4.1v26.2c0 1.3.6 2.6 1.7 3.4 11.8 9.1 17.3 19.1 16.8 30.4h-26c-.3-9.2-5.1-18.9-20.3-26.1-4.8-11.1-10.6-29.9-7.3-37.9.5-1.4 1.5-2.4 2.8-2.9 24.1-9.2 53.4-58.6 61-72 9.2 3.5 18.8 6 28.5 7.5-1.9 9.6-8.4 33.3-25.7 47.3zm147.2 19.1c1.5 20 18.8 41.2 19.6 42.1.3.4.7.7 1.2 1 6.1 3.4 10.3 10.8 12.4 21.9h-24.8c-.5-8.3-5.2-17.1-19.2-24.1-3.9-12.2-11.3-41.3-6.7-54.4 5.7-16.4 22.1-63.1 25.2-71.9 7.2-4.4 14-9.3 20.5-14.7-3.3 9.2-7.5 21.3-11.6 33.9-17.6 53.5-16.9 63-16.6 66.2zm40.4-354.5c7.5-3.2 17.8-5.9 31.3-5.6 15.5.4 31.9-5.4 45.1-10.1 3.8-1.3 7.4-2.6 10.6-3.6 6-1.9 10.3 1.8 12.4 4.1 3.7 4.2 4.5 8.9 4 10-.9 2-5.3 6.9-8.5 10.4-7.2 8-10.6 11.7-8.3 15.5.6.9 2.3 3 6.2 2.1 3.2-.8 9.1 1.7 10.8 4.4.4.7.5 1-.2 1.9-2.4 2.7-5.6 7.7-10.1 14.6-8.2 12.4-20.5 31.2-37 50.6-25 29.5-31.1 86.2-31.7 92.4-6.1 18.7-16.3 35.7-29.9 49.8-7.1 7.3-14.8 13.8-23.1 19.6 7.6-25 9.9-51.3 6.9-77.2-.2-2.3-2.3-4-4.7-3.8-2.3.2-4 2.4-3.8 4.8 3.4 28.2 0 56.8-10.3 85s-19.4 55.3-25.7 73.4c-6.7 19.2 6.6 59.9 7.2 61.6.4 1.1 1.2 2 2.2 2.5 9.2 4.3 19.1 11 15.1 24.5h-36.5c-2.1-3.2-6.9-11.7-10.8-28.4-8.2-35.2-9.4-61.1-3.2-71 8.5-13.6-1.8-40.3-6.3-50.4-1-2.2-1.7-4.5-2-6.9-1.8-13.3-3.4-29.8.9-50 .6-2.3-.8-4.6-3-5.2-2.3-.6-4.7 1-5.2 3.2-5 23.5-2.6 41.7-.6 56.2-15.2 5.8-31.7 7.9-47.9 6-10.1-1.3-20.1-3.7-29.8-7.1 15.7-24.4 16.3-53.5 1.9-86.5-1-2.1-3.5-3.1-5.6-2.1-2.1.9-3.1 3.4-2.2 5.5 14.2 32.6 12.8 60-4.1 82.9-9.4 17.2-38.2 63.9-58.6 71.6-3.5 1.3-6.3 4.1-7.7 7.6-5.9 14.3 6.6 42.8 8 46 .4 1 1.2 1.7 2.1 2.1 14.8 6.6 17.5 15 16.6 22.3-.2 1.6-.5 2.9-.8 4h-40.7c-4.1-6.4-17.4-30.5-14.4-68.7 1.6-21.4 6-29 9.9-35.7 4.6-7.9 8.5-14.8 5.5-37.6-5.4-40.3-11.7-84.5-11.8-84.9-.3-2.3-2.5-3.9-4.8-3.6-1 .1-1.9.6-2.5 1.3-.7.8-18.2 20.5-26.4 84.5-3.1 25.1-14.7 46.5-34.3 63.4-6.5 5.6-13.6 10.5-21.2 14.6 5-21.8 17-81.1 13.4-141-.8-13.9 2.8-25.4 11-34.3 17.4-19 49.7-20.1 50.1-20.1.8 0 1.7-.3 2.3-.8.2-.1 16.4-11.5 47.6-20.2 7.4-2.1 18.7-3.9 31.7-6 31.7-5.1 71.2-11.4 94.1-27.2 16.3-11.2 26.6-12.6 36.5-13.9 4.7-.5 9.3-1.4 13.9-2.7 9-2.7 16.9-8.2 22.5-15.7 6.3-8.5 9.4-19.2 8.9-31.1 0-.7-.2-1.3-.5-1.9-4.4-7.9-17.3-33.9-10.7-54.3l35 19.9 10.4 11.4c1.5 1.8 4.2 2 6 .5s1.9-4.3.4-6.2l-8.1-8.8c3.5-2.9 8.3-5.7 12.5-7.6z" fill="#181d2d" data-original="#383838" style="" class=""/></g></g></svg>
